<?xml version="1.0" encoding="utf-8" standalone="no"?>
<!DOCTYPE svg PUBLIC "-//W3C//DTD SVG 1.1//EN"
  "http://www.w3.org/Graphics/SVG/1.1/DTD/svg11.dtd">
<!-- Created with matplotlib (https://matplotlib.org/) -->
<svg height="288pt" version="1.1" viewBox="0 0 432 288" width="432pt" xmlns="http://www.w3.org/2000/svg" xmlns:xlink="http://www.w3.org/1999/xlink">
 <defs>
  <style type="text/css">
*{stroke-linecap:butt;stroke-linejoin:round;}
  </style>
 </defs>
 <g id="figure_1">
  <g id="patch_1">
   <path d="M 0 288 
L 432 288 
L 432 0 
L 0 0 
z
" style="fill:#ffffff;"/>
  </g>
  <g id="axes_1">
   <g id="patch_2">
    <path d="M 54 252 
L 388.8 252 
L 388.8 34.56 
L 54 34.56 
z
" style="fill:#ffffff;"/>
   </g>
   <g id="patch_3">
    <path clip-path="url(#p11b2f8f3af)" d="M 364.926386 233.736326 
L 356.578303 216.71609 
L 350.318494 222.98545 
L 323.380563 203.164125 
L 323.378058 203.166633 
L 350.315989 222.987958 
L 344.05618 229.257317 
z
" style="fill:#ff0000;stroke:#ff0000;stroke-linejoin:miter;stroke-width:4;"/>
   </g>
   <g id="matplotlib.axis_1">
    <g id="xtick_1">
     <g id="line2d_1">
      <defs>
       <path d="M 0 0 
L 0 3.5 
" id="mf77cfaa31a" style="stroke:#000000;stroke-width:0.8;"/>
      </defs>
      <g>
       <use style="stroke:#000000;stroke-width:0.8;" x="361.862069" xlink:href="#mf77cfaa31a" y="252"/>
      </g>
     </g>
     <g id="text_1">
      <!-- $0$ -->
      <defs>
       <path d="M 42 31.84375 
C 42 37.96875 41.90625 48.421875 37.703125 56.453125 
C 34 63.484375 28.09375 66 22.90625 66 
C 18.09375 66 12 63.78125 8.203125 56.5625 
C 4.203125 49.015625 3.796875 39.671875 3.796875 31.84375 
C 3.796875 26.109375 3.90625 17.375 7 9.734375 
C 11.296875 -0.609375 19 -2 22.90625 -2 
C 27.5 -2 34.5 -0.109375 38.59375 9.4375 
C 41.59375 16.375 42 24.5 42 31.84375 
z
M 22.90625 -0.40625 
C 16.5 -0.40625 12.703125 5.125 11.296875 12.75 
C 10.203125 18.6875 10.203125 27.328125 10.203125 32.953125 
C 10.203125 40.6875 10.203125 47.109375 11.5 53.234375 
C 13.40625 61.78125 19 64.390625 22.90625 64.390625 
C 27 64.390625 32.296875 61.671875 34.203125 53.4375 
C 35.5 47.71875 35.59375 40.984375 35.59375 32.953125 
C 35.59375 26.421875 35.59375 18.375 34.40625 12.453125 
C 32.296875 1.5 26.40625 -0.40625 22.90625 -0.40625 
z
" id="CMR17-48"/>
      </defs>
      <g transform="translate(359.371401 265.918498)scale(0.1 -0.1)">
       <use transform="scale(0.996264)" xlink:href="#CMR17-48"/>
      </g>
     </g>
    </g>
    <g id="xtick_2">
     <g id="line2d_2">
      <g>
       <use style="stroke:#000000;stroke-width:0.8;" x="323.37931" xlink:href="#mf77cfaa31a" y="252"/>
      </g>
     </g>
     <g id="text_2">
      <!-- $10$ -->
      <defs>
       <path d="M 26.59375 63.796875 
C 26.59375 65.890625 26.5 66 25.09375 66 
C 21.203125 61.359375 15.296875 59.890625 9.703125 59.6875 
C 9.40625 59.6875 8.90625 59.6875 8.796875 59.5 
C 8.703125 59.296875 8.703125 59.09375 8.703125 57 
C 11.796875 57 17 57.59375 21 59.984375 
L 21 7.296875 
C 21 3.796875 20.796875 2.59375 12.203125 2.59375 
L 9.203125 2.59375 
L 9.203125 0 
C 14 0.09375 19 0.1875 23.796875 0.1875 
C 28.59375 0.1875 33.59375 0.09375 38.40625 0 
L 38.40625 2.59375 
L 35.40625 2.59375 
C 26.796875 2.59375 26.59375 3.6875 26.59375 7.296875 
z
" id="CMR17-49"/>
      </defs>
      <g transform="translate(318.397975 265.918498)scale(0.1 -0.1)">
       <use transform="scale(0.996264)" xlink:href="#CMR17-49"/>
       <use transform="translate(45.690477 0)scale(0.996264)" xlink:href="#CMR17-48"/>
      </g>
     </g>
    </g>
    <g id="xtick_3">
     <g id="line2d_3">
      <g>
       <use style="stroke:#000000;stroke-width:0.8;" x="284.896552" xlink:href="#mf77cfaa31a" y="252"/>
      </g>
     </g>
     <g id="text_3">
      <!-- $20$ -->
      <defs>
       <path d="M 41.703125 15.46875 
L 39.90625 15.46875 
C 38.90625 8.390625 38.09375 7.1875 37.703125 6.59375 
C 37.203125 5.796875 30 5.796875 28.59375 5.796875 
L 9.40625 5.796875 
C 13 9.6875 20 16.765625 28.5 24.9375 
C 34.59375 30.71875 41.703125 37.5 41.703125 47.390625 
C 41.703125 59.1875 32.296875 66 21.796875 66 
C 10.796875 66 4.09375 56.296875 4.09375 47.296875 
C 4.09375 43.390625 7 42.890625 8.203125 42.890625 
C 9.203125 42.890625 12.203125 43.484375 12.203125 46.984375 
C 12.203125 50.09375 9.59375 51 8.203125 51 
C 7.59375 51 7 50.890625 6.59375 50.6875 
C 8.5 59.1875 14.296875 63.390625 20.40625 63.390625 
C 29.09375 63.390625 34.796875 56.5 34.796875 47.390625 
C 34.796875 38.703125 29.703125 31.21875 24 24.734375 
L 4.09375 2.296875 
L 4.09375 0 
L 39.296875 0 
z
" id="CMR17-50"/>
      </defs>
      <g transform="translate(279.915216 265.918498)scale(0.1 -0.1)">
       <use transform="scale(0.996264)" xlink:href="#CMR17-50"/>
       <use transform="translate(45.690477 0)scale(0.996264)" xlink:href="#CMR17-48"/>
      </g>
     </g>
    </g>
    <g id="xtick_4">
     <g id="line2d_4">
      <g>
       <use style="stroke:#000000;stroke-width:0.8;" x="246.413793" xlink:href="#mf77cfaa31a" y="252"/>
      </g>
     </g>
     <g id="text_4">
      <!-- $30$ -->
      <defs>
       <path d="M 22.09375 34 
C 31 34 34.90625 26.140625 34.90625 17.09375 
C 34.90625 5.03125 28.5 0.390625 22.703125 0.390625 
C 17.40625 0.390625 8.796875 3.015625 6.09375 10.796875 
C 6.59375 10.59375 7.09375 10.59375 7.59375 10.59375 
C 10 10.59375 11.796875 12.1875 11.796875 14.796875 
C 11.796875 17.6875 9.59375 19 7.59375 19 
C 5.90625 19 3.296875 18.1875 3.296875 14.484375 
C 3.296875 5.234375 12.296875 -2 22.90625 -2 
C 34 -2 42.5 6.75 42.5 16.984375 
C 42.5 26.84375 34.5 34 25 35.09375 
C 32.59375 36.671875 39.90625 43.375 39.90625 52.390625 
C 39.90625 60.25 32 66 23 66 
C 13.90625 66 5.90625 60.34375 5.90625 52.296875 
C 5.90625 48.796875 8.5 48.1875 9.796875 48.1875 
C 11.90625 48.1875 13.703125 49.484375 13.703125 52.09375 
C 13.703125 54.6875 11.90625 56 9.796875 56 
C 9.40625 56 8.90625 56 8.5 55.796875 
C 11.40625 62.484375 19.296875 63.6875 22.796875 63.6875 
C 26.296875 63.6875 32.90625 61.96875 32.90625 52.296875 
C 32.90625 49.484375 32.5 44.546875 29.09375 40.21875 
C 26.09375 36.390625 22.703125 36.1875 19.40625 35.890625 
C 18.90625 35.890625 16.59375 35.6875 16.203125 35.6875 
C 15.5 35.59375 15.09375 35.5 15.09375 34.796875 
C 15.09375 34.09375 15.203125 34 17.203125 34 
z
" id="CMR17-51"/>
      </defs>
      <g transform="translate(241.432458 265.918498)scale(0.1 -0.1)">
       <use transform="scale(0.996264)" xlink:href="#CMR17-51"/>
       <use transform="translate(45.690477 0)scale(0.996264)" xlink:href="#CMR17-48"/>
      </g>
     </g>
    </g>
    <g id="xtick_5">
     <g id="line2d_5">
      <g>
       <use style="stroke:#000000;stroke-width:0.8;" x="207.931034" xlink:href="#mf77cfaa31a" y="252"/>
      </g>
     </g>
     <g id="text_5">
      <!-- $40$ -->
      <defs>
       <path d="M 33.59375 64.796875 
C 33.59375 66.890625 33.5 67 31.703125 67 
L 2 19.59375 
L 2 17 
L 27.796875 17 
L 27.796875 7.1875 
C 27.796875 3.59375 27.59375 2.59375 20.59375 2.59375 
L 18.703125 2.59375 
L 18.703125 0 
C 21.90625 0.1875 27.296875 0.1875 30.703125 0.1875 
C 34.09375 0.1875 39.5 0.1875 42.703125 0 
L 42.703125 2.59375 
L 40.796875 2.59375 
C 33.796875 2.59375 33.59375 3.59375 33.59375 7.1875 
L 33.59375 17 
L 43.796875 17 
L 43.796875 19.59375 
L 33.59375 19.59375 
z
M 28.09375 58.171875 
L 28.09375 19.59375 
L 4 19.59375 
z
" id="CMR17-52"/>
      </defs>
      <g transform="translate(202.949699 265.918498)scale(0.1 -0.1)">
       <use transform="scale(0.996264)" xlink:href="#CMR17-52"/>
       <use transform="translate(45.690477 0)scale(0.996264)" xlink:href="#CMR17-48"/>
      </g>
     </g>
    </g>
    <g id="xtick_6">
     <g id="line2d_6">
      <g>
       <use style="stroke:#000000;stroke-width:0.8;" x="169.448276" xlink:href="#mf77cfaa31a" y="252"/>
      </g>
     </g>
     <g id="text_6">
      <!-- $50$ -->
      <defs>
       <path d="M 11.40625 58.59375 
C 12.40625 58.1875 16.5 56.890625 20.703125 56.890625 
C 30 56.890625 35.09375 61.890625 38 64.6875 
C 38 65.484375 38 66 37.40625 66 
C 37.296875 66 37.09375 66 36.296875 65.59375 
C 32.796875 64.09375 28.703125 63 23.703125 63 
C 20.703125 63 16.203125 63.359375 11.296875 65.484375 
C 10.203125 66 10 66 9.90625 66 
C 9.40625 66 9.296875 65.890625 9.296875 63.90625 
L 9.296875 34.859375 
C 9.296875 33.015625 9.296875 32.5 10.296875 32.5 
C 10.796875 32.5 11 32.703125 11.5 33.421875 
C 14.703125 38.046875 19.09375 40 24.09375 40 
C 27.59375 40 35.09375 37.734375 35.09375 20.203125 
C 35.09375 16.984375 35.09375 11.1875 32.09375 6.59375 
C 29.59375 2.484375 25.703125 0.390625 21.40625 0.390625 
C 14.796875 0.390625 8.09375 4.984375 6.296875 12.6875 
C 6.703125 12.59375 7.5 12.390625 7.90625 12.390625 
C 9.203125 12.390625 11.703125 13.09375 11.703125 16.1875 
C 11.703125 18.890625 9.796875 20 7.90625 20 
C 5.59375 20 4.09375 18.59375 4.09375 15.796875 
C 4.09375 7.09375 11 -2 21.59375 -2 
C 31.90625 -2 41.703125 6.890625 41.703125 19.796875 
C 41.703125 32.09375 33.90625 41.59375 24.203125 41.59375 
C 19.09375 41.59375 14.796875 39.6875 11.40625 36 
z
" id="CMR17-53"/>
      </defs>
      <g transform="translate(164.466941 265.918498)scale(0.1 -0.1)">
       <use transform="scale(0.996264)" xlink:href="#CMR17-53"/>
       <use transform="translate(45.690477 0)scale(0.996264)" xlink:href="#CMR17-48"/>
      </g>
     </g>
    </g>
    <g id="xtick_7">
     <g id="line2d_7">
      <g>
       <use style="stroke:#000000;stroke-width:0.8;" x="130.965517" xlink:href="#mf77cfaa31a" y="252"/>
      </g>
     </g>
     <g id="text_7">
      <!-- $60$ -->
      <defs>
       <path d="M 10.59375 34.34375 
C 10.59375 58 21.796875 63.6875 28.296875 63.6875 
C 30.40625 63.6875 35.5 63.265625 37.5 59.09375 
C 35.90625 59.09375 32.90625 59.09375 32.90625 55.59375 
C 32.90625 52.890625 35.09375 52 36.5 52 
C 37.40625 52 40.09375 52.390625 40.09375 55.796875 
C 40.09375 62.296875 35.09375 66 28.203125 66 
C 16.296875 66 3.796875 53.296875 3.796875 31.421875 
C 3.796875 4.015625 15.09375 -2 23.09375 -2 
C 32.796875 -2 42 6.734375 42 20.234375 
C 42 32.828125 33.90625 42 23.703125 42 
C 17.59375 42 13.09375 37.96875 10.59375 30.921875 
z
M 23.09375 0.390625 
C 10.796875 0.390625 10.796875 18.9375 10.796875 22.65625 
C 10.796875 29.90625 14.203125 40.390625 23.5 40.390625 
C 25.203125 40.390625 30.09375 40.390625 33.40625 33.4375 
C 35.203125 29.515625 35.203125 25.375 35.203125 20.34375 
C 35.203125 14.90625 35.203125 10.875 33.09375 6.84375 
C 30.90625 2.703125 27.703125 0.390625 23.09375 0.390625 
z
" id="CMR17-54"/>
      </defs>
      <g transform="translate(125.984182 265.918498)scale(0.1 -0.1)">
       <use transform="scale(0.996264)" xlink:href="#CMR17-54"/>
       <use transform="translate(45.690477 0)scale(0.996264)" xlink:href="#CMR17-48"/>
      </g>
     </g>
    </g>
    <g id="xtick_8">
     <g id="line2d_8">
      <g>
       <use style="stroke:#000000;stroke-width:0.8;" x="92.482759" xlink:href="#mf77cfaa31a" y="252"/>
      </g>
     </g>
     <g id="text_8">
      <!-- $70$ -->
      <defs>
       <path d="M 45.09375 61.796875 
L 45.09375 64 
L 21.59375 64 
C 9.90625 64 9.703125 65.09375 9.296875 67 
L 7.5 67 
L 4.59375 48.5 
L 6.40625 48.5 
C 6.703125 50.40625 7.40625 55.5 8.59375 57.390625 
C 9.203125 58.1875 16.59375 58.1875 18.296875 58.1875 
L 40.296875 58.1875 
L 29.203125 41.71875 
C 21.796875 30.640625 16.703125 15.671875 16.703125 2.59375 
C 16.703125 1.390625 16.703125 -2 20.296875 -2 
C 23.90625 -2 23.90625 1.390625 23.90625 2.6875 
L 23.90625 7.28125 
C 23.90625 23.65625 26.703125 34.4375 31.296875 41.3125 
z
" id="CMR17-55"/>
      </defs>
      <g transform="translate(87.501423 265.918498)scale(0.1 -0.1)">
       <use transform="scale(0.996264)" xlink:href="#CMR17-55"/>
       <use transform="translate(45.690477 0)scale(0.996264)" xlink:href="#CMR17-48"/>
      </g>
     </g>
    </g>
    <g id="xtick_9">
     <g id="line2d_9">
      <g>
       <use style="stroke:#000000;stroke-width:0.8;" x="54" xlink:href="#mf77cfaa31a" y="252"/>
      </g>
     </g>
     <g id="text_9">
      <!-- $80$ -->
      <defs>
       <path d="M 27.203125 35.765625 
C 33.5 38.96875 39.90625 43.796875 39.90625 51.53125 
C 39.90625 60.6875 31.09375 66 23 66 
C 13.90625 66 5.90625 59.375 5.90625 50.234375 
C 5.90625 47.71875 6.5 43.390625 10.40625 39.578125 
C 11.40625 38.578125 15.59375 35.5625 18.296875 33.65625 
C 13.796875 31.34375 3.296875 25.8125 3.296875 14.765625 
C 3.296875 4.40625 13.09375 -2 22.796875 -2 
C 33.5 -2 42.5 5.71875 42.5 15.96875 
C 42.5 25.109375 36.40625 29.328125 32.40625 32.046875 
z
M 14.09375 44.609375 
C 13.296875 45.109375 9.296875 48.21875 9.296875 52.9375 
C 9.296875 59.078125 15.59375 63.6875 22.796875 63.6875 
C 30.703125 63.6875 36.5 58.0625 36.5 51.53125 
C 36.5 42.1875 26.09375 36.859375 25.59375 36.859375 
C 25.5 36.859375 25.40625 36.859375 24.59375 37.46875 
z
M 32.5 24 
C 34 22.90625 38.796875 19.578125 38.796875 13.453125 
C 38.796875 6.015625 31.40625 0.390625 23 0.390625 
C 13.90625 0.390625 7 6.921875 7 14.859375 
C 7 22.796875 13.09375 29.4375 20 32.546875 
z
" id="CMR17-56"/>
      </defs>
      <g transform="translate(49.018665 265.918498)scale(0.1 -0.1)">
       <use transform="scale(0.996264)" xlink:href="#CMR17-56"/>
       <use transform="translate(45.690477 0)scale(0.996264)" xlink:href="#CMR17-48"/>
      </g>
     </g>
    </g>
    <g id="text_10">
     <!-- Distance (cm) -->
     <defs>
      <path d="M 5.203125 68 
L 5.203125 65.390625 
C 12.09375 65.390625 13.203125 65.390625 13.203125 60.90625 
L 13.203125 7.078125 
C 13.203125 2.59375 12.09375 2.59375 5.203125 2.59375 
L 5.203125 0 
L 37 0 
C 53.09375 0 66 14.734375 66 33.4375 
C 66 52.25 53.296875 68 37 68 
z
M 23.796875 2.59375 
C 19.796875 2.59375 19.59375 3.09375 19.59375 6.46875 
L 19.59375 61.5 
C 19.59375 64.890625 19.796875 65.390625 23.796875 65.390625 
L 35 65.390625 
C 43.296875 65.390625 58.59375 60.515625 58.59375 33.4375 
C 58.59375 19.40625 54.5 13.734375 52.59375 11.046875 
C 50.203125 7.96875 44.5 2.59375 35 2.59375 
z
" id="CMR17-68"/>
      <path d="M 15.5 61.890625 
C 15.5 64.09375 13.703125 66 11.40625 66 
C 9.203125 66 7.296875 64.1875 7.296875 61.890625 
C 7.296875 59.6875 9.09375 57.796875 11.40625 57.796875 
C 13.59375 57.796875 15.5 59.59375 15.5 61.890625 
z
M 3.796875 42.890625 
L 3.796875 40.296875 
C 9.40625 40.296875 10.203125 39.6875 10.203125 34.859375 
L 10.203125 6.921875 
C 10.203125 3.09375 9.796875 2.59375 3.40625 2.59375 
L 3.40625 0 
C 5.796875 0.1875 10.09375 0.1875 12.59375 0.1875 
C 15 0.1875 19.09375 0.1875 21.40625 0 
L 21.40625 2.59375 
C 15.5 2.59375 15.296875 3.203125 15.296875 6.8125 
L 15.296875 44 
z
" id="CMR17-105"/>
      <path d="M 30.90625 42 
C 30.90625 43.796875 30.796875 43.890625 30.203125 43.890625 
C 29.796875 43.890625 29.703125 43.796875 28.5 42.296875 
C 28.203125 41.890625 27.296875 40.890625 27 40.5 
C 23.796875 43.890625 19.296875 44 17.59375 44 
C 6.5 44 2.5 38.1875 2.5 32.390625 
C 2.5 23.390625 12.703125 21.296875 15.59375 20.6875 
C 21.90625 19.390625 24.09375 19 26.203125 17.1875 
C 27.5 16 29.703125 13.796875 29.703125 10.1875 
C 29.703125 6 27.296875 0.59375 18.09375 0.59375 
C 9.40625 0.59375 6.296875 7.1875 4.5 16 
C 4.203125 17.390625 4.203125 17.5 3.40625 17.5 
C 2.59375 17.5 2.5 17.390625 2.5 15.390625 
L 2.5 1 
C 2.5 -0.8125 2.59375 -0.90625 3.203125 -0.90625 
C 3.703125 -0.90625 3.796875 -0.8125 4.296875 0 
C 4.90625 0.890625 6.40625 3.296875 7 4.296875 
C 9 1.59375 12.5 -1 18.09375 -1 
C 28 -1 33.296875 4.390625 33.296875 12.1875 
C 33.296875 17.296875 30.59375 20 29.296875 21.1875 
C 26.296875 24.296875 22.796875 25 18.59375 25.796875 
C 13.09375 27 6.09375 28.390625 6.09375 34.5 
C 6.09375 37.09375 7.5 42.59375 17.59375 42.59375 
C 28.296875 42.59375 28.90625 32.59375 29.09375 29.390625 
C 29.203125 28.890625 29.703125 28.796875 30 28.796875 
C 30.90625 28.796875 30.90625 29.09375 30.90625 30.796875 
z
" id="CMR17-115"/>
      <path d="M 15.09375 40.390625 
L 29.09375 40.390625 
L 29.09375 43 
L 15.09375 43 
L 15.09375 62 
L 13.296875 62 
C 13.09375 51.4375 9.59375 42.1875 1.09375 41.984375 
L 1.09375 40.390625 
L 9.796875 40.390625 
L 9.796875 12.15625 
C 9.796875 10.234375 9.796875 -1 21.40625 -1 
C 27.296875 -1 30.703125 4.8125 30.703125 12.25 
L 30.703125 17.984375 
L 28.90625 17.984375 
L 28.90625 12.34375 
C 28.90625 5.421875 26.203125 0.796875 22 0.796875 
C 19.09375 0.796875 15.09375 2.796875 15.09375 11.953125 
z
" id="CMR17-116"/>
      <path d="M 36 25.875 
C 36 32 36 35.546875 31.796875 39.59375 
C 28.09375 42.984375 23.796875 44 20.40625 44 
C 12.5 44 6.796875 37.625 6.796875 30.890625 
C 6.796875 27.1875 9.796875 27 10.40625 27 
C 11.703125 27 14 27.796875 14 30.59375 
C 14 33.09375 12.09375 34.1875 10.40625 34.1875 
C 10 34.1875 9.5 34.09375 9.203125 34 
C 11.296875 40.53125 16.703125 42.390625 20.203125 42.390625 
C 25.203125 42.390625 30.703125 37.828125 30.703125 29.296875 
L 30.703125 25.5 
C 24.796875 25.296875 17.703125 24.5 12.09375 21.453125 
C 5.796875 17.921875 4 12.84375 4 9 
C 4 1.203125 13 -1 18.296875 -1 
C 23.796875 -1 28.90625 2.109375 31.09375 7.890625 
C 31.296875 3.421875 34.09375 -0.609375 38.5 -0.609375 
C 40.59375 -0.609375 45.90625 0.796875 45.90625 8.796875 
L 45.90625 14.46875 
L 44.09375 14.46875 
L 44.09375 8.703125 
C 44.09375 2.515625 41.40625 1.703125 40.09375 1.703125 
C 36 1.703125 36 6.96875 36 11.4375 
z
M 30.703125 13.859375 
C 30.703125 5.046875 24.5 0.59375 19 0.59375 
C 14 0.59375 10.09375 4.34375 10.09375 9 
C 10.09375 12.046875 11.40625 17.40625 17.203125 20.65625 
C 22 23.390625 27.5 23.796875 30.703125 24 
z
" id="CMR17-97"/>
      <path d="M 41.5 30.53125 
C 41.5 35.65625 40.5 44 28.703125 44 
C 20.796875 44 16.703125 37.875 15.203125 33.84375 
L 15.09375 33.84375 
L 15.09375 44 
L 3.296875 42.890625 
L 3.296875 40.28125 
C 9.203125 40.28125 10.09375 39.6875 10.09375 34.859375 
L 10.09375 6.921875 
C 10.09375 3.09375 9.703125 2.59375 3.296875 2.59375 
L 3.296875 0 
C 5.703125 0.1875 10.09375 0.1875 12.703125 0.1875 
C 15.296875 0.1875 19.796875 0.1875 22.203125 0 
L 22.203125 2.59375 
C 15.796875 2.59375 15.40625 3 15.40625 6.921875 
L 15.40625 26.21875 
C 15.40625 35.453125 21 42.390625 28 42.390625 
C 35.40625 42.390625 36.203125 35.765625 36.203125 30.9375 
L 36.203125 6.921875 
C 36.203125 3.09375 35.796875 2.59375 29.40625 2.59375 
L 29.40625 0 
C 31.796875 0.1875 36.203125 0.1875 38.796875 0.1875 
C 41.40625 0.1875 45.90625 0.1875 48.296875 0 
L 48.296875 2.59375 
C 41.90625 2.59375 41.5 3 41.5 6.921875 
z
" id="CMR17-110"/>
      <path d="M 34.90625 35 
C 33 35 30.203125 35 30.203125 31.484375 
C 30.203125 28.6875 32.5 27.890625 33.796875 27.890625 
C 34.5 27.890625 37.40625 28.1875 37.40625 31.6875 
C 37.40625 38.6875 30.59375 44 22.90625 44 
C 12.296875 44 3.296875 34.390625 3.296875 21.546875 
C 3.296875 8.140625 12.703125 -1 22.90625 -1 
C 35.296875 -1 38.40625 10.5625 38.40625 11.671875 
C 38.40625 12.078125 38.296875 12.375 37.59375 12.375 
C 36.90625 12.375 36.796875 12.28125 36.40625 10.96875 
C 33.796875 2.8125 28.09375 0.796875 23.796875 0.796875 
C 17.40625 0.796875 9.703125 6.734375 9.703125 21.640625 
C 9.703125 36.84375 17.09375 42.1875 23 42.1875 
C 26.90625 42.1875 32.703125 40.34375 34.90625 35 
z
" id="CMR17-99"/>
      <path d="M 38.09375 23.484375 
C 38.5 23.890625 38.5 24.09375 38.5 25.09375 
C 38.5 35.171875 33.09375 44 21.703125 44 
C 11.09375 44 2.703125 33.984375 2.703125 21.78125 
C 2.703125 8.65625 12.203125 -1 22.796875 -1 
C 34 -1 38.40625 9.671875 38.40625 11.796875 
C 38.40625 12.5 37.796875 12.5 37.59375 12.5 
C 36.90625 12.5 36.796875 12.296875 36.40625 11.078125 
C 34.203125 4.21875 28.703125 0.796875 23.5 0.796875 
C 19.203125 0.796875 14.90625 3.21875 12.203125 7.65625 
C 9.09375 12.796875 9.09375 18.75 9.09375 23.484375 
z
M 9.203125 25 
C 9.90625 39.234375 17.59375 42.390625 21.59375 42.390625 
C 28.40625 42.390625 33 36.0625 33.09375 25 
z
" id="CMR17-101"/>
      <path d="M 30.59375 -24.40625 
C 30.59375 -24.3125 30.59375 -24.109375 30.296875 -23.8125 
C 25.703125 -19.109375 13.40625 -6.296875 13.40625 24.9375 
C 13.40625 56.171875 25.5 68.875 30.40625 73.890625 
C 30.40625 73.984375 30.59375 74.1875 30.59375 74.484375 
C 30.59375 74.796875 30.296875 75 29.90625 75 
C 28.796875 75 20.296875 67.578125 15.40625 56.5625 
C 10.40625 45.453125 9 34.65625 9 25.046875 
C 9 17.828125 9.703125 5.625 15.703125 -7.296875 
C 20.5 -17.703125 28.703125 -25 29.90625 -25 
C 30.40625 -25 30.59375 -24.8125 30.59375 -24.40625 
z
" id="CMR17-40"/>
      <path d="M 67.59375 30.53125 
C 67.59375 35.5625 66.703125 44 54.796875 44 
C 48 44 43.296875 39.375 41.5 33.953125 
L 41.40625 33.953125 
C 40.203125 42.1875 34.296875 44 28.703125 44 
C 20.796875 44 16.703125 37.875 15.203125 33.84375 
L 15.09375 33.84375 
L 15.09375 44 
L 3.296875 42.890625 
L 3.296875 40.28125 
C 9.203125 40.28125 10.09375 39.6875 10.09375 34.859375 
L 10.09375 6.921875 
C 10.09375 3.09375 9.703125 2.59375 3.296875 2.59375 
L 3.296875 0 
C 5.703125 0.1875 10.09375 0.1875 12.703125 0.1875 
C 15.296875 0.1875 19.796875 0.1875 22.203125 0 
L 22.203125 2.59375 
C 15.796875 2.59375 15.40625 3 15.40625 6.921875 
L 15.40625 26.21875 
C 15.40625 35.453125 21 42.390625 28 42.390625 
C 35.40625 42.390625 36.203125 35.765625 36.203125 30.9375 
L 36.203125 6.921875 
C 36.203125 3.09375 35.796875 2.59375 29.40625 2.59375 
L 29.40625 0 
C 31.796875 0.1875 36.203125 0.1875 38.796875 0.1875 
C 41.40625 0.1875 45.90625 0.1875 48.296875 0 
L 48.296875 2.59375 
C 41.90625 2.59375 41.5 3 41.5 6.921875 
L 41.5 26.21875 
C 41.5 35.453125 47.09375 42.390625 54.09375 42.390625 
C 61.5 42.390625 62.296875 35.765625 62.296875 30.9375 
L 62.296875 6.921875 
C 62.296875 3.09375 61.90625 2.59375 55.5 2.59375 
L 55.5 0 
C 57.90625 0.1875 62.296875 0.1875 64.90625 0.1875 
C 67.5 0.1875 72 0.1875 74.40625 0 
L 74.40625 2.59375 
C 68 2.59375 67.59375 3 67.59375 6.921875 
z
" id="CMR17-109"/>
      <path d="M 26.296875 24.9375 
C 26.296875 32.140625 25.59375 44.359375 19.59375 57.265625 
C 14.796875 67.6875 6.59375 75 5.40625 75 
C 5.09375 75 4.703125 74.890625 4.703125 74.390625 
C 4.703125 74.1875 4.796875 74.09375 4.90625 73.890625 
C 9.703125 68.875 21.90625 56.171875 21.90625 25.046875 
C 21.90625 -6.1875 9.796875 -18.90625 4.90625 -23.90625 
C 4.796875 -24.109375 4.703125 -24.203125 4.703125 -24.40625 
C 4.703125 -24.90625 5.09375 -25 5.40625 -25 
C 6.5 -25 15 -17.609375 19.90625 -6.59375 
C 24.90625 4.515625 26.296875 15.328125 26.296875 24.9375 
z
" id="CMR17-41"/>
     </defs>
     <g transform="translate(173.341822 283.810845)scale(0.16 -0.16)">
      <use transform="scale(0.996264)" xlink:href="#CMR17-68"/>
      <use transform="translate(70.393556 0)scale(0.996264)" xlink:href="#CMR17-105"/>
      <use transform="translate(95.264614 0)scale(0.996264)" xlink:href="#CMR17-115"/>
      <use transform="translate(131.065952 0)scale(0.996264)" xlink:href="#CMR17-116"/>
      <use transform="translate(166.34672 0)scale(0.996264)" xlink:href="#CMR17-97"/>
      <use transform="translate(212.037197 0)scale(0.996264)" xlink:href="#CMR17-110"/>
      <use transform="translate(262.932567 0)scale(0.996264)" xlink:href="#CMR17-99"/>
      <use transform="translate(303.418227 0)scale(0.996264)" xlink:href="#CMR17-101"/>
      <use transform="translate(373.979854 0)scale(0.996264)" xlink:href="#CMR17-40"/>
      <use transform="translate(409.260622 0)scale(0.996264)" xlink:href="#CMR17-99"/>
      <use transform="translate(449.746282 0)scale(0.996264)" xlink:href="#CMR17-109"/>
      <use transform="translate(526.665872 0)scale(0.996264)" xlink:href="#CMR17-41"/>
     </g>
    </g>
   </g>
   <g id="matplotlib.axis_2">
    <g id="ytick_1">
     <g id="line2d_10">
      <defs>
       <path d="M 0 0 
L -3.5 0 
" id="md18eb731f6" style="stroke:#000000;stroke-width:0.8;"/>
      </defs>
      <g>
       <use style="stroke:#000000;stroke-width:0.8;" x="54" xlink:href="#md18eb731f6" y="236.20092"/>
      </g>
     </g>
     <g id="text_11">
      <!-- $0$ -->
      <g transform="translate(42.018665 239.66017)scale(0.1 -0.1)">
       <use transform="scale(0.996264)" xlink:href="#CMR17-48"/>
      </g>
     </g>
    </g>
    <g id="ytick_2">
     <g id="line2d_11">
      <g>
       <use style="stroke:#000000;stroke-width:0.8;" x="54" xlink:href="#md18eb731f6" y="203.165379"/>
      </g>
     </g>
     <g id="text_12">
      <!-- $10$ -->
      <g transform="translate(37.037329 206.624628)scale(0.1 -0.1)">
       <use transform="scale(0.996264)" xlink:href="#CMR17-49"/>
       <use transform="translate(45.690477 0)scale(0.996264)" xlink:href="#CMR17-48"/>
      </g>
     </g>
    </g>
    <g id="ytick_3">
     <g id="line2d_12">
      <g>
       <use style="stroke:#000000;stroke-width:0.8;" x="54" xlink:href="#md18eb731f6" y="170.129837"/>
      </g>
     </g>
     <g id="text_13">
      <!-- $20$ -->
      <g transform="translate(37.037329 173.589087)scale(0.1 -0.1)">
       <use transform="scale(0.996264)" xlink:href="#CMR17-50"/>
       <use transform="translate(45.690477 0)scale(0.996264)" xlink:href="#CMR17-48"/>
      </g>
     </g>
    </g>
    <g id="ytick_4">
     <g id="line2d_13">
      <g>
       <use style="stroke:#000000;stroke-width:0.8;" x="54" xlink:href="#md18eb731f6" y="137.094296"/>
      </g>
     </g>
     <g id="text_14">
      <!-- $30$ -->
      <g transform="translate(37.037329 140.553545)scale(0.1 -0.1)">
       <use transform="scale(0.996264)" xlink:href="#CMR17-51"/>
       <use transform="translate(45.690477 0)scale(0.996264)" xlink:href="#CMR17-48"/>
      </g>
     </g>
    </g>
    <g id="ytick_5">
     <g id="line2d_14">
      <g>
       <use style="stroke:#000000;stroke-width:0.8;" x="54" xlink:href="#md18eb731f6" y="104.058754"/>
      </g>
     </g>
     <g id="text_15">
      <!-- $40$ -->
      <g transform="translate(37.037329 107.518004)scale(0.1 -0.1)">
       <use transform="scale(0.996264)" xlink:href="#CMR17-52"/>
       <use transform="translate(45.690477 0)scale(0.996264)" xlink:href="#CMR17-48"/>
      </g>
     </g>
    </g>
    <g id="ytick_6">
     <g id="line2d_15">
      <g>
       <use style="stroke:#000000;stroke-width:0.8;" x="54" xlink:href="#md18eb731f6" y="71.023213"/>
      </g>
     </g>
     <g id="text_16">
      <!-- $50$ -->
      <g transform="translate(37.037329 74.482462)scale(0.1 -0.1)">
       <use transform="scale(0.996264)" xlink:href="#CMR17-53"/>
       <use transform="translate(45.690477 0)scale(0.996264)" xlink:href="#CMR17-48"/>
      </g>
     </g>
    </g>
    <g id="ytick_7">
     <g id="line2d_16">
      <g>
       <use style="stroke:#000000;stroke-width:0.8;" x="54" xlink:href="#md18eb731f6" y="37.987671"/>
      </g>
     </g>
     <g id="text_17">
      <!-- $60$ -->
      <g transform="translate(37.037329 41.446921)scale(0.1 -0.1)">
       <use transform="scale(0.996264)" xlink:href="#CMR17-54"/>
       <use transform="translate(45.690477 0)scale(0.996264)" xlink:href="#CMR17-48"/>
      </g>
     </g>
    </g>
    <g id="text_18">
     <!-- Velocity (cm/s) -->
     <defs>
      <path d="M 59 58.78125 
C 59.90625 60.984375 61.5 65.296875 68.203125 65.390625 
L 68.203125 68 
C 65.90625 67.796875 63.296875 67.796875 60.796875 67.796875 
C 58.40625 67.796875 54.296875 67.796875 52 68 
L 52 65.390625 
C 57 65.09375 57.203125 61.59375 57.203125 60.984375 
C 57.203125 59.890625 56.90625 59.1875 56.59375 58.390625 
L 36.90625 7 
L 16.296875 60.984375 
C 16 61.6875 15.796875 62.1875 15.796875 62.6875 
C 15.796875 65.390625 19.796875 65.390625 21.90625 65.390625 
L 21.90625 68 
C 18.703125 67.796875 14 67.796875 10.703125 67.796875 
C 8.09375 67.796875 3.40625 67.796875 1 68 
L 1 65.390625 
C 6.796875 65.390625 7.90625 65 9.09375 61.796875 
L 32.90625 -0.40625 
C 33.40625 -1.8125 33.5 -2 34.59375 -2 
C 35.703125 -2 35.796875 -1.8125 36.296875 -0.40625 
z
" id="CMR17-86"/>
      <path d="M 15.296875 69 
L 3.40625 67.890625 
L 3.40625 65.296875 
C 9.296875 65.296875 10.203125 64.703125 10.203125 59.921875 
L 10.203125 6.859375 
C 10.203125 3.09375 9.796875 2.59375 3.40625 2.59375 
L 3.40625 0 
C 5.796875 0.1875 10.203125 0.1875 12.703125 0.1875 
C 15.296875 0.1875 19.703125 0.1875 22.09375 0 
L 22.09375 2.59375 
C 15.703125 2.59375 15.296875 2.984375 15.296875 6.859375 
z
" id="CMR17-108"/>
      <path d="M 43.09375 21.1875 
C 43.09375 34 33.796875 44 22.90625 44 
C 12 44 2.703125 34 2.703125 21.1875 
C 2.703125 8.59375 12 -1 22.90625 -1 
C 33.796875 -1 43.09375 8.59375 43.09375 21.1875 
z
M 22.90625 0.796875 
C 18.203125 0.796875 14.203125 3.59375 11.90625 7.5 
C 9.40625 12 9.09375 17.59375 9.09375 22 
C 9.09375 26.1875 9.296875 31.390625 11.90625 35.890625 
C 13.90625 39.1875 17.796875 42.390625 22.90625 42.390625 
C 27.40625 42.390625 31.203125 39.890625 33.59375 36.390625 
C 36.703125 31.6875 36.703125 25.09375 36.703125 22 
C 36.703125 18.09375 36.5 12.09375 33.796875 7.296875 
C 31 2.6875 26.703125 0.796875 22.90625 0.796875 
z
" id="CMR17-111"/>
      <path d="M 39 34.109375 
C 41.5 40.296875 46 40.390625 47.40625 40.390625 
L 47.40625 43 
C 45.5 42.890625 43 42.796875 41.09375 42.796875 
C 39 42.796875 35.703125 42.796875 33.703125 43 
L 33.703125 40.390625 
C 37.5 40.09375 37.59375 37.25 37.59375 36.4375 
C 37.59375 35.4375 37.40625 34.921875 36.90625 33.71875 
L 26 6.390625 
L 14.09375 35.9375 
C 13.59375 37.15625 13.59375 37.859375 13.59375 37.96875 
C 13.59375 40.1875 15.90625 40.390625 18.296875 40.390625 
L 18.296875 43 
C 15.90625 42.796875 11.59375 42.796875 9.09375 42.796875 
C 6.40625 42.796875 3.203125 42.796875 1 43 
L 1 40.390625 
C 6.40625 40.390625 7 39.890625 8.296875 36.640625 
L 23.203125 -0.484375 
C 18.703125 -12.421875 16.09375 -19.40625 9.796875 -19.40625 
C 8.703125 -19.40625 6.203125 -19.109375 4.40625 -17.28125 
C 6.703125 -17.078125 7.703125 -15.65625 7.703125 -13.9375 
C 7.703125 -12.21875 6.5 -10.703125 4.5 -10.703125 
C 2.296875 -10.703125 1.203125 -12.21875 1.203125 -14.046875 
C 1.203125 -18.09375 5.296875 -21 9.796875 -21 
C 15.59375 -21 19.203125 -15.359375 21.203125 -10.296875 
z
" id="CMR17-121"/>
      <path d="M 40.703125 71.484375 
C 41.203125 72.78125 41.203125 72.984375 41.203125 73.1875 
C 41.203125 74.390625 40.296875 75 39.5 75 
C 38.296875 75 37.90625 74.1875 37.5 72.984375 
L 5.09375 -21.5 
C 4.59375 -22.8125 4.59375 -23 4.59375 -23.203125 
C 4.59375 -24.40625 5.5 -25 6.296875 -25 
C 7.5 -25 7.90625 -24.203125 8.296875 -23 
z
" id="CMR17-47"/>
     </defs>
     <g transform="translate(29.052273 196.431063)rotate(-90)scale(0.16 -0.16)">
      <use transform="scale(0.996264)" xlink:href="#CMR17-86"/>
      <use transform="translate(61.265174 0)scale(0.996264)" xlink:href="#CMR17-101"/>
      <use transform="translate(101.750835 0)scale(0.996264)" xlink:href="#CMR17-108"/>
      <use transform="translate(126.621893 0)scale(0.996264)" xlink:href="#CMR17-111"/>
      <use transform="translate(174.914809 0)scale(0.996264)" xlink:href="#CMR17-99"/>
      <use transform="translate(215.40047 0)scale(0.996264)" xlink:href="#CMR17-105"/>
      <use transform="translate(240.271528 0)scale(0.996264)" xlink:href="#CMR17-116"/>
      <use transform="translate(272.949842 0)scale(0.996264)" xlink:href="#CMR17-121"/>
      <use transform="translate(351.318724 0)scale(0.996264)" xlink:href="#CMR17-40"/>
      <use transform="translate(386.599492 0)scale(0.996264)" xlink:href="#CMR17-99"/>
      <use transform="translate(427.085152 0)scale(0.996264)" xlink:href="#CMR17-109"/>
      <use transform="translate(504.004742 0)scale(0.996264)" xlink:href="#CMR17-47"/>
      <use transform="translate(549.695219 0)scale(0.996264)" xlink:href="#CMR17-115"/>
      <use transform="translate(585.496557 0)scale(0.996264)" xlink:href="#CMR17-41"/>
     </g>
    </g>
   </g>
   <g id="line2d_17">
    <path clip-path="url(#p11b2f8f3af)" d="M 64.907693 173.393079 
L 67.712528 151.929147 
L 70.205715 163.014049 
L 72.698902 149.083995 
L 79.243517 153.220041 
L 80.490111 142.573413 
L 85.164836 134.503808 
L 87.034726 145.633964 
L 92.0211 130.185899 
L 96.384177 130.59207 
L 100.435606 118.499812 
L 105.110332 117.028817 
L 109.785057 111.815774 
L 114.459782 103.28688 
L 119.757805 100.401255 
L 125.367475 93.772573 
L 131.288794 83.737038 
L 136.898465 79.769972 
L 143.131432 79.773602 
L 149.987696 73.414321 
L 156.220663 62.973613 
L 162.141982 59.640165 
L 169.309894 60.906369 
L 177.101103 52.763896 
L 183.957367 44.443636 
L 190.813631 46.279984 
L 198.916489 50.17255 
L 206.39605 53.152867 
L 213.563962 54.432802 
L 220.420226 62.432996 
L 227.27649 65.039391 
L 233.197809 67.316304 
L 239.430776 69.317171 
L 246.28704 72.843297 
L 252.831656 75.789533 
L 259.376271 81.849387 
L 264.674293 83.807187 
L 270.595612 85.275011 
L 275.581986 87.364055 
L 281.814953 88.607232 
L 288.047921 93.817226 
L 293.96924 94.549698 
L 299.267262 108.135932 
L 303.941987 112.121365 
L 308.616713 117.215992 
L 312.356493 117.954796 
L 317.031219 120.902856 
L 321.705944 124.347204 
L 326.380669 121.324309 
L 330.743747 127.830549 
L 334.483527 131.926056 
L 338.223307 137.486565 
L 342.274736 140.746422 
L 346.014516 143.228279 
L 349.754297 146.896421 
L 352.87078 151.976252 
L 355.987264 154.972327 
L 359.103748 158.540096 
L 361.908583 162.563133 
L 365.025066 166.676594 
L 367.518253 171.94428 
L 370.01144 174.635348 
L 372.192979 179.782105 
L 374.062869 182.634955 
L 376.244408 188.122115 
L 378.114298 197.335459 
L 379.984188 209.088217 
L 381.230781 225.590541 
L 381.230781 234.15042 
L 380.295836 238.738673 
L 378.737594 241.562337 
L 378.425946 242.116364 
L 379.360891 239.821033 
L 379.984188 233.493448 
L 379.67254 230.85646 
L 379.360891 236.20092 
L 379.360891 240.206598 
L 379.67254 237.520975 
L 379.360891 236.20092 
L 379.049243 237.535921 
L 379.360891 238.874931 
L 379.360891 236.20092 
L 379.049243 236.20092 
L 379.049243 237.537257 
L 379.360891 237.494012 
L 379.049243 236.20092 
L 379.049243 234.856536 
L 379.049243 237.531915 
L 379.049243 236.20092 
L 379.360891 236.184868 
L 379.049243 236.20092 
L 379.049243 236.20092 
L 379.049243 237.530592 
L 379.049243 236.20092 
L 379.049243 236.20092 
L 379.049243 236.20092 
L 379.049243 236.20092 
L 379.049243 236.20092 
L 379.049243 236.20092 
L 379.049243 236.20092 
" style="fill:none;stroke:#000000;stroke-linecap:square;stroke-width:1.5;"/>
   </g>
   <g id="patch_4">
    <path d="M 54 252 
L 54 34.56 
" style="fill:none;stroke:#000000;stroke-linecap:square;stroke-linejoin:miter;stroke-width:0.8;"/>
   </g>
   <g id="patch_5">
    <path d="M 388.8 252 
L 388.8 34.56 
" style="fill:none;stroke:#000000;stroke-linecap:square;stroke-linejoin:miter;stroke-width:0.8;"/>
   </g>
   <g id="patch_6">
    <path d="M 54 252 
L 388.8 252 
" style="fill:none;stroke:#000000;stroke-linecap:square;stroke-linejoin:miter;stroke-width:0.8;"/>
   </g>
   <g id="patch_7">
    <path d="M 54 34.56 
L 388.8 34.56 
" style="fill:none;stroke:#000000;stroke-linecap:square;stroke-linejoin:miter;stroke-width:0.8;"/>
   </g>
   <g id="text_19">
    <!-- Note: Camera system wasn't completely accurate;  -->
    <defs>
     <path d="M 20.5 66.796875 
C 19.796875 67.890625 19.703125 68 17.796875 68 
L 5.09375 68 
L 5.09375 65.390625 
L 7 65.390625 
C 11 65.390625 12.796875 64.890625 13.09375 64.796875 
L 13.09375 9.75 
C 13.09375 7.265625 13.09375 2.59375 5.09375 2.59375 
L 5.09375 0 
C 7.40625 0.1875 11.59375 0.1875 14.09375 0.1875 
C 16.59375 0.1875 20.796875 0.1875 23.09375 0 
L 23.09375 2.59375 
C 15.09375 2.59375 15.09375 7.265625 15.09375 9.75 
L 15.09375 63.390625 
C 15.796875 62.796875 15.796875 62.609375 16.5 61.609375 
L 53.59375 1.1875 
C 54.296875 0 54.59375 0 55.09375 0 
C 56.09375 0 56.09375 0.296875 56.09375 2.1875 
L 56.09375 58.21875 
C 56.09375 60.703125 56.09375 65.390625 64.09375 65.390625 
L 64.09375 68 
C 61.796875 67.796875 57.59375 67.796875 55.09375 67.796875 
C 52.59375 67.796875 48.40625 67.796875 46.09375 68 
L 46.09375 65.390625 
C 54.09375 65.390625 54.09375 60.703125 54.09375 58.21875 
L 54.09375 12.140625 
z
" id="CMR17-78"/>
     <path d="M 16.59375 38.890625 
C 16.59375 41.390625 14.59375 43 12.5 43 
C 10.5 43 8.40625 41.390625 8.40625 38.890625 
C 8.40625 36.390625 10.40625 34.796875 12.5 34.796875 
C 14.5 34.796875 16.59375 36.390625 16.59375 38.890625 
z
M 16.59375 4.09375 
C 16.59375 6.59375 14.59375 8.1875 12.5 8.1875 
C 10.5 8.1875 8.40625 6.59375 8.40625 4.09375 
C 8.40625 1.59375 10.40625 0 12.5 0 
C 14.5 0 16.59375 1.59375 16.59375 4.09375 
z
" id="CMR17-58"/>
     <path d="M 62.09375 67.984375 
C 62.09375 69.796875 62 69.890625 61.40625 69.890625 
C 61 69.890625 60.90625 69.796875 60.203125 68.59375 
L 55.796875 60.140625 
C 50.90625 66.390625 44.90625 70 37.203125 70 
C 20.09375 70 4.59375 54.796875 4.59375 34.046875 
C 4.59375 13.078125 20.09375 -2 37.296875 -2 
C 52.59375 -2 62.09375 11.578125 62.09375 23.15625 
C 62.09375 24.171875 62.09375 24.578125 61.203125 24.578125 
C 60.40625 24.578125 60.40625 24.265625 60.296875 23.359375 
C 59.5 9.25 49.5 0.59375 38.703125 0.59375 
C 28.5 0.59375 12.203125 7.84375 12.203125 34.046875 
C 12.203125 60.34375 28.796875 67.390625 38.5 67.390625 
C 49.796875 67.390625 58 57.515625 59.90625 43.515625 
C 60.09375 42.296875 60.09375 42.109375 61 42.109375 
C 62.09375 42.109375 62.09375 42.296875 62.09375 44.125 
z
" id="CMR17-67"/>
     <path d="M 15 23.703125 
C 15 33.34375 19.09375 42.390625 26.59375 42.390625 
C 27.296875 42.390625 28 42.296875 28.703125 41.984375 
C 28.703125 41.984375 26.5 41.28125 26.5 38.671875 
C 26.5 36.265625 28.40625 35.265625 29.90625 35.265625 
C 31.09375 35.265625 33.296875 35.96875 33.296875 38.78125 
C 33.296875 41.984375 30.09375 44 26.703125 44 
C 19.09375 44 15.796875 36.5625 14.796875 33.046875 
L 14.703125 33.046875 
L 14.703125 44 
L 3.09375 42.890625 
L 3.09375 40.28125 
C 9 40.28125 9.90625 39.6875 9.90625 34.859375 
L 9.90625 6.921875 
C 9.90625 3.09375 9.5 2.59375 3.09375 2.59375 
L 3.09375 0 
C 5.5 0.1875 10.09375 0.1875 12.703125 0.1875 
C 15.59375 0.1875 20.703125 0.1875 23.40625 0 
L 23.40625 2.59375 
C 16.203125 2.59375 15 2.59375 15 7.109375 
z
" id="CMR17-114"/>
     <path d="M 58.203125 34.15625 
C 60.203125 40.09375 64.203125 40.296875 65.703125 40.390625 
L 65.703125 43 
C 63.703125 42.890625 61.703125 42.796875 59.703125 42.796875 
C 57.796875 42.796875 53.5 42.796875 51.796875 43 
L 51.796875 40.390625 
C 54.90625 40.1875 56.59375 38.375 56.59375 35.875 
C 56.59375 35.171875 56.40625 34.265625 56.203125 33.5625 
L 46.796875 6.21875 
L 36.59375 35.875 
C 36.40625 36.578125 36.09375 37.375 36.09375 37.78125 
C 36.09375 40.390625 39.5 40.390625 41.09375 40.390625 
L 41.09375 43 
C 38.796875 42.796875 34.59375 42.796875 32.203125 42.796875 
C 29.703125 42.796875 27.09375 42.796875 24.796875 43 
L 24.796875 40.390625 
C 30.296875 40.390625 30.296875 40.1875 32.40625 33.859375 
L 23.203125 6.921875 
L 13.296875 35.96875 
C 12.796875 37.28125 12.796875 37.484375 12.796875 37.78125 
C 12.796875 40.390625 16.203125 40.390625 17.796875 40.390625 
L 17.796875 43 
C 15.40625 42.796875 11.203125 42.796875 8.703125 42.796875 
C 6.5 42.796875 3.09375 42.796875 1 43 
L 1 40.390625 
C 5.40625 40.390625 6.5 40.09375 7.59375 36.765625 
L 19.90625 0.59375 
C 20.296875 -0.703125 20.59375 -1 21.40625 -1 
C 22.09375 -1 22.5 -0.8125 23 0.6875 
L 33.296875 31.046875 
L 43.703125 0.6875 
C 44.203125 -0.8125 44.59375 -1 45.296875 -1 
C 46.09375 -1 46.40625 -0.703125 46.796875 0.59375 
z
" id="CMR17-119"/>
     <path d="M 16 62.6875 
C 16.203125 61.59375 16.296875 61.1875 16.296875 59.53125 
C 16.296875 53.40625 13.796875 47.78125 9.90625 43.796875 
C 9.5 43.390625 9.296875 43.09375 9.296875 42.6875 
C 9.296875 42.296875 9.703125 41.890625 10.09375 41.890625 
C 10.796875 41.890625 17.90625 48.75 17.90625 59.4375 
C 17.90625 61.59375 17.703125 69 12.5 69 
C 10.296875 69 8.40625 67.484375 8.40625 64.890625 
C 8.40625 62.296875 10.296875 60.796875 12.5 60.796875 
C 13.40625 60.796875 15.09375 61.09375 16 62.6875 
z
" id="CMR17-39"/>
     <path d="M 22 -17.40625 
C 15.59375 -17.40625 15.203125 -17 15.203125 -13.03125 
L 15.203125 5.9375 
C 18.09375 1.703125 22.296875 -1 27.59375 -1 
C 37.59375 -1 47.703125 7.859375 47.703125 21.59375 
C 47.703125 34.3125 39 44 28.703125 44 
C 22.703125 44 17.796875 40.671875 15 36.640625 
L 15 44 
L 3.09375 42.890625 
L 3.09375 40.265625 
C 9 40.265625 9.90625 39.671875 9.90625 34.8125 
L 9.90625 -13.03125 
C 9.90625 -16.890625 9.5 -17.40625 3.09375 -17.40625 
L 3.09375 -20 
C 5.5 -19.8125 9.90625 -19.8125 12.5 -19.8125 
C 15.09375 -19.8125 19.59375 -19.8125 22 -20 
z
M 15.203125 31.484375 
C 15.203125 32.90625 15.203125 35.015625 19.09375 38.765625 
C 19.59375 39.15625 23 42.1875 28 42.1875 
C 35.296875 42.1875 41.296875 33 41.296875 21.5 
C 41.296875 9.984375 34.90625 0.59375 27 0.59375 
C 23.40625 0.59375 19.5 2.3125 16.5 7.046875 
C 15.203125 9.28125 15.203125 9.875 15.203125 11.5 
z
" id="CMR17-112"/>
     <path d="M 29.40625 42.890625 
L 29.40625 40.296875 
C 35.296875 40.296875 36.203125 39.6875 36.203125 34.828125 
L 36.203125 16.453125 
C 36.203125 7.96875 31.703125 0.59375 24.296875 0.59375 
C 16.09375 0.59375 15.40625 5.546875 15.40625 10.796875 
L 15.40625 44 
L 3.296875 42.890625 
L 3.296875 40.296875 
C 7.296875 40.296875 10 40.296875 10.09375 36.25 
L 10.09375 16.859375 
C 10.09375 10.09375 10.09375 5.75 12.703125 2.921875 
C 14 1.609375 16.5 -1 23.703125 -1 
C 32.203125 -1 35.5 6.25 36.296875 8.375 
L 36.40625 8.375 
L 36.40625 -1 
L 48.296875 -0.203125 
L 48.296875 2.40625 
C 42.40625 2.40625 41.5 3.015625 41.5 7.859375 
L 41.5 44 
z
" id="CMR17-117"/>
     <path d="M 16.59375 38.890625 
C 16.59375 41.390625 14.59375 43 12.5 43 
C 10.5 43 8.40625 41.390625 8.40625 38.890625 
C 8.40625 36.390625 10.40625 34.796875 12.5 34.796875 
C 14.5 34.796875 16.59375 36.390625 16.59375 38.890625 
z
M 15.296875 -1.078125 
C 15.296875 -7.328125 13.296875 -12.421875 9.90625 -17.109375 
C 9.296875 -17.8125 9.296875 -18 9.296875 -18.109375 
C 9.296875 -18.609375 9.703125 -19 10.09375 -19 
C 10.59375 -19 16.90625 -12.21875 16.90625 -0.890625 
C 16.90625 3 16.59375 8.1875 12.5 8.1875 
C 10.296875 8.1875 8.40625 6.6875 8.40625 4.09375 
C 8.40625 1.5 10.296875 0 12.5 0 
C 13.5 0 14.59375 0.296875 15.296875 1 
z
" id="CMR17-59"/>
    </defs>
    <g transform="translate(100.17931 166.168855)scale(0.1 -0.1)">
     <use transform="scale(0.996264)" xlink:href="#CMR17-78"/>
     <use transform="translate(69.07243 0)scale(0.996264)" xlink:href="#CMR17-111"/>
     <use transform="translate(114.762907 0)scale(0.996264)" xlink:href="#CMR17-116"/>
     <use transform="translate(150.043675 0)scale(0.996264)" xlink:href="#CMR17-101"/>
     <use transform="translate(190.529335 0)scale(0.996264)" xlink:href="#CMR17-58"/>
     <use transform="translate(255.886054 0)scale(0.996264)" xlink:href="#CMR17-67"/>
     <use transform="translate(322.395935 0)scale(0.996264)" xlink:href="#CMR17-97"/>
     <use transform="translate(368.086412 0)scale(0.996264)" xlink:href="#CMR17-109"/>
     <use transform="translate(445.006002 0)scale(0.996264)" xlink:href="#CMR17-101"/>
     <use transform="translate(485.491662 0)scale(0.996264)" xlink:href="#CMR17-114"/>
     <use transform="translate(520.77243 0)scale(0.996264)" xlink:href="#CMR17-97"/>
     <use transform="translate(596.538873 0)scale(0.996264)" xlink:href="#CMR17-115"/>
     <use transform="translate(632.340211 0)scale(0.996264)" xlink:href="#CMR17-121"/>
     <use transform="translate(680.633127 0)scale(0.996264)" xlink:href="#CMR17-115"/>
     <use transform="translate(716.434465 0)scale(0.996264)" xlink:href="#CMR17-116"/>
     <use transform="translate(751.715232 0)scale(0.996264)" xlink:href="#CMR17-101"/>
     <use transform="translate(792.200893 0)scale(0.996264)" xlink:href="#CMR17-109"/>
     <use transform="translate(899.196449 0)scale(0.996264)" xlink:href="#CMR17-119"/>
     <use transform="translate(963.103876 0)scale(0.996264)" xlink:href="#CMR17-97"/>
     <use transform="translate(1008.794353 0)scale(0.996264)" xlink:href="#CMR17-115"/>
     <use transform="translate(1044.59569 0)scale(0.996264)" xlink:href="#CMR17-110"/>
     <use transform="translate(1095.49106 0)scale(0.996264)" xlink:href="#CMR17-39"/>
     <use transform="translate(1120.362119 0)scale(0.996264)" xlink:href="#CMR17-116"/>
     <use transform="translate(1185.718853 0)scale(0.996264)" xlink:href="#CMR17-99"/>
     <use transform="translate(1226.204513 0)scale(0.996264)" xlink:href="#CMR17-111"/>
     <use transform="translate(1271.89499 0)scale(0.996264)" xlink:href="#CMR17-109"/>
     <use transform="translate(1348.81458 0)scale(0.996264)" xlink:href="#CMR17-112"/>
     <use transform="translate(1399.70995 0)scale(0.996264)" xlink:href="#CMR17-108"/>
     <use transform="translate(1424.581008 0)scale(0.996264)" xlink:href="#CMR17-101"/>
     <use transform="translate(1465.066669 0)scale(0.996264)" xlink:href="#CMR17-116"/>
     <use transform="translate(1500.347437 0)scale(0.996264)" xlink:href="#CMR17-101"/>
     <use transform="translate(1540.833097 0)scale(0.996264)" xlink:href="#CMR17-108"/>
     <use transform="translate(1565.704156 0)scale(0.996264)" xlink:href="#CMR17-121"/>
     <use transform="translate(1644.073038 0)scale(0.996264)" xlink:href="#CMR17-97"/>
     <use transform="translate(1689.763515 0)scale(0.996264)" xlink:href="#CMR17-99"/>
     <use transform="translate(1730.249175 0)scale(0.996264)" xlink:href="#CMR17-99"/>
     <use transform="translate(1770.734836 0)scale(0.996264)" xlink:href="#CMR17-117"/>
     <use transform="translate(1821.630206 0)scale(0.996264)" xlink:href="#CMR17-114"/>
     <use transform="translate(1856.910973 0)scale(0.996264)" xlink:href="#CMR17-97"/>
     <use transform="translate(1902.601451 0)scale(0.996264)" xlink:href="#CMR17-116"/>
     <use transform="translate(1937.882218 0)scale(0.996264)" xlink:href="#CMR17-101"/>
     <use transform="translate(1978.367879 0)scale(0.996264)" xlink:href="#CMR17-59"/>
    </g>
    <!-- therefore, position in the x direction surpassed 80 cm,  -->
    <defs>
     <path d="M 41.5 30.53125 
C 41.5 35.65625 40.5 44 28.703125 44 
C 20.5 44 16.5 37.375 15.296875 34.046875 
L 15.203125 34.046875 
L 15.203125 69 
L 3.296875 67.890625 
L 3.296875 65.296875 
C 9.203125 65.296875 10.09375 64.703125 10.09375 60.046875 
L 10.09375 6.921875 
C 10.09375 3.09375 9.703125 2.59375 3.296875 2.59375 
L 3.296875 0 
C 5.703125 0.1875 10.09375 0.1875 12.703125 0.1875 
C 15.296875 0.1875 19.796875 0.1875 22.203125 0 
L 22.203125 2.59375 
C 15.796875 2.59375 15.40625 3 15.40625 6.921875 
L 15.40625 26.21875 
C 15.40625 35.453125 21 42.390625 28 42.390625 
C 35.40625 42.390625 36.203125 35.765625 36.203125 30.9375 
L 36.203125 6.921875 
C 36.203125 3.09375 35.796875 2.59375 29.40625 2.59375 
L 29.40625 0 
C 31.796875 0.1875 36.203125 0.1875 38.796875 0.1875 
C 41.40625 0.1875 45.90625 0.1875 48.296875 0 
L 48.296875 2.59375 
C 41.90625 2.59375 41.5 3 41.5 6.921875 
z
" id="CMR17-104"/>
     <path d="M 15.296875 40.390625 
L 26.703125 40.390625 
L 26.703125 43 
L 15.09375 43 
L 15.09375 55.296875 
C 15.09375 63.6875 19.296875 68.390625 23.59375 68.390625 
C 24.90625 68.390625 26.40625 68.171875 27.40625 67.796875 
C 26.59375 67.59375 24.5 66.890625 24.5 64.390625 
C 24.5 61.796875 26.5 61 27.90625 61 
C 29.296875 61 31.296875 61.796875 31.296875 64.390625 
C 31.296875 68.015625 27.703125 70 23.703125 70 
C 18 70 10.203125 65.796875 10.203125 55.09375 
L 10.203125 43 
L 2.203125 43 
L 2.203125 40.390625 
L 10.203125 40.390625 
L 10.203125 6.890625 
C 10.203125 3.09375 9.796875 2.59375 3.40625 2.59375 
L 3.40625 0 
C 5.796875 0.1875 10.40625 0.1875 13 0.1875 
C 15.90625 0.1875 21 0.1875 23.703125 0 
L 23.703125 2.59375 
C 16.5 2.59375 15.296875 2.59375 15.296875 7.09375 
z
" id="CMR17-102"/>
     <path d="M 15.796875 1.59375 
C 16 0.6875 16 0.390625 16 -1.1875 
C 16 -7.046875 14 -12.421875 9.796875 -17.3125 
C 9.296875 -17.8125 9.296875 -18 9.296875 -18.203125 
C 9.296875 -18.609375 9.703125 -19 10.09375 -19 
C 10.703125 -19 17.59375 -12.125 17.59375 -1.28125 
C 17.59375 2 17.203125 8.1875 12.5 8.1875 
C 10.296875 8.1875 8.40625 6.6875 8.40625 4.09375 
C 8.40625 1.5 10.296875 0 12.5 0 
C 13.703125 0 15 0.5 15.796875 1.59375 
z
" id="CMR17-44"/>
     <path d="M 26 23.296875 
C 29 27.1875 32.40625 31.59375 35.203125 34.890625 
C 38.5 38.6875 42.296875 40.296875 46.703125 40.390625 
L 46.703125 43 
C 45 42.890625 41.5 42.796875 39.703125 42.796875 
C 37 42.796875 33.90625 42.796875 31.59375 43 
L 31.59375 40.390625 
C 33 40.1875 33.796875 39.1875 33.796875 37.796875 
C 33.796875 36 32.796875 34.890625 32.296875 34.1875 
L 24.90625 24.796875 
L 16.09375 36.296875 
C 15.203125 37.390625 15.203125 37.59375 15.203125 38.09375 
C 15.203125 39.296875 16.203125 40.296875 17.90625 40.390625 
L 17.90625 43 
C 15.5 42.796875 11.203125 42.796875 8.703125 42.796875 
C 6 42.796875 2.796875 42.796875 0.59375 43 
L 0.59375 40.390625 
C 6 40.390625 7.203125 40 9.59375 37 
L 21.09375 22.09375 
C 21.296875 21.890625 21.796875 21.296875 21.796875 21 
C 21.796875 20.59375 13.09375 9.890625 12 8.5 
C 7.5 3.09375 2.796875 2.6875 0.09375 2.59375 
L 0.09375 0 
C 1.796875 0.09375 5.296875 0.1875 7.09375 0.1875 
C 9.09375 0.1875 13.5 0.1875 15.296875 0 
L 15.296875 2.59375 
C 14.703125 2.6875 13.09375 2.890625 13.09375 5.1875 
C 13.09375 7 13.90625 8.09375 14.796875 9.296875 
L 23.09375 19.5 
L 31.796875 8.1875 
C 32.59375 7.09375 33.796875 5.59375 33.796875 4.890625 
C 33.796875 3.5 32.59375 2.6875 31 2.59375 
L 31 0 
C 33.40625 0.1875 37.703125 0.1875 40.203125 0.1875 
C 42.90625 0.1875 46.09375 0.1875 48.296875 0 
L 48.296875 2.59375 
C 43.296875 2.59375 41.796875 2.796875 39.40625 5.890625 
z
" id="CMR17-120"/>
     <path d="M 29.203125 67.890625 
L 29.203125 65.296875 
C 35.09375 65.296875 36 64.703125 36 60.046875 
L 36 37.046875 
C 35.59375 37.546875 31.5 44 23.40625 44 
C 13.203125 44 3.296875 34.8125 3.296875 21.5 
C 3.296875 8.265625 12.59375 -1 22.40625 -1 
C 30.90625 -1 35.296875 5.640625 35.796875 6.34375 
L 35.796875 -1 
L 47.90625 -0.203125 
L 47.90625 2.40625 
C 42 2.40625 41.09375 3.015625 41.09375 7.859375 
L 41.09375 69 
z
M 35.796875 11.90625 
C 35.796875 8.875 34 6.140625 31.703125 4.125 
C 28.296875 1.09375 24.90625 0.59375 23 0.59375 
C 20.09375 0.59375 9.703125 2.109375 9.703125 21.390625 
C 9.703125 41.1875 21.296875 42.390625 23.90625 42.390625 
C 28.5 42.390625 32.203125 39.765625 34.5 36.140625 
C 35.796875 34.015625 35.796875 33.703125 35.796875 31.890625 
z
" id="CMR17-100"/>
    </defs>
    <g transform="translate(100.17931 176.408232)scale(0.1 -0.1)">
     <use transform="scale(0.996264)" xlink:href="#CMR17-116"/>
     <use transform="translate(35.280768 0)scale(0.996264)" xlink:href="#CMR17-104"/>
     <use transform="translate(86.176138 0)scale(0.996264)" xlink:href="#CMR17-101"/>
     <use transform="translate(126.661798 0)scale(0.996264)" xlink:href="#CMR17-114"/>
     <use transform="translate(161.942566 0)scale(0.996264)" xlink:href="#CMR17-101"/>
     <use transform="translate(202.428226 0)scale(0.996264)" xlink:href="#CMR17-102"/>
     <use transform="translate(229.901739 0)scale(0.996264)" xlink:href="#CMR17-111"/>
     <use transform="translate(275.592216 0)scale(0.996264)" xlink:href="#CMR17-114"/>
     <use transform="translate(310.872984 0)scale(0.996264)" xlink:href="#CMR17-101"/>
     <use transform="translate(351.358644 0)scale(0.996264)" xlink:href="#CMR17-44"/>
     <use transform="translate(406.305669 0)scale(0.996264)" xlink:href="#CMR17-112"/>
     <use transform="translate(459.803477 0)scale(0.996264)" xlink:href="#CMR17-111"/>
     <use transform="translate(505.493955 0)scale(0.996264)" xlink:href="#CMR17-115"/>
     <use transform="translate(541.295292 0)scale(0.996264)" xlink:href="#CMR17-105"/>
     <use transform="translate(566.166351 0)scale(0.996264)" xlink:href="#CMR17-116"/>
     <use transform="translate(601.447118 0)scale(0.996264)" xlink:href="#CMR17-105"/>
     <use transform="translate(626.318177 0)scale(0.996264)" xlink:href="#CMR17-111"/>
     <use transform="translate(672.008654 0)scale(0.996264)" xlink:href="#CMR17-110"/>
     <use transform="translate(752.97999 0)scale(0.996264)" xlink:href="#CMR17-105"/>
     <use transform="translate(777.851049 0)scale(0.996264)" xlink:href="#CMR17-110"/>
     <use transform="translate(858.822385 0)scale(0.996264)" xlink:href="#CMR17-116"/>
     <use transform="translate(894.103153 0)scale(0.996264)" xlink:href="#CMR17-104"/>
     <use transform="translate(944.998522 0)scale(0.996264)" xlink:href="#CMR17-101"/>
     <use transform="translate(1015.560149 0)scale(0.996264)" xlink:href="#CMR17-120"/>
     <use transform="translate(1093.929031 0)scale(0.996264)" xlink:href="#CMR17-100"/>
     <use transform="translate(1144.824401 0)scale(0.996264)" xlink:href="#CMR17-105"/>
     <use transform="translate(1169.69546 0)scale(0.996264)" xlink:href="#CMR17-114"/>
     <use transform="translate(1204.976227 0)scale(0.996264)" xlink:href="#CMR17-101"/>
     <use transform="translate(1245.461888 0)scale(0.996264)" xlink:href="#CMR17-99"/>
     <use transform="translate(1285.947548 0)scale(0.996264)" xlink:href="#CMR17-116"/>
     <use transform="translate(1321.228316 0)scale(0.996264)" xlink:href="#CMR17-105"/>
     <use transform="translate(1346.099375 0)scale(0.996264)" xlink:href="#CMR17-111"/>
     <use transform="translate(1391.789852 0)scale(0.996264)" xlink:href="#CMR17-110"/>
     <use transform="translate(1472.761188 0)scale(0.996264)" xlink:href="#CMR17-115"/>
     <use transform="translate(1508.562526 0)scale(0.996264)" xlink:href="#CMR17-117"/>
     <use transform="translate(1559.457895 0)scale(0.996264)" xlink:href="#CMR17-114"/>
     <use transform="translate(1594.738663 0)scale(0.996264)" xlink:href="#CMR17-112"/>
     <use transform="translate(1645.634033 0)scale(0.996264)" xlink:href="#CMR17-97"/>
     <use transform="translate(1691.32451 0)scale(0.996264)" xlink:href="#CMR17-115"/>
     <use transform="translate(1727.125848 0)scale(0.996264)" xlink:href="#CMR17-115"/>
     <use transform="translate(1762.927185 0)scale(0.996264)" xlink:href="#CMR17-101"/>
     <use transform="translate(1803.412846 0)scale(0.996264)" xlink:href="#CMR17-100"/>
     <use transform="translate(1884.384182 0)scale(0.996264)" xlink:href="#CMR17-56"/>
     <use transform="translate(1930.074659 0)scale(0.996264)" xlink:href="#CMR17-48"/>
     <use transform="translate(2005.841102 0)scale(0.996264)" xlink:href="#CMR17-99"/>
     <use transform="translate(2046.326763 0)scale(0.996264)" xlink:href="#CMR17-109"/>
     <use transform="translate(2123.246353 0)scale(0.996264)" xlink:href="#CMR17-44"/>
    </g>
    <!-- causing the distance from the astroid to be slightly negative. -->
    <defs>
     <path d="M 11.09375 18.203125 
C 13 16.6875 16.296875 15 20.296875 15 
C 28.203125 15 35 21.234375 35 29.609375 
C 35 32.234375 34.203125 36.265625 31.203125 39.390625 
C 34 42.390625 38.09375 43.390625 40.40625 43.390625 
C 40.796875 43.390625 41.40625 43.390625 41.90625 43.09375 
C 41.5 42.984375 40.59375 42.59375 40.59375 40.984375 
C 40.59375 39.6875 41.5 38.796875 42.796875 38.796875 
C 44.296875 38.796875 45.09375 39.796875 45.09375 41.09375 
C 45.09375 42.984375 43.59375 45 40.40625 45 
C 36.40625 45 32.90625 43.09375 30.09375 40.484375 
C 27.09375 43.1875 23.5 44.1875 20.296875 44.1875 
C 12.40625 44.1875 5.59375 37.984375 5.59375 29.609375 
C 5.59375 23.859375 8.90625 20.21875 9.90625 19.21875 
C 6.90625 15.6875 6.90625 11.59375 6.90625 11.09375 
C 6.90625 8.5 7.90625 4.6875 11.296875 2.59375 
C 6.09375 1.28125 2 -2.875 2 -8.078125 
C 2 -15.5625 11.5 -21 22.90625 -21 
C 33.90625 -21 43.796875 -15.765625 43.796875 -7.96875 
C 43.796875 6 29 6 21.296875 6 
C 19 6 14.90625 6 14.40625 6.09375 
C 11.296875 6.59375 9.203125 9.390625 9.203125 12.890625 
C 9.203125 13.796875 9.203125 16 11.09375 18.203125 
z
M 20.296875 16.6875 
C 11.5 16.6875 11.5 27.59375 11.5 29.609375 
C 11.5 31.625 11.5 42.484375 20.296875 42.484375 
C 29.09375 42.484375 29.09375 31.625 29.09375 29.609375 
C 29.09375 27.59375 29.09375 16.6875 20.296875 16.6875 
z
M 22.90625 -19.3125 
C 12.90625 -19.3125 6 -13.796875 6 -8.078125 
C 6 -4.859375 7.703125 -1.84375 9.90625 -0.171875 
C 12.40625 1.59375 13.40625 1.59375 20.203125 1.59375 
C 28.40625 1.59375 39.796875 1.59375 39.796875 -8.078125 
C 39.796875 -13.796875 32.90625 -19.3125 22.90625 -19.3125 
z
" id="CMR17-103"/>
     <path d="M 15 69 
L 3.09375 67.890625 
L 3.09375 65.296875 
C 9 65.296875 9.90625 64.703125 9.90625 60.046875 
L 9.90625 -0.203125 
L 11.703125 -0.203125 
L 14.59375 6.953125 
C 17.5 2.203125 21.796875 -1 27.59375 -1 
C 37.59375 -1 47.703125 7.859375 47.703125 21.59375 
C 47.703125 34.515625 38.703125 44 28.59375 44 
C 22.40625 44 18 40.671875 15 36.734375 
z
M 15.203125 31.59375 
C 15.203125 33.40625 15.203125 33.703125 16.59375 35.828125 
C 20.5 41.890625 26.09375 42.390625 28 42.390625 
C 31 42.390625 41.296875 40.78125 41.296875 21.6875 
C 41.296875 1.703125 29.5 0.59375 27.09375 0.59375 
C 24 0.59375 19.5 1.796875 16.296875 7.65625 
C 15.203125 9.578125 15.203125 9.78125 15.203125 11.59375 
z
" id="CMR17-98"/>
     <path d="M 39.09375 33.953125 
C 40 36.171875 41.59375 40.1875 47.40625 40.390625 
L 47.40625 43 
C 45.5 42.890625 43 42.796875 41.09375 42.796875 
C 39 42.796875 35.703125 42.796875 33.703125 43 
L 33.703125 40.390625 
C 36.203125 40.1875 37.59375 38.984375 37.59375 36.375 
C 37.59375 35.46875 37.59375 35.265625 37 33.859375 
L 26 5.921875 
L 14.09375 36.0625 
C 13.5 37.375 13.5 37.578125 13.5 37.984375 
C 13.5 40.390625 16.796875 40.390625 18.296875 40.390625 
L 18.296875 43 
C 15.90625 42.796875 11.5 42.796875 9 42.796875 
C 6.296875 42.796875 3.203125 42.796875 1 43 
L 1 40.390625 
C 4.796875 40.390625 6.90625 40.390625 8.09375 37.28125 
L 22.59375 0.6875 
C 23.203125 -0.8125 23.296875 -1 24.203125 -1 
C 25.09375 -1 25.203125 -0.8125 25.796875 0.6875 
z
" id="CMR17-118"/>
     <path d="M 16.59375 4.09375 
C 16.59375 6.59375 14.59375 8.1875 12.5 8.1875 
C 10.5 8.1875 8.40625 6.59375 8.40625 4.09375 
C 8.40625 1.59375 10.40625 0 12.5 0 
C 14.5 0 16.59375 1.59375 16.59375 4.09375 
z
" id="CMR17-46"/>
    </defs>
    <g transform="translate(100.17931 186.647608)scale(0.1 -0.1)">
     <use transform="scale(0.996264)" xlink:href="#CMR17-99"/>
     <use transform="translate(40.48566 0)scale(0.996264)" xlink:href="#CMR17-97"/>
     <use transform="translate(86.176138 0)scale(0.996264)" xlink:href="#CMR17-117"/>
     <use transform="translate(137.071507 0)scale(0.996264)" xlink:href="#CMR17-115"/>
     <use transform="translate(172.872845 0)scale(0.996264)" xlink:href="#CMR17-105"/>
     <use transform="translate(197.743903 0)scale(0.996264)" xlink:href="#CMR17-110"/>
     <use transform="translate(248.639273 0)scale(0.996264)" xlink:href="#CMR17-103"/>
     <use transform="translate(324.405717 0)scale(0.996264)" xlink:href="#CMR17-116"/>
     <use transform="translate(359.686485 0)scale(0.996264)" xlink:href="#CMR17-104"/>
     <use transform="translate(410.581854 0)scale(0.996264)" xlink:href="#CMR17-101"/>
     <use transform="translate(481.143481 0)scale(0.996264)" xlink:href="#CMR17-100"/>
     <use transform="translate(532.038851 0)scale(0.996264)" xlink:href="#CMR17-105"/>
     <use transform="translate(556.909909 0)scale(0.996264)" xlink:href="#CMR17-115"/>
     <use transform="translate(592.711247 0)scale(0.996264)" xlink:href="#CMR17-116"/>
     <use transform="translate(627.992015 0)scale(0.996264)" xlink:href="#CMR17-97"/>
     <use transform="translate(673.682492 0)scale(0.996264)" xlink:href="#CMR17-110"/>
     <use transform="translate(724.577862 0)scale(0.996264)" xlink:href="#CMR17-99"/>
     <use transform="translate(765.063522 0)scale(0.996264)" xlink:href="#CMR17-101"/>
     <use transform="translate(835.625149 0)scale(0.996264)" xlink:href="#CMR17-102"/>
     <use transform="translate(863.098661 0)scale(0.996264)" xlink:href="#CMR17-114"/>
     <use transform="translate(898.379429 0)scale(0.996264)" xlink:href="#CMR17-111"/>
     <use transform="translate(944.069906 0)scale(0.996264)" xlink:href="#CMR17-109"/>
     <use transform="translate(1051.065463 0)scale(0.996264)" xlink:href="#CMR17-116"/>
     <use transform="translate(1086.34623 0)scale(0.996264)" xlink:href="#CMR17-104"/>
     <use transform="translate(1137.2416 0)scale(0.996264)" xlink:href="#CMR17-101"/>
     <use transform="translate(1207.803227 0)scale(0.996264)" xlink:href="#CMR17-97"/>
     <use transform="translate(1253.493704 0)scale(0.996264)" xlink:href="#CMR17-115"/>
     <use transform="translate(1289.295042 0)scale(0.996264)" xlink:href="#CMR17-116"/>
     <use transform="translate(1324.575809 0)scale(0.996264)" xlink:href="#CMR17-114"/>
     <use transform="translate(1359.856577 0)scale(0.996264)" xlink:href="#CMR17-111"/>
     <use transform="translate(1405.547054 0)scale(0.996264)" xlink:href="#CMR17-105"/>
     <use transform="translate(1430.418113 0)scale(0.996264)" xlink:href="#CMR17-100"/>
     <use transform="translate(1511.389449 0)scale(0.996264)" xlink:href="#CMR17-116"/>
     <use transform="translate(1546.670217 0)scale(0.996264)" xlink:href="#CMR17-111"/>
     <use transform="translate(1622.43666 0)scale(0.996264)" xlink:href="#CMR17-98"/>
     <use transform="translate(1675.934469 0)scale(0.996264)" xlink:href="#CMR17-101"/>
     <use transform="translate(1746.496096 0)scale(0.996264)" xlink:href="#CMR17-115"/>
     <use transform="translate(1782.297433 0)scale(0.996264)" xlink:href="#CMR17-108"/>
     <use transform="translate(1807.168492 0)scale(0.996264)" xlink:href="#CMR17-105"/>
     <use transform="translate(1832.03955 0)scale(0.996264)" xlink:href="#CMR17-103"/>
     <use transform="translate(1877.730027 0)scale(0.996264)" xlink:href="#CMR17-104"/>
     <use transform="translate(1926.022943 0)scale(0.996264)" xlink:href="#CMR17-116"/>
     <use transform="translate(1961.303711 0)scale(0.996264)" xlink:href="#CMR17-108"/>
     <use transform="translate(1986.174769 0)scale(0.996264)" xlink:href="#CMR17-121"/>
     <use transform="translate(2064.543652 0)scale(0.996264)" xlink:href="#CMR17-110"/>
     <use transform="translate(2115.439021 0)scale(0.996264)" xlink:href="#CMR17-101"/>
     <use transform="translate(2155.924682 0)scale(0.996264)" xlink:href="#CMR17-103"/>
     <use transform="translate(2201.615159 0)scale(0.996264)" xlink:href="#CMR17-97"/>
     <use transform="translate(2247.305636 0)scale(0.996264)" xlink:href="#CMR17-116"/>
     <use transform="translate(2282.586404 0)scale(0.996264)" xlink:href="#CMR17-105"/>
     <use transform="translate(2307.457462 0)scale(0.996264)" xlink:href="#CMR17-118"/>
     <use transform="translate(2353.147924 0)scale(0.996264)" xlink:href="#CMR17-101"/>
     <use transform="translate(2393.633585 0)scale(0.996264)" xlink:href="#CMR17-46"/>
    </g>
   </g>
   <g id="text_20">
    <!-- Velocity of Spacecraft (cm/s) vs. Distance from Asteroid (cm) -->
    <defs>
     <path d="M 43.796875 67.984375 
C 43.796875 69.796875 43.703125 69.890625 43.09375 69.890625 
C 42.5 69.890625 42.296875 69.484375 41.90625 68.59375 
L 38.90625 61.953125 
C 35.09375 67.5 29.296875 70 23 70 
C 12.796875 70 4.59375 61.84375 4.59375 51.578125 
C 4.59375 48.453125 5.296875 44.015625 8.703125 39.78125 
C 12.40625 35.15625 15.90625 34.34375 23.90625 32.234375 
C 26.90625 31.421875 31.90625 30.109375 32.90625 29.703125 
C 38.59375 27.296875 41.59375 21.25 41.59375 15.609375 
C 41.59375 8.34375 36.5 0.59375 27.796875 0.59375 
C 17.09375 0.59375 7.09375 6.640625 6.40625 20.75 
C 6.296875 22.359375 6.203125 22.453125 5.5 22.453125 
C 4.703125 22.453125 4.59375 22.359375 4.59375 20.34375 
L 4.59375 0 
C 4.59375 -1.8125 4.703125 -1.90625 5.296875 -1.90625 
C 6 -1.90625 6.203125 -1.40625 7.59375 1.703125 
C 7.703125 2 7.703125 2.203125 9.59375 6.03125 
C 14.59375 -0.609375 23 -2 27.796875 -2 
C 38.703125 -2 46.40625 7.140625 46.40625 17.828125 
C 46.40625 23.0625 44.5 27.09375 43.40625 28.90625 
C 39.203125 35.359375 34.703125 36.5625 29.90625 37.765625 
C 29.203125 38.078125 29 38.078125 23.40625 39.484375 
C 18 40.890625 15.703125 41.59375 13.203125 44.3125 
C 10.40625 47.4375 9.40625 50.671875 9.40625 53.890625 
C 9.40625 60.4375 14.59375 67.59375 23.09375 67.59375 
C 33.703125 67.59375 40.296875 60.03125 41.796875 47.4375 
C 42.09375 45.625 42.203125 45.53125 42.90625 45.53125 
C 43.796875 45.53125 43.796875 45.828125 43.796875 47.546875 
z
" id="CMR17-83"/>
     <path d="M 36.296875 69.390625 
C 35.796875 70.6875 35.59375 71 34.59375 71 
C 33.59375 71 33.40625 70.6875 32.90625 69.390625 
L 11.703125 9.0625 
C 9.796875 3.6875 5.796875 2.59375 2.296875 2.59375 
L 2.296875 0 
C 4.09375 0.1875 8.09375 0.1875 10 0.1875 
C 12.5 0.1875 16.5 0.1875 18.90625 0 
L 18.90625 2.59375 
C 14.203125 2.796875 13.5 5.96875 13.5 7.171875 
C 13.5 8.0625 13.703125 8.5625 13.90625 9.15625 
L 19.203125 24 
L 45.40625 24 
L 51.40625 7.078125 
C 51.90625 5.875 51.90625 5.671875 51.90625 5.28125 
C 51.90625 2.59375 47.59375 2.59375 45.703125 2.59375 
L 45.703125 0 
C 48.59375 0.1875 53.796875 0.1875 56.90625 0.1875 
C 59.5 0.1875 64.5 0.1875 66.90625 0 
L 66.90625 2.59375 
C 61.59375 2.59375 59.796875 2.59375 58.5 6.28125 
z
M 32.296875 61.3125 
L 44.5 26.59375 
L 20.09375 26.59375 
z
" id="CMR17-65"/>
    </defs>
    <g transform="translate(8.032883 28.56)scale(0.16 -0.16)">
     <use transform="scale(0.996264)" xlink:href="#CMR17-86"/>
     <use transform="translate(61.265174 0)scale(0.996264)" xlink:href="#CMR17-101"/>
     <use transform="translate(101.750835 0)scale(0.996264)" xlink:href="#CMR17-108"/>
     <use transform="translate(126.621893 0)scale(0.996264)" xlink:href="#CMR17-111"/>
     <use transform="translate(174.914809 0)scale(0.996264)" xlink:href="#CMR17-99"/>
     <use transform="translate(215.40047 0)scale(0.996264)" xlink:href="#CMR17-105"/>
     <use transform="translate(240.271528 0)scale(0.996264)" xlink:href="#CMR17-116"/>
     <use transform="translate(272.949842 0)scale(0.996264)" xlink:href="#CMR17-121"/>
     <use transform="translate(351.318724 0)scale(0.996264)" xlink:href="#CMR17-111"/>
     <use transform="translate(397.009201 0)scale(0.996264)" xlink:href="#CMR17-102"/>
     <use transform="translate(454.55868 0)scale(0.996264)" xlink:href="#CMR17-83"/>
     <use transform="translate(505.45405 0)scale(0.996264)" xlink:href="#CMR17-112"/>
     <use transform="translate(556.34942 0)scale(0.996264)" xlink:href="#CMR17-97"/>
     <use transform="translate(602.039897 0)scale(0.996264)" xlink:href="#CMR17-99"/>
     <use transform="translate(642.525557 0)scale(0.996264)" xlink:href="#CMR17-101"/>
     <use transform="translate(683.011218 0)scale(0.996264)" xlink:href="#CMR17-99"/>
     <use transform="translate(723.496878 0)scale(0.996264)" xlink:href="#CMR17-114"/>
     <use transform="translate(758.777646 0)scale(0.996264)" xlink:href="#CMR17-97"/>
     <use transform="translate(804.468123 0)scale(0.996264)" xlink:href="#CMR17-102"/>
     <use transform="translate(831.941635 0)scale(0.996264)" xlink:href="#CMR17-116"/>
     <use transform="translate(897.29837 0)scale(0.996264)" xlink:href="#CMR17-40"/>
     <use transform="translate(932.579137 0)scale(0.996264)" xlink:href="#CMR17-99"/>
     <use transform="translate(973.064798 0)scale(0.996264)" xlink:href="#CMR17-109"/>
     <use transform="translate(1049.984388 0)scale(0.996264)" xlink:href="#CMR17-47"/>
     <use transform="translate(1095.674865 0)scale(0.996264)" xlink:href="#CMR17-115"/>
     <use transform="translate(1131.476203 0)scale(0.996264)" xlink:href="#CMR17-41"/>
     <use transform="translate(1196.832937 0)scale(0.996264)" xlink:href="#CMR17-118"/>
     <use transform="translate(1245.125853 0)scale(0.996264)" xlink:href="#CMR17-115"/>
     <use transform="translate(1280.92719 0)scale(0.996264)" xlink:href="#CMR17-46"/>
     <use transform="translate(1346.283909 0)scale(0.996264)" xlink:href="#CMR17-68"/>
     <use transform="translate(1416.677465 0)scale(0.996264)" xlink:href="#CMR17-105"/>
     <use transform="translate(1441.548523 0)scale(0.996264)" xlink:href="#CMR17-115"/>
     <use transform="translate(1477.349861 0)scale(0.996264)" xlink:href="#CMR17-116"/>
     <use transform="translate(1512.630629 0)scale(0.996264)" xlink:href="#CMR17-97"/>
     <use transform="translate(1558.321106 0)scale(0.996264)" xlink:href="#CMR17-110"/>
     <use transform="translate(1609.216476 0)scale(0.996264)" xlink:href="#CMR17-99"/>
     <use transform="translate(1649.702136 0)scale(0.996264)" xlink:href="#CMR17-101"/>
     <use transform="translate(1720.263763 0)scale(0.996264)" xlink:href="#CMR17-102"/>
     <use transform="translate(1747.737276 0)scale(0.996264)" xlink:href="#CMR17-114"/>
     <use transform="translate(1783.018043 0)scale(0.996264)" xlink:href="#CMR17-111"/>
     <use transform="translate(1828.70852 0)scale(0.996264)" xlink:href="#CMR17-109"/>
     <use transform="translate(1935.704077 0)scale(0.996264)" xlink:href="#CMR17-65"/>
     <use transform="translate(2004.776506 0)scale(0.996264)" xlink:href="#CMR17-115"/>
     <use transform="translate(2040.577844 0)scale(0.996264)" xlink:href="#CMR17-116"/>
     <use transform="translate(2075.858612 0)scale(0.996264)" xlink:href="#CMR17-101"/>
     <use transform="translate(2116.344272 0)scale(0.996264)" xlink:href="#CMR17-114"/>
     <use transform="translate(2151.62504 0)scale(0.996264)" xlink:href="#CMR17-111"/>
     <use transform="translate(2197.315517 0)scale(0.996264)" xlink:href="#CMR17-105"/>
     <use transform="translate(2222.186576 0)scale(0.996264)" xlink:href="#CMR17-100"/>
     <use transform="translate(2303.157912 0)scale(0.996264)" xlink:href="#CMR17-40"/>
     <use transform="translate(2338.43868 0)scale(0.996264)" xlink:href="#CMR17-99"/>
     <use transform="translate(2378.92434 0)scale(0.996264)" xlink:href="#CMR17-109"/>
     <use transform="translate(2455.84393 0)scale(0.996264)" xlink:href="#CMR17-41"/>
    </g>
   </g>
  </g>
 </g>
 <defs>
  <clipPath id="p11b2f8f3af">
   <rect height="217.44" width="334.8" x="54" y="34.56"/>
  </clipPath>
 </defs>
</svg>
