<?xml version="1.0" encoding="utf-8" standalone="no"?>
<!DOCTYPE svg PUBLIC "-//W3C//DTD SVG 1.1//EN"
  "http://www.w3.org/Graphics/SVG/1.1/DTD/svg11.dtd">
<!-- Created with matplotlib (https://matplotlib.org/) -->
<svg height="540pt" version="1.1" viewBox="0 0 1440 540" width="1440pt" xmlns="http://www.w3.org/2000/svg" xmlns:xlink="http://www.w3.org/1999/xlink">
 <defs>
  <style type="text/css">
*{stroke-linecap:butt;stroke-linejoin:round;}
  </style>
 </defs>
 <g id="figure_1">
  <g id="patch_1">
   <path d="M 0 540 
L 1440 540 
L 1440 0 
L 0 0 
z
" style="fill:#ffffff;"/>
  </g>
  <g id="axes_1">
   <g id="patch_2">
    <path d="M 180 472.5 
L 508.235294 472.5 
L 508.235294 64.8 
L 180 64.8 
z
" style="fill:#ffffff;"/>
   </g>
   <g id="matplotlib.axis_1">
    <g id="xtick_1">
     <g id="line2d_1">
      <defs>
       <path d="M 0 0 
L 0 3.5 
" id="m339455fca8" style="stroke:#000000;stroke-width:0.8;"/>
      </defs>
      <g>
       <use style="stroke:#000000;stroke-width:0.8;" x="213.42712" xlink:href="#m339455fca8" y="472.5"/>
      </g>
     </g>
     <g id="text_1">
      <!-- $11.0$ -->
      <defs>
       <path d="M 26.59375 63.796875 
C 26.59375 65.890625 26.5 66 25.09375 66 
C 21.203125 61.359375 15.296875 59.890625 9.703125 59.6875 
C 9.40625 59.6875 8.90625 59.6875 8.796875 59.5 
C 8.703125 59.296875 8.703125 59.09375 8.703125 57 
C 11.796875 57 17 57.59375 21 59.984375 
L 21 7.296875 
C 21 3.796875 20.796875 2.59375 12.203125 2.59375 
L 9.203125 2.59375 
L 9.203125 0 
C 14 0.09375 19 0.1875 23.796875 0.1875 
C 28.59375 0.1875 33.59375 0.09375 38.40625 0 
L 38.40625 2.59375 
L 35.40625 2.59375 
C 26.796875 2.59375 26.59375 3.6875 26.59375 7.296875 
z
" id="CMR17-49"/>
       <path d="M 18.40625 4.796875 
C 18.40625 7.6875 16 9.6875 13.59375 9.6875 
C 10.703125 9.6875 8.703125 7.296875 8.703125 4.890625 
C 8.703125 2 11.09375 0 13.5 0 
C 16.40625 0 18.40625 2.390625 18.40625 4.796875 
z
" id="CMMI12-58"/>
       <path d="M 42 31.84375 
C 42 37.96875 41.90625 48.421875 37.703125 56.453125 
C 34 63.484375 28.09375 66 22.90625 66 
C 18.09375 66 12 63.78125 8.203125 56.5625 
C 4.203125 49.015625 3.796875 39.671875 3.796875 31.84375 
C 3.796875 26.109375 3.90625 17.375 7 9.734375 
C 11.296875 -0.609375 19 -2 22.90625 -2 
C 27.5 -2 34.5 -0.109375 38.59375 9.4375 
C 41.59375 16.375 42 24.5 42 31.84375 
z
M 22.90625 -0.40625 
C 16.5 -0.40625 12.703125 5.125 11.296875 12.75 
C 10.203125 18.6875 10.203125 27.328125 10.203125 32.953125 
C 10.203125 40.6875 10.203125 47.109375 11.5 53.234375 
C 13.40625 61.78125 19 64.390625 22.90625 64.390625 
C 27 64.390625 32.296875 61.671875 34.203125 53.4375 
C 35.5 47.71875 35.59375 40.984375 35.59375 32.953125 
C 35.59375 26.421875 35.59375 18.375 34.40625 12.453125 
C 32.296875 1.5 26.40625 -0.40625 22.90625 -0.40625 
z
" id="CMR17-48"/>
      </defs>
      <g transform="translate(204.571413 486.418498)scale(0.1 -0.1)">
       <use transform="scale(0.996264)" xlink:href="#CMR17-49"/>
       <use transform="translate(45.690477 0)scale(0.996264)" xlink:href="#CMR17-49"/>
       <use transform="translate(91.380954 0)scale(0.996264)" xlink:href="#CMMI12-58"/>
       <use transform="translate(118.478131 0)scale(0.996264)" xlink:href="#CMR17-48"/>
      </g>
     </g>
    </g>
    <g id="xtick_2">
     <g id="line2d_2">
      <g>
       <use style="stroke:#000000;stroke-width:0.8;" x="258.633113" xlink:href="#m339455fca8" y="472.5"/>
      </g>
     </g>
     <g id="text_2">
      <!-- $11.5$ -->
      <defs>
       <path d="M 11.40625 58.59375 
C 12.40625 58.1875 16.5 56.890625 20.703125 56.890625 
C 30 56.890625 35.09375 61.890625 38 64.6875 
C 38 65.484375 38 66 37.40625 66 
C 37.296875 66 37.09375 66 36.296875 65.59375 
C 32.796875 64.09375 28.703125 63 23.703125 63 
C 20.703125 63 16.203125 63.359375 11.296875 65.484375 
C 10.203125 66 10 66 9.90625 66 
C 9.40625 66 9.296875 65.890625 9.296875 63.90625 
L 9.296875 34.859375 
C 9.296875 33.015625 9.296875 32.5 10.296875 32.5 
C 10.796875 32.5 11 32.703125 11.5 33.421875 
C 14.703125 38.046875 19.09375 40 24.09375 40 
C 27.59375 40 35.09375 37.734375 35.09375 20.203125 
C 35.09375 16.984375 35.09375 11.1875 32.09375 6.59375 
C 29.59375 2.484375 25.703125 0.390625 21.40625 0.390625 
C 14.796875 0.390625 8.09375 4.984375 6.296875 12.6875 
C 6.703125 12.59375 7.5 12.390625 7.90625 12.390625 
C 9.203125 12.390625 11.703125 13.09375 11.703125 16.1875 
C 11.703125 18.890625 9.796875 20 7.90625 20 
C 5.59375 20 4.09375 18.59375 4.09375 15.796875 
C 4.09375 7.09375 11 -2 21.59375 -2 
C 31.90625 -2 41.703125 6.890625 41.703125 19.796875 
C 41.703125 32.09375 33.90625 41.59375 24.203125 41.59375 
C 19.09375 41.59375 14.796875 39.6875 11.40625 36 
z
" id="CMR17-53"/>
      </defs>
      <g transform="translate(249.777406 486.418498)scale(0.1 -0.1)">
       <use transform="scale(0.996264)" xlink:href="#CMR17-49"/>
       <use transform="translate(45.690477 0)scale(0.996264)" xlink:href="#CMR17-49"/>
       <use transform="translate(91.380954 0)scale(0.996264)" xlink:href="#CMMI12-58"/>
       <use transform="translate(118.478131 0)scale(0.996264)" xlink:href="#CMR17-53"/>
      </g>
     </g>
    </g>
    <g id="xtick_3">
     <g id="line2d_3">
      <g>
       <use style="stroke:#000000;stroke-width:0.8;" x="303.839107" xlink:href="#m339455fca8" y="472.5"/>
      </g>
     </g>
     <g id="text_3">
      <!-- $12.0$ -->
      <defs>
       <path d="M 41.703125 15.46875 
L 39.90625 15.46875 
C 38.90625 8.390625 38.09375 7.1875 37.703125 6.59375 
C 37.203125 5.796875 30 5.796875 28.59375 5.796875 
L 9.40625 5.796875 
C 13 9.6875 20 16.765625 28.5 24.9375 
C 34.59375 30.71875 41.703125 37.5 41.703125 47.390625 
C 41.703125 59.1875 32.296875 66 21.796875 66 
C 10.796875 66 4.09375 56.296875 4.09375 47.296875 
C 4.09375 43.390625 7 42.890625 8.203125 42.890625 
C 9.203125 42.890625 12.203125 43.484375 12.203125 46.984375 
C 12.203125 50.09375 9.59375 51 8.203125 51 
C 7.59375 51 7 50.890625 6.59375 50.6875 
C 8.5 59.1875 14.296875 63.390625 20.40625 63.390625 
C 29.09375 63.390625 34.796875 56.5 34.796875 47.390625 
C 34.796875 38.703125 29.703125 31.21875 24 24.734375 
L 4.09375 2.296875 
L 4.09375 0 
L 39.296875 0 
z
" id="CMR17-50"/>
      </defs>
      <g transform="translate(294.9834 486.418498)scale(0.1 -0.1)">
       <use transform="scale(0.996264)" xlink:href="#CMR17-49"/>
       <use transform="translate(45.690477 0)scale(0.996264)" xlink:href="#CMR17-50"/>
       <use transform="translate(91.380954 0)scale(0.996264)" xlink:href="#CMMI12-58"/>
       <use transform="translate(118.478131 0)scale(0.996264)" xlink:href="#CMR17-48"/>
      </g>
     </g>
    </g>
    <g id="xtick_4">
     <g id="line2d_4">
      <g>
       <use style="stroke:#000000;stroke-width:0.8;" x="349.0451" xlink:href="#m339455fca8" y="472.5"/>
      </g>
     </g>
     <g id="text_4">
      <!-- $12.5$ -->
      <g transform="translate(340.189393 486.418498)scale(0.1 -0.1)">
       <use transform="scale(0.996264)" xlink:href="#CMR17-49"/>
       <use transform="translate(45.690477 0)scale(0.996264)" xlink:href="#CMR17-50"/>
       <use transform="translate(91.380954 0)scale(0.996264)" xlink:href="#CMMI12-58"/>
       <use transform="translate(118.478131 0)scale(0.996264)" xlink:href="#CMR17-53"/>
      </g>
     </g>
    </g>
    <g id="xtick_5">
     <g id="line2d_5">
      <g>
       <use style="stroke:#000000;stroke-width:0.8;" x="394.251094" xlink:href="#m339455fca8" y="472.5"/>
      </g>
     </g>
     <g id="text_5">
      <!-- $13.0$ -->
      <defs>
       <path d="M 22.09375 34 
C 31 34 34.90625 26.140625 34.90625 17.09375 
C 34.90625 5.03125 28.5 0.390625 22.703125 0.390625 
C 17.40625 0.390625 8.796875 3.015625 6.09375 10.796875 
C 6.59375 10.59375 7.09375 10.59375 7.59375 10.59375 
C 10 10.59375 11.796875 12.1875 11.796875 14.796875 
C 11.796875 17.6875 9.59375 19 7.59375 19 
C 5.90625 19 3.296875 18.1875 3.296875 14.484375 
C 3.296875 5.234375 12.296875 -2 22.90625 -2 
C 34 -2 42.5 6.75 42.5 16.984375 
C 42.5 26.84375 34.5 34 25 35.09375 
C 32.59375 36.671875 39.90625 43.375 39.90625 52.390625 
C 39.90625 60.25 32 66 23 66 
C 13.90625 66 5.90625 60.34375 5.90625 52.296875 
C 5.90625 48.796875 8.5 48.1875 9.796875 48.1875 
C 11.90625 48.1875 13.703125 49.484375 13.703125 52.09375 
C 13.703125 54.6875 11.90625 56 9.796875 56 
C 9.40625 56 8.90625 56 8.5 55.796875 
C 11.40625 62.484375 19.296875 63.6875 22.796875 63.6875 
C 26.296875 63.6875 32.90625 61.96875 32.90625 52.296875 
C 32.90625 49.484375 32.5 44.546875 29.09375 40.21875 
C 26.09375 36.390625 22.703125 36.1875 19.40625 35.890625 
C 18.90625 35.890625 16.59375 35.6875 16.203125 35.6875 
C 15.5 35.59375 15.09375 35.5 15.09375 34.796875 
C 15.09375 34.09375 15.203125 34 17.203125 34 
z
" id="CMR17-51"/>
      </defs>
      <g transform="translate(385.395387 486.418498)scale(0.1 -0.1)">
       <use transform="scale(0.996264)" xlink:href="#CMR17-49"/>
       <use transform="translate(45.690477 0)scale(0.996264)" xlink:href="#CMR17-51"/>
       <use transform="translate(91.380954 0)scale(0.996264)" xlink:href="#CMMI12-58"/>
       <use transform="translate(118.478131 0)scale(0.996264)" xlink:href="#CMR17-48"/>
      </g>
     </g>
    </g>
    <g id="xtick_6">
     <g id="line2d_6">
      <g>
       <use style="stroke:#000000;stroke-width:0.8;" x="439.457087" xlink:href="#m339455fca8" y="472.5"/>
      </g>
     </g>
     <g id="text_6">
      <!-- $13.5$ -->
      <g transform="translate(430.60138 486.418498)scale(0.1 -0.1)">
       <use transform="scale(0.996264)" xlink:href="#CMR17-49"/>
       <use transform="translate(45.690477 0)scale(0.996264)" xlink:href="#CMR17-51"/>
       <use transform="translate(91.380954 0)scale(0.996264)" xlink:href="#CMMI12-58"/>
       <use transform="translate(118.478131 0)scale(0.996264)" xlink:href="#CMR17-53"/>
      </g>
     </g>
    </g>
    <g id="xtick_7">
     <g id="line2d_7">
      <g>
       <use style="stroke:#000000;stroke-width:0.8;" x="484.663081" xlink:href="#m339455fca8" y="472.5"/>
      </g>
     </g>
     <g id="text_7">
      <!-- $14.0$ -->
      <defs>
       <path d="M 33.59375 64.796875 
C 33.59375 66.890625 33.5 67 31.703125 67 
L 2 19.59375 
L 2 17 
L 27.796875 17 
L 27.796875 7.1875 
C 27.796875 3.59375 27.59375 2.59375 20.59375 2.59375 
L 18.703125 2.59375 
L 18.703125 0 
C 21.90625 0.1875 27.296875 0.1875 30.703125 0.1875 
C 34.09375 0.1875 39.5 0.1875 42.703125 0 
L 42.703125 2.59375 
L 40.796875 2.59375 
C 33.796875 2.59375 33.59375 3.59375 33.59375 7.1875 
L 33.59375 17 
L 43.796875 17 
L 43.796875 19.59375 
L 33.59375 19.59375 
z
M 28.09375 58.171875 
L 28.09375 19.59375 
L 4 19.59375 
z
" id="CMR17-52"/>
      </defs>
      <g transform="translate(475.807374 486.418498)scale(0.1 -0.1)">
       <use transform="scale(0.996264)" xlink:href="#CMR17-49"/>
       <use transform="translate(45.690477 0)scale(0.996264)" xlink:href="#CMR17-52"/>
       <use transform="translate(91.380954 0)scale(0.996264)" xlink:href="#CMMI12-58"/>
       <use transform="translate(118.478131 0)scale(0.996264)" xlink:href="#CMR17-48"/>
      </g>
     </g>
    </g>
    <g id="text_8">
     <!-- Time (s) -->
     <defs>
      <path d="M 62.203125 67.6875 
L 4.5 67.6875 
L 2.796875 45.6875 
L 4.59375 45.6875 
C 5.90625 62.203125 7.296875 65.09375 22.703125 65.09375 
C 24.5 65.09375 27.40625 65.09375 28.203125 64.984375 
C 30.09375 64.6875 30.09375 63.5 30.09375 61.203125 
L 30.09375 7.265625 
C 30.09375 3.6875 29.796875 2.59375 21.5 2.59375 
L 18.703125 2.59375 
L 18.703125 0 
C 23.5 0.09375 28.5 0.1875 33.40625 0.1875 
C 38.296875 0.1875 43.296875 0.09375 48.09375 0 
L 48.09375 2.59375 
L 45.296875 2.59375 
C 37 2.59375 36.703125 3.6875 36.703125 7.265625 
L 36.703125 61.203125 
C 36.703125 63.390625 36.703125 64.59375 38.5 64.984375 
C 39.296875 65.09375 42.203125 65.09375 44 65.09375 
C 59.296875 65.09375 60.796875 62.203125 62.09375 45.6875 
L 63.90625 45.6875 
z
" id="CMR17-84"/>
      <path d="M 15.5 61.890625 
C 15.5 64.09375 13.703125 66 11.40625 66 
C 9.203125 66 7.296875 64.1875 7.296875 61.890625 
C 7.296875 59.6875 9.09375 57.796875 11.40625 57.796875 
C 13.59375 57.796875 15.5 59.59375 15.5 61.890625 
z
M 3.796875 42.890625 
L 3.796875 40.296875 
C 9.40625 40.296875 10.203125 39.6875 10.203125 34.859375 
L 10.203125 6.921875 
C 10.203125 3.09375 9.796875 2.59375 3.40625 2.59375 
L 3.40625 0 
C 5.796875 0.1875 10.09375 0.1875 12.59375 0.1875 
C 15 0.1875 19.09375 0.1875 21.40625 0 
L 21.40625 2.59375 
C 15.5 2.59375 15.296875 3.203125 15.296875 6.8125 
L 15.296875 44 
z
" id="CMR17-105"/>
      <path d="M 67.59375 30.53125 
C 67.59375 35.5625 66.703125 44 54.796875 44 
C 48 44 43.296875 39.375 41.5 33.953125 
L 41.40625 33.953125 
C 40.203125 42.1875 34.296875 44 28.703125 44 
C 20.796875 44 16.703125 37.875 15.203125 33.84375 
L 15.09375 33.84375 
L 15.09375 44 
L 3.296875 42.890625 
L 3.296875 40.28125 
C 9.203125 40.28125 10.09375 39.6875 10.09375 34.859375 
L 10.09375 6.921875 
C 10.09375 3.09375 9.703125 2.59375 3.296875 2.59375 
L 3.296875 0 
C 5.703125 0.1875 10.09375 0.1875 12.703125 0.1875 
C 15.296875 0.1875 19.796875 0.1875 22.203125 0 
L 22.203125 2.59375 
C 15.796875 2.59375 15.40625 3 15.40625 6.921875 
L 15.40625 26.21875 
C 15.40625 35.453125 21 42.390625 28 42.390625 
C 35.40625 42.390625 36.203125 35.765625 36.203125 30.9375 
L 36.203125 6.921875 
C 36.203125 3.09375 35.796875 2.59375 29.40625 2.59375 
L 29.40625 0 
C 31.796875 0.1875 36.203125 0.1875 38.796875 0.1875 
C 41.40625 0.1875 45.90625 0.1875 48.296875 0 
L 48.296875 2.59375 
C 41.90625 2.59375 41.5 3 41.5 6.921875 
L 41.5 26.21875 
C 41.5 35.453125 47.09375 42.390625 54.09375 42.390625 
C 61.5 42.390625 62.296875 35.765625 62.296875 30.9375 
L 62.296875 6.921875 
C 62.296875 3.09375 61.90625 2.59375 55.5 2.59375 
L 55.5 0 
C 57.90625 0.1875 62.296875 0.1875 64.90625 0.1875 
C 67.5 0.1875 72 0.1875 74.40625 0 
L 74.40625 2.59375 
C 68 2.59375 67.59375 3 67.59375 6.921875 
z
" id="CMR17-109"/>
      <path d="M 38.09375 23.484375 
C 38.5 23.890625 38.5 24.09375 38.5 25.09375 
C 38.5 35.171875 33.09375 44 21.703125 44 
C 11.09375 44 2.703125 33.984375 2.703125 21.78125 
C 2.703125 8.65625 12.203125 -1 22.796875 -1 
C 34 -1 38.40625 9.671875 38.40625 11.796875 
C 38.40625 12.5 37.796875 12.5 37.59375 12.5 
C 36.90625 12.5 36.796875 12.296875 36.40625 11.078125 
C 34.203125 4.21875 28.703125 0.796875 23.5 0.796875 
C 19.203125 0.796875 14.90625 3.21875 12.203125 7.65625 
C 9.09375 12.796875 9.09375 18.75 9.09375 23.484375 
z
M 9.203125 25 
C 9.90625 39.234375 17.59375 42.390625 21.59375 42.390625 
C 28.40625 42.390625 33 36.0625 33.09375 25 
z
" id="CMR17-101"/>
      <path d="M 30.59375 -24.40625 
C 30.59375 -24.3125 30.59375 -24.109375 30.296875 -23.8125 
C 25.703125 -19.109375 13.40625 -6.296875 13.40625 24.9375 
C 13.40625 56.171875 25.5 68.875 30.40625 73.890625 
C 30.40625 73.984375 30.59375 74.1875 30.59375 74.484375 
C 30.59375 74.796875 30.296875 75 29.90625 75 
C 28.796875 75 20.296875 67.578125 15.40625 56.5625 
C 10.40625 45.453125 9 34.65625 9 25.046875 
C 9 17.828125 9.703125 5.625 15.703125 -7.296875 
C 20.5 -17.703125 28.703125 -25 29.90625 -25 
C 30.40625 -25 30.59375 -24.8125 30.59375 -24.40625 
z
" id="CMR17-40"/>
      <path d="M 30.90625 42 
C 30.90625 43.796875 30.796875 43.890625 30.203125 43.890625 
C 29.796875 43.890625 29.703125 43.796875 28.5 42.296875 
C 28.203125 41.890625 27.296875 40.890625 27 40.5 
C 23.796875 43.890625 19.296875 44 17.59375 44 
C 6.5 44 2.5 38.1875 2.5 32.390625 
C 2.5 23.390625 12.703125 21.296875 15.59375 20.6875 
C 21.90625 19.390625 24.09375 19 26.203125 17.1875 
C 27.5 16 29.703125 13.796875 29.703125 10.1875 
C 29.703125 6 27.296875 0.59375 18.09375 0.59375 
C 9.40625 0.59375 6.296875 7.1875 4.5 16 
C 4.203125 17.390625 4.203125 17.5 3.40625 17.5 
C 2.59375 17.5 2.5 17.390625 2.5 15.390625 
L 2.5 1 
C 2.5 -0.8125 2.59375 -0.90625 3.203125 -0.90625 
C 3.703125 -0.90625 3.796875 -0.8125 4.296875 0 
C 4.90625 0.890625 6.40625 3.296875 7 4.296875 
C 9 1.59375 12.5 -1 18.09375 -1 
C 28 -1 33.296875 4.390625 33.296875 12.1875 
C 33.296875 17.296875 30.59375 20 29.296875 21.1875 
C 26.296875 24.296875 22.796875 25 18.59375 25.796875 
C 13.09375 27 6.09375 28.390625 6.09375 34.5 
C 6.09375 37.09375 7.5 42.59375 17.59375 42.59375 
C 28.296875 42.59375 28.90625 32.59375 29.09375 29.390625 
C 29.203125 28.890625 29.703125 28.796875 30 28.796875 
C 30.90625 28.796875 30.90625 29.09375 30.90625 30.796875 
z
" id="CMR17-115"/>
      <path d="M 26.296875 24.9375 
C 26.296875 32.140625 25.59375 44.359375 19.59375 57.265625 
C 14.796875 67.6875 6.59375 75 5.40625 75 
C 5.09375 75 4.703125 74.890625 4.703125 74.390625 
C 4.703125 74.1875 4.796875 74.09375 4.90625 73.890625 
C 9.703125 68.875 21.90625 56.171875 21.90625 25.046875 
C 21.90625 -6.1875 9.796875 -18.90625 4.90625 -23.90625 
C 4.796875 -24.109375 4.703125 -24.203125 4.703125 -24.40625 
C 4.703125 -24.90625 5.09375 -25 5.40625 -25 
C 6.5 -25 15 -17.609375 19.90625 -6.59375 
C 24.90625 4.515625 26.296875 15.328125 26.296875 24.9375 
z
" id="CMR17-41"/>
     </defs>
     <g transform="translate(314.592563 504.310845)scale(0.16 -0.16)">
      <use transform="scale(0.996264)" xlink:href="#CMR17-84"/>
      <use transform="translate(66.509881 0)scale(0.996264)" xlink:href="#CMR17-105"/>
      <use transform="translate(91.380939 0)scale(0.996264)" xlink:href="#CMR17-109"/>
      <use transform="translate(168.300529 0)scale(0.996264)" xlink:href="#CMR17-101"/>
      <use transform="translate(238.862156 0)scale(0.996264)" xlink:href="#CMR17-40"/>
      <use transform="translate(274.142924 0)scale(0.996264)" xlink:href="#CMR17-115"/>
      <use transform="translate(309.944261 0)scale(0.996264)" xlink:href="#CMR17-41"/>
     </g>
    </g>
   </g>
   <g id="matplotlib.axis_2">
    <g id="ytick_1">
     <g id="line2d_8">
      <defs>
       <path d="M 0 0 
L -3.5 0 
" id="m9360e35ee8" style="stroke:#000000;stroke-width:0.8;"/>
      </defs>
      <g>
       <use style="stroke:#000000;stroke-width:0.8;" x="180" xlink:href="#m9360e35ee8" y="466.748746"/>
      </g>
     </g>
     <g id="text_9">
      <!-- $0$ -->
      <g transform="translate(168.018665 470.207995)scale(0.1 -0.1)">
       <use transform="scale(0.996264)" xlink:href="#CMR17-48"/>
      </g>
     </g>
    </g>
    <g id="ytick_2">
     <g id="line2d_9">
      <g>
       <use style="stroke:#000000;stroke-width:0.8;" x="180" xlink:href="#m9360e35ee8" y="376.568103"/>
      </g>
     </g>
     <g id="text_10">
      <!-- $20$ -->
      <g transform="translate(163.037329 380.027353)scale(0.1 -0.1)">
       <use transform="scale(0.996264)" xlink:href="#CMR17-50"/>
       <use transform="translate(45.690477 0)scale(0.996264)" xlink:href="#CMR17-48"/>
      </g>
     </g>
    </g>
    <g id="ytick_3">
     <g id="line2d_10">
      <g>
       <use style="stroke:#000000;stroke-width:0.8;" x="180" xlink:href="#m9360e35ee8" y="286.387461"/>
      </g>
     </g>
     <g id="text_11">
      <!-- $40$ -->
      <g transform="translate(163.037329 289.84671)scale(0.1 -0.1)">
       <use transform="scale(0.996264)" xlink:href="#CMR17-52"/>
       <use transform="translate(45.690477 0)scale(0.996264)" xlink:href="#CMR17-48"/>
      </g>
     </g>
    </g>
    <g id="ytick_4">
     <g id="line2d_11">
      <g>
       <use style="stroke:#000000;stroke-width:0.8;" x="180" xlink:href="#m9360e35ee8" y="196.206818"/>
      </g>
     </g>
     <g id="text_12">
      <!-- $60$ -->
      <defs>
       <path d="M 10.59375 34.34375 
C 10.59375 58 21.796875 63.6875 28.296875 63.6875 
C 30.40625 63.6875 35.5 63.265625 37.5 59.09375 
C 35.90625 59.09375 32.90625 59.09375 32.90625 55.59375 
C 32.90625 52.890625 35.09375 52 36.5 52 
C 37.40625 52 40.09375 52.390625 40.09375 55.796875 
C 40.09375 62.296875 35.09375 66 28.203125 66 
C 16.296875 66 3.796875 53.296875 3.796875 31.421875 
C 3.796875 4.015625 15.09375 -2 23.09375 -2 
C 32.796875 -2 42 6.734375 42 20.234375 
C 42 32.828125 33.90625 42 23.703125 42 
C 17.59375 42 13.09375 37.96875 10.59375 30.921875 
z
M 23.09375 0.390625 
C 10.796875 0.390625 10.796875 18.9375 10.796875 22.65625 
C 10.796875 29.90625 14.203125 40.390625 23.5 40.390625 
C 25.203125 40.390625 30.09375 40.390625 33.40625 33.4375 
C 35.203125 29.515625 35.203125 25.375 35.203125 20.34375 
C 35.203125 14.90625 35.203125 10.875 33.09375 6.84375 
C 30.90625 2.703125 27.703125 0.390625 23.09375 0.390625 
z
" id="CMR17-54"/>
      </defs>
      <g transform="translate(163.037329 199.666067)scale(0.1 -0.1)">
       <use transform="scale(0.996264)" xlink:href="#CMR17-54"/>
       <use transform="translate(45.690477 0)scale(0.996264)" xlink:href="#CMR17-48"/>
      </g>
     </g>
    </g>
    <g id="ytick_5">
     <g id="line2d_12">
      <g>
       <use style="stroke:#000000;stroke-width:0.8;" x="180" xlink:href="#m9360e35ee8" y="106.026175"/>
      </g>
     </g>
     <g id="text_13">
      <!-- $80$ -->
      <defs>
       <path d="M 27.203125 35.765625 
C 33.5 38.96875 39.90625 43.796875 39.90625 51.53125 
C 39.90625 60.6875 31.09375 66 23 66 
C 13.90625 66 5.90625 59.375 5.90625 50.234375 
C 5.90625 47.71875 6.5 43.390625 10.40625 39.578125 
C 11.40625 38.578125 15.59375 35.5625 18.296875 33.65625 
C 13.796875 31.34375 3.296875 25.8125 3.296875 14.765625 
C 3.296875 4.40625 13.09375 -2 22.796875 -2 
C 33.5 -2 42.5 5.71875 42.5 15.96875 
C 42.5 25.109375 36.40625 29.328125 32.40625 32.046875 
z
M 14.09375 44.609375 
C 13.296875 45.109375 9.296875 48.21875 9.296875 52.9375 
C 9.296875 59.078125 15.59375 63.6875 22.796875 63.6875 
C 30.703125 63.6875 36.5 58.0625 36.5 51.53125 
C 36.5 42.1875 26.09375 36.859375 25.59375 36.859375 
C 25.5 36.859375 25.40625 36.859375 24.59375 37.46875 
z
M 32.5 24 
C 34 22.90625 38.796875 19.578125 38.796875 13.453125 
C 38.796875 6.015625 31.40625 0.390625 23 0.390625 
C 13.90625 0.390625 7 6.921875 7 14.859375 
C 7 22.796875 13.09375 29.4375 20 32.546875 
z
" id="CMR17-56"/>
      </defs>
      <g transform="translate(163.037329 109.485424)scale(0.1 -0.1)">
       <use transform="scale(0.996264)" xlink:href="#CMR17-56"/>
       <use transform="translate(45.690477 0)scale(0.996264)" xlink:href="#CMR17-48"/>
      </g>
     </g>
    </g>
    <g id="text_14">
     <!-- Position (cm) -->
     <defs>
      <path d="M 19.796875 32 
L 35.796875 32 
C 48.703125 32 58.09375 40.359375 58.09375 49.796875 
C 58.09375 59.234375 48.90625 68 35.796875 68 
L 5.203125 68 
L 5.203125 65.390625 
C 12.09375 65.390625 13.203125 65.390625 13.203125 60.921875 
L 13.203125 7.078125 
C 13.203125 2.59375 12.09375 2.59375 5.203125 2.59375 
L 5.203125 0 
C 8.09375 0.1875 13.40625 0.1875 16.5 0.1875 
C 19.59375 0.1875 24.90625 0.1875 27.796875 0 
L 27.796875 2.59375 
C 20.90625 2.59375 19.796875 2.59375 19.796875 7.078125 
z
M 19.59375 34.09375 
L 19.59375 61.515625 
C 19.59375 64.890625 19.796875 65.390625 23.796875 65.390625 
L 33.90625 65.390625 
C 46.796875 65.390625 50.5 58.046875 50.5 49.796875 
C 50.5 40.75 46.09375 34.09375 33.90625 34.09375 
z
" id="CMR17-80"/>
      <path d="M 43.09375 21.1875 
C 43.09375 34 33.796875 44 22.90625 44 
C 12 44 2.703125 34 2.703125 21.1875 
C 2.703125 8.59375 12 -1 22.90625 -1 
C 33.796875 -1 43.09375 8.59375 43.09375 21.1875 
z
M 22.90625 0.796875 
C 18.203125 0.796875 14.203125 3.59375 11.90625 7.5 
C 9.40625 12 9.09375 17.59375 9.09375 22 
C 9.09375 26.1875 9.296875 31.390625 11.90625 35.890625 
C 13.90625 39.1875 17.796875 42.390625 22.90625 42.390625 
C 27.40625 42.390625 31.203125 39.890625 33.59375 36.390625 
C 36.703125 31.6875 36.703125 25.09375 36.703125 22 
C 36.703125 18.09375 36.5 12.09375 33.796875 7.296875 
C 31 2.6875 26.703125 0.796875 22.90625 0.796875 
z
" id="CMR17-111"/>
      <path d="M 15.09375 40.390625 
L 29.09375 40.390625 
L 29.09375 43 
L 15.09375 43 
L 15.09375 62 
L 13.296875 62 
C 13.09375 51.4375 9.59375 42.1875 1.09375 41.984375 
L 1.09375 40.390625 
L 9.796875 40.390625 
L 9.796875 12.15625 
C 9.796875 10.234375 9.796875 -1 21.40625 -1 
C 27.296875 -1 30.703125 4.8125 30.703125 12.25 
L 30.703125 17.984375 
L 28.90625 17.984375 
L 28.90625 12.34375 
C 28.90625 5.421875 26.203125 0.796875 22 0.796875 
C 19.09375 0.796875 15.09375 2.796875 15.09375 11.953125 
z
" id="CMR17-116"/>
      <path d="M 41.5 30.53125 
C 41.5 35.65625 40.5 44 28.703125 44 
C 20.796875 44 16.703125 37.875 15.203125 33.84375 
L 15.09375 33.84375 
L 15.09375 44 
L 3.296875 42.890625 
L 3.296875 40.28125 
C 9.203125 40.28125 10.09375 39.6875 10.09375 34.859375 
L 10.09375 6.921875 
C 10.09375 3.09375 9.703125 2.59375 3.296875 2.59375 
L 3.296875 0 
C 5.703125 0.1875 10.09375 0.1875 12.703125 0.1875 
C 15.296875 0.1875 19.796875 0.1875 22.203125 0 
L 22.203125 2.59375 
C 15.796875 2.59375 15.40625 3 15.40625 6.921875 
L 15.40625 26.21875 
C 15.40625 35.453125 21 42.390625 28 42.390625 
C 35.40625 42.390625 36.203125 35.765625 36.203125 30.9375 
L 36.203125 6.921875 
C 36.203125 3.09375 35.796875 2.59375 29.40625 2.59375 
L 29.40625 0 
C 31.796875 0.1875 36.203125 0.1875 38.796875 0.1875 
C 41.40625 0.1875 45.90625 0.1875 48.296875 0 
L 48.296875 2.59375 
C 41.90625 2.59375 41.5 3 41.5 6.921875 
z
" id="CMR17-110"/>
      <path d="M 34.90625 35 
C 33 35 30.203125 35 30.203125 31.484375 
C 30.203125 28.6875 32.5 27.890625 33.796875 27.890625 
C 34.5 27.890625 37.40625 28.1875 37.40625 31.6875 
C 37.40625 38.6875 30.59375 44 22.90625 44 
C 12.296875 44 3.296875 34.390625 3.296875 21.546875 
C 3.296875 8.140625 12.703125 -1 22.90625 -1 
C 35.296875 -1 38.40625 10.5625 38.40625 11.671875 
C 38.40625 12.078125 38.296875 12.375 37.59375 12.375 
C 36.90625 12.375 36.796875 12.28125 36.40625 10.96875 
C 33.796875 2.8125 28.09375 0.796875 23.796875 0.796875 
C 17.40625 0.796875 9.703125 6.734375 9.703125 21.640625 
C 9.703125 36.84375 17.09375 42.1875 23 42.1875 
C 26.90625 42.1875 32.703125 40.34375 34.90625 35 
z
" id="CMR17-99"/>
     </defs>
     <g transform="translate(155.052273 314.973958)rotate(-90)scale(0.16 -0.16)">
      <use transform="scale(0.996264)" xlink:href="#CMR17-80"/>
      <use transform="translate(59.983847 0)scale(0.996264)" xlink:href="#CMR17-111"/>
      <use transform="translate(105.674324 0)scale(0.996264)" xlink:href="#CMR17-115"/>
      <use transform="translate(141.475661 0)scale(0.996264)" xlink:href="#CMR17-105"/>
      <use transform="translate(166.34672 0)scale(0.996264)" xlink:href="#CMR17-116"/>
      <use transform="translate(201.627488 0)scale(0.996264)" xlink:href="#CMR17-105"/>
      <use transform="translate(226.498546 0)scale(0.996264)" xlink:href="#CMR17-111"/>
      <use transform="translate(272.189023 0)scale(0.996264)" xlink:href="#CMR17-110"/>
      <use transform="translate(353.160359 0)scale(0.996264)" xlink:href="#CMR17-40"/>
      <use transform="translate(388.441127 0)scale(0.996264)" xlink:href="#CMR17-99"/>
      <use transform="translate(428.926788 0)scale(0.996264)" xlink:href="#CMR17-109"/>
      <use transform="translate(505.846377 0)scale(0.996264)" xlink:href="#CMR17-41"/>
     </g>
    </g>
   </g>
   <g id="line2d_13">
    <path clip-path="url(#p1188c529e7)" d="M 194.919786 453.968182 
L 198.165576 450.681751 
L 201.040678 447.760479 
L 203.970026 444.839207 
L 207.215816 437.170869 
L 210.154206 435.710233 
L 212.984101 430.232848 
L 216.22085 428.041894 
L 219.141157 422.199351 
L 222.052423 417.087125 
L 225.325337 412.340058 
L 228.173315 406.862674 
L 231.084581 401.385289 
L 234.312289 395.907904 
L 237.205472 389.700202 
L 240.134821 383.12734 
L 243.335405 376.189319 
L 246.328042 369.616458 
L 249.248349 362.313278 
L 252.394686 354.279781 
L 255.314993 346.976601 
L 258.37996 340.03858 
L 261.463009 331.639924 
L 264.33811 322.510949 
L 267.240335 314.477452 
L 270.477084 306.443954 
L 273.379308 296.949821 
L 276.290574 288.186005 
L 279.545406 279.787349 
L 282.411466 271.753851 
L 285.639174 263.720354 
L 288.568522 256.782333 
L 291.479788 249.479154 
L 294.363931 241.445656 
L 297.591639 233.777318 
L 300.530028 226.108979 
L 303.432253 219.901276 
L 306.669002 212.963256 
L 309.679721 207.120712 
L 312.455369 199.817532 
L 315.70116 192.514353 
L 318.603384 185.576332 
L 321.623145 179.36863 
L 324.859894 173.891245 
L 327.870613 168.41386 
L 331.044074 164.031953 
L 333.792598 158.554568 
L 336.667699 153.077183 
L 339.569924 147.599798 
L 342.897085 142.487573 
L 345.844516 138.105665 
L 348.647288 133.723757 
L 351.847872 128.976691 
L 354.741056 124.594783 
L 357.959722 120.212875 
L 360.898112 116.561285 
L 363.82746 112.909695 
L 366.711603 109.258106 
L 369.939311 105.971675 
L 372.904824 102.320085 
L 375.752801 99.398813 
L 378.962427 96.477541 
L 381.900816 93.921429 
L 384.775918 91.730475 
L 388.021708 89.174362 
L 390.914892 86.983408 
L 393.817116 84.792454 
L 397.071948 83.331818 
L 399.983214 83.331818 
L 403.165716 84.427295 
L 406.095064 86.25309 
L 409.322772 86.618249 
L 412.586645 85.522772 
L 415.11818 84.792454 
L 418.291641 85.157613 
L 420.940712 85.522772 
L 424.177462 85.522772 
L 427.097769 85.157613 
L 429.981911 85.522772 
L 433.227701 85.887931 
L 436.138967 85.522772 
L 439.565582 85.522772 
L 442.259859 85.887931 
L 445.189207 85.887931 
L 448.07335 85.522772 
L 451.292016 85.887931 
L 454.239447 85.887931 
L 457.132631 85.887931 
L 460.333215 85.887931 
L 463.253522 85.522772 
L 466.137665 85.887931 
L 469.428661 85.887931 
L 472.321845 85.887931 
L 475.205987 85.887931 
L 478.424654 85.887931 
L 481.33592 85.887931 
L 484.274309 85.887931 
L 487.474894 85.887931 
L 490.359036 85.887931 
L 493.315508 85.887931 
" style="fill:none;stroke:#000000;stroke-linecap:square;stroke-width:1.5;"/>
   </g>
   <g id="patch_3">
    <path d="M 180 472.5 
L 180 64.8 
" style="fill:none;stroke:#000000;stroke-linecap:square;stroke-linejoin:miter;stroke-width:0.8;"/>
   </g>
   <g id="patch_4">
    <path d="M 508.235294 472.5 
L 508.235294 64.8 
" style="fill:none;stroke:#000000;stroke-linecap:square;stroke-linejoin:miter;stroke-width:0.8;"/>
   </g>
   <g id="patch_5">
    <path d="M 180 472.5 
L 508.235294 472.5 
" style="fill:none;stroke:#000000;stroke-linecap:square;stroke-linejoin:miter;stroke-width:0.8;"/>
   </g>
   <g id="patch_6">
    <path d="M 180 64.8 
L 508.235294 64.8 
" style="fill:none;stroke:#000000;stroke-linecap:square;stroke-linejoin:miter;stroke-width:0.8;"/>
   </g>
   <g id="text_15">
    <!-- $x$-Position (cm) vs Time (s) -->
    <defs>
     <path d="M 47.40625 41 
C 44.203125 40.390625 43 37.984375 43 36.09375 
C 43 33.6875 44.90625 32.890625 46.296875 32.890625 
C 49.296875 32.890625 51.40625 35.484375 51.40625 38.1875 
C 51.40625 42.09375 46.59375 44 42.40625 44 
C 36.296875 44 32.90625 38.296875 32 36.390625 
C 29.703125 43.59375 23.5 44 21.703125 44 
C 11.5 44 6.09375 31.140625 6.09375 28.890625 
C 6.09375 28.484375 6.5 27.96875 7.203125 27.96875 
C 8 27.96875 8.203125 28.578125 8.40625 28.984375 
C 11.796875 40.1875 18.5 41.984375 21.40625 41.984375 
C 25.90625 41.984375 26.796875 38.09375 26.796875 35.6875 
C 26.796875 33.484375 26.203125 31.140625 25 26.21875 
L 21.59375 12.15625 
C 20.09375 6.09375 17.203125 1 11.90625 1 
C 11.40625 1 8.90625 1 6.796875 1.96875 
C 10.40625 2.59375 11.203125 5.59375 11.203125 6.796875 
C 11.203125 8.796875 9.703125 10 7.796875 10 
C 5.40625 10 2.796875 7.890625 2.796875 4.6875 
C 2.796875 0.890625 7.5 -1 11.796875 -1 
C 16.59375 -1 20 2.390625 22.09375 6.484375 
C 23.703125 1 28.703125 -1 32.40625 -1 
C 42.59375 -1 48 11.734375 48 14 
C 48 14.515625 47.59375 14.921875 47 14.921875 
C 46.09375 14.921875 46 14.40625 45.703125 13.59375 
C 43 4.6875 37.203125 1 32.703125 1 
C 29.203125 1 27.296875 3.1875 27.296875 7.296875 
C 27.296875 9.484375 27.703125 11.125 29.296875 17.90625 
L 32.796875 31.859375 
C 34.296875 37.890625 37.703125 41.984375 42.296875 41.984375 
C 42.5 41.984375 45.296875 41.984375 47.40625 41 
z
" id="CMMI12-120"/>
     <path d="M 25.5 19.59375 
L 25.5 24 
L 0.40625 24 
L 0.40625 19.59375 
z
" id="CMR17-45"/>
     <path d="M 39.09375 33.953125 
C 40 36.171875 41.59375 40.1875 47.40625 40.390625 
L 47.40625 43 
C 45.5 42.890625 43 42.796875 41.09375 42.796875 
C 39 42.796875 35.703125 42.796875 33.703125 43 
L 33.703125 40.390625 
C 36.203125 40.1875 37.59375 38.984375 37.59375 36.375 
C 37.59375 35.46875 37.59375 35.265625 37 33.859375 
L 26 5.921875 
L 14.09375 36.0625 
C 13.5 37.375 13.5 37.578125 13.5 37.984375 
C 13.5 40.390625 16.796875 40.390625 18.296875 40.390625 
L 18.296875 43 
C 15.90625 42.796875 11.5 42.796875 9 42.796875 
C 6.296875 42.796875 3.203125 42.796875 1 43 
L 1 40.390625 
C 4.796875 40.390625 6.90625 40.390625 8.09375 37.28125 
L 22.59375 0.6875 
C 23.203125 -0.8125 23.296875 -1 24.203125 -1 
C 25.09375 -1 25.203125 -0.8125 25.796875 0.6875 
z
" id="CMR17-118"/>
    </defs>
    <g transform="translate(248.832883 58.8)scale(0.16 -0.16)">
     <use transform="scale(0.996264)" xlink:href="#CMMI12-120"/>
     <use transform="translate(55.43406 0)scale(0.996264)" xlink:href="#CMR17-45"/>
     <use transform="translate(85.510026 0)scale(0.996264)" xlink:href="#CMR17-80"/>
     <use transform="translate(145.493872 0)scale(0.996264)" xlink:href="#CMR17-111"/>
     <use transform="translate(191.18435 0)scale(0.996264)" xlink:href="#CMR17-115"/>
     <use transform="translate(226.985687 0)scale(0.996264)" xlink:href="#CMR17-105"/>
     <use transform="translate(251.856746 0)scale(0.996264)" xlink:href="#CMR17-116"/>
     <use transform="translate(287.137513 0)scale(0.996264)" xlink:href="#CMR17-105"/>
     <use transform="translate(312.008572 0)scale(0.996264)" xlink:href="#CMR17-111"/>
     <use transform="translate(357.699049 0)scale(0.996264)" xlink:href="#CMR17-110"/>
     <use transform="translate(438.670385 0)scale(0.996264)" xlink:href="#CMR17-40"/>
     <use transform="translate(473.951153 0)scale(0.996264)" xlink:href="#CMR17-99"/>
     <use transform="translate(514.436813 0)scale(0.996264)" xlink:href="#CMR17-109"/>
     <use transform="translate(591.356403 0)scale(0.996264)" xlink:href="#CMR17-41"/>
     <use transform="translate(656.713138 0)scale(0.996264)" xlink:href="#CMR17-118"/>
     <use transform="translate(705.006053 0)scale(0.996264)" xlink:href="#CMR17-115"/>
     <use transform="translate(770.883357 0)scale(0.996264)" xlink:href="#CMR17-84"/>
     <use transform="translate(837.393238 0)scale(0.996264)" xlink:href="#CMR17-105"/>
     <use transform="translate(862.264296 0)scale(0.996264)" xlink:href="#CMR17-109"/>
     <use transform="translate(939.183886 0)scale(0.996264)" xlink:href="#CMR17-101"/>
     <use transform="translate(1009.745513 0)scale(0.996264)" xlink:href="#CMR17-40"/>
     <use transform="translate(1045.026281 0)scale(0.996264)" xlink:href="#CMR17-115"/>
     <use transform="translate(1080.827618 0)scale(0.996264)" xlink:href="#CMR17-41"/>
    </g>
   </g>
  </g>
  <g id="axes_2">
   <g id="patch_7">
    <path d="M 573.882353 472.5 
L 902.117647 472.5 
L 902.117647 64.8 
L 573.882353 64.8 
z
" style="fill:#ffffff;"/>
   </g>
   <g id="matplotlib.axis_3">
    <g id="xtick_8">
     <g id="line2d_14">
      <g>
       <use style="stroke:#000000;stroke-width:0.8;" x="607.309473" xlink:href="#m339455fca8" y="472.5"/>
      </g>
     </g>
     <g id="text_16">
      <!-- $11.0$ -->
      <g transform="translate(598.453766 486.418498)scale(0.1 -0.1)">
       <use transform="scale(0.996264)" xlink:href="#CMR17-49"/>
       <use transform="translate(45.690477 0)scale(0.996264)" xlink:href="#CMR17-49"/>
       <use transform="translate(91.380954 0)scale(0.996264)" xlink:href="#CMMI12-58"/>
       <use transform="translate(118.478131 0)scale(0.996264)" xlink:href="#CMR17-48"/>
      </g>
     </g>
    </g>
    <g id="xtick_9">
     <g id="line2d_15">
      <g>
       <use style="stroke:#000000;stroke-width:0.8;" x="652.515466" xlink:href="#m339455fca8" y="472.5"/>
      </g>
     </g>
     <g id="text_17">
      <!-- $11.5$ -->
      <g transform="translate(643.659759 486.418498)scale(0.1 -0.1)">
       <use transform="scale(0.996264)" xlink:href="#CMR17-49"/>
       <use transform="translate(45.690477 0)scale(0.996264)" xlink:href="#CMR17-49"/>
       <use transform="translate(91.380954 0)scale(0.996264)" xlink:href="#CMMI12-58"/>
       <use transform="translate(118.478131 0)scale(0.996264)" xlink:href="#CMR17-53"/>
      </g>
     </g>
    </g>
    <g id="xtick_10">
     <g id="line2d_16">
      <g>
       <use style="stroke:#000000;stroke-width:0.8;" x="697.72146" xlink:href="#m339455fca8" y="472.5"/>
      </g>
     </g>
     <g id="text_18">
      <!-- $12.0$ -->
      <g transform="translate(688.865753 486.418498)scale(0.1 -0.1)">
       <use transform="scale(0.996264)" xlink:href="#CMR17-49"/>
       <use transform="translate(45.690477 0)scale(0.996264)" xlink:href="#CMR17-50"/>
       <use transform="translate(91.380954 0)scale(0.996264)" xlink:href="#CMMI12-58"/>
       <use transform="translate(118.478131 0)scale(0.996264)" xlink:href="#CMR17-48"/>
      </g>
     </g>
    </g>
    <g id="xtick_11">
     <g id="line2d_17">
      <g>
       <use style="stroke:#000000;stroke-width:0.8;" x="742.927453" xlink:href="#m339455fca8" y="472.5"/>
      </g>
     </g>
     <g id="text_19">
      <!-- $12.5$ -->
      <g transform="translate(734.071746 486.418498)scale(0.1 -0.1)">
       <use transform="scale(0.996264)" xlink:href="#CMR17-49"/>
       <use transform="translate(45.690477 0)scale(0.996264)" xlink:href="#CMR17-50"/>
       <use transform="translate(91.380954 0)scale(0.996264)" xlink:href="#CMMI12-58"/>
       <use transform="translate(118.478131 0)scale(0.996264)" xlink:href="#CMR17-53"/>
      </g>
     </g>
    </g>
    <g id="xtick_12">
     <g id="line2d_18">
      <g>
       <use style="stroke:#000000;stroke-width:0.8;" x="788.133447" xlink:href="#m339455fca8" y="472.5"/>
      </g>
     </g>
     <g id="text_20">
      <!-- $13.0$ -->
      <g transform="translate(779.27774 486.418498)scale(0.1 -0.1)">
       <use transform="scale(0.996264)" xlink:href="#CMR17-49"/>
       <use transform="translate(45.690477 0)scale(0.996264)" xlink:href="#CMR17-51"/>
       <use transform="translate(91.380954 0)scale(0.996264)" xlink:href="#CMMI12-58"/>
       <use transform="translate(118.478131 0)scale(0.996264)" xlink:href="#CMR17-48"/>
      </g>
     </g>
    </g>
    <g id="xtick_13">
     <g id="line2d_19">
      <g>
       <use style="stroke:#000000;stroke-width:0.8;" x="833.33944" xlink:href="#m339455fca8" y="472.5"/>
      </g>
     </g>
     <g id="text_21">
      <!-- $13.5$ -->
      <g transform="translate(824.483733 486.418498)scale(0.1 -0.1)">
       <use transform="scale(0.996264)" xlink:href="#CMR17-49"/>
       <use transform="translate(45.690477 0)scale(0.996264)" xlink:href="#CMR17-51"/>
       <use transform="translate(91.380954 0)scale(0.996264)" xlink:href="#CMMI12-58"/>
       <use transform="translate(118.478131 0)scale(0.996264)" xlink:href="#CMR17-53"/>
      </g>
     </g>
    </g>
    <g id="xtick_14">
     <g id="line2d_20">
      <g>
       <use style="stroke:#000000;stroke-width:0.8;" x="878.545434" xlink:href="#m339455fca8" y="472.5"/>
      </g>
     </g>
     <g id="text_22">
      <!-- $14.0$ -->
      <g transform="translate(869.689727 486.418498)scale(0.1 -0.1)">
       <use transform="scale(0.996264)" xlink:href="#CMR17-49"/>
       <use transform="translate(45.690477 0)scale(0.996264)" xlink:href="#CMR17-52"/>
       <use transform="translate(91.380954 0)scale(0.996264)" xlink:href="#CMMI12-58"/>
       <use transform="translate(118.478131 0)scale(0.996264)" xlink:href="#CMR17-48"/>
      </g>
     </g>
    </g>
    <g id="text_23">
     <!-- Time (s) -->
     <g transform="translate(708.474916 504.310845)scale(0.16 -0.16)">
      <use transform="scale(0.996264)" xlink:href="#CMR17-84"/>
      <use transform="translate(66.509881 0)scale(0.996264)" xlink:href="#CMR17-105"/>
      <use transform="translate(91.380939 0)scale(0.996264)" xlink:href="#CMR17-109"/>
      <use transform="translate(168.300529 0)scale(0.996264)" xlink:href="#CMR17-101"/>
      <use transform="translate(238.862156 0)scale(0.996264)" xlink:href="#CMR17-40"/>
      <use transform="translate(274.142924 0)scale(0.996264)" xlink:href="#CMR17-115"/>
      <use transform="translate(309.944261 0)scale(0.996264)" xlink:href="#CMR17-41"/>
     </g>
    </g>
   </g>
   <g id="matplotlib.axis_4">
    <g id="ytick_6">
     <g id="line2d_21">
      <g>
       <use style="stroke:#000000;stroke-width:0.8;" x="573.882353" xlink:href="#m9360e35ee8" y="442.876726"/>
      </g>
     </g>
     <g id="text_24">
      <!-- $0$ -->
      <g transform="translate(561.901018 446.335975)scale(0.1 -0.1)">
       <use transform="scale(0.996264)" xlink:href="#CMR17-48"/>
      </g>
     </g>
    </g>
    <g id="ytick_7">
     <g id="line2d_22">
      <g>
       <use style="stroke:#000000;stroke-width:0.8;" x="573.882353" xlink:href="#m9360e35ee8" y="380.935085"/>
      </g>
     </g>
     <g id="text_25">
      <!-- $10$ -->
      <g transform="translate(556.919682 384.394335)scale(0.1 -0.1)">
       <use transform="scale(0.996264)" xlink:href="#CMR17-49"/>
       <use transform="translate(45.690477 0)scale(0.996264)" xlink:href="#CMR17-48"/>
      </g>
     </g>
    </g>
    <g id="ytick_8">
     <g id="line2d_23">
      <g>
       <use style="stroke:#000000;stroke-width:0.8;" x="573.882353" xlink:href="#m9360e35ee8" y="318.993445"/>
      </g>
     </g>
     <g id="text_26">
      <!-- $20$ -->
      <g transform="translate(556.919682 322.452694)scale(0.1 -0.1)">
       <use transform="scale(0.996264)" xlink:href="#CMR17-50"/>
       <use transform="translate(45.690477 0)scale(0.996264)" xlink:href="#CMR17-48"/>
      </g>
     </g>
    </g>
    <g id="ytick_9">
     <g id="line2d_24">
      <g>
       <use style="stroke:#000000;stroke-width:0.8;" x="573.882353" xlink:href="#m9360e35ee8" y="257.051805"/>
      </g>
     </g>
     <g id="text_27">
      <!-- $30$ -->
      <g transform="translate(556.919682 260.511054)scale(0.1 -0.1)">
       <use transform="scale(0.996264)" xlink:href="#CMR17-51"/>
       <use transform="translate(45.690477 0)scale(0.996264)" xlink:href="#CMR17-48"/>
      </g>
     </g>
    </g>
    <g id="ytick_10">
     <g id="line2d_25">
      <g>
       <use style="stroke:#000000;stroke-width:0.8;" x="573.882353" xlink:href="#m9360e35ee8" y="195.110164"/>
      </g>
     </g>
     <g id="text_28">
      <!-- $40$ -->
      <g transform="translate(556.919682 198.569414)scale(0.1 -0.1)">
       <use transform="scale(0.996264)" xlink:href="#CMR17-52"/>
       <use transform="translate(45.690477 0)scale(0.996264)" xlink:href="#CMR17-48"/>
      </g>
     </g>
    </g>
    <g id="ytick_11">
     <g id="line2d_26">
      <g>
       <use style="stroke:#000000;stroke-width:0.8;" x="573.882353" xlink:href="#m9360e35ee8" y="133.168524"/>
      </g>
     </g>
     <g id="text_29">
      <!-- $50$ -->
      <g transform="translate(556.919682 136.627773)scale(0.1 -0.1)">
       <use transform="scale(0.996264)" xlink:href="#CMR17-53"/>
       <use transform="translate(45.690477 0)scale(0.996264)" xlink:href="#CMR17-48"/>
      </g>
     </g>
    </g>
    <g id="ytick_12">
     <g id="line2d_27">
      <g>
       <use style="stroke:#000000;stroke-width:0.8;" x="573.882353" xlink:href="#m9360e35ee8" y="71.226884"/>
      </g>
     </g>
     <g id="text_30">
      <!-- $60$ -->
      <g transform="translate(556.919682 74.686133)scale(0.1 -0.1)">
       <use transform="scale(0.996264)" xlink:href="#CMR17-54"/>
       <use transform="translate(45.690477 0)scale(0.996264)" xlink:href="#CMR17-48"/>
      </g>
     </g>
    </g>
    <g id="text_31">
     <!-- Velocity (cm/s) -->
     <defs>
      <path d="M 59 58.78125 
C 59.90625 60.984375 61.5 65.296875 68.203125 65.390625 
L 68.203125 68 
C 65.90625 67.796875 63.296875 67.796875 60.796875 67.796875 
C 58.40625 67.796875 54.296875 67.796875 52 68 
L 52 65.390625 
C 57 65.09375 57.203125 61.59375 57.203125 60.984375 
C 57.203125 59.890625 56.90625 59.1875 56.59375 58.390625 
L 36.90625 7 
L 16.296875 60.984375 
C 16 61.6875 15.796875 62.1875 15.796875 62.6875 
C 15.796875 65.390625 19.796875 65.390625 21.90625 65.390625 
L 21.90625 68 
C 18.703125 67.796875 14 67.796875 10.703125 67.796875 
C 8.09375 67.796875 3.40625 67.796875 1 68 
L 1 65.390625 
C 6.796875 65.390625 7.90625 65 9.09375 61.796875 
L 32.90625 -0.40625 
C 33.40625 -1.8125 33.5 -2 34.59375 -2 
C 35.703125 -2 35.796875 -1.8125 36.296875 -0.40625 
z
" id="CMR17-86"/>
      <path d="M 15.296875 69 
L 3.40625 67.890625 
L 3.40625 65.296875 
C 9.296875 65.296875 10.203125 64.703125 10.203125 59.921875 
L 10.203125 6.859375 
C 10.203125 3.09375 9.796875 2.59375 3.40625 2.59375 
L 3.40625 0 
C 5.796875 0.1875 10.203125 0.1875 12.703125 0.1875 
C 15.296875 0.1875 19.703125 0.1875 22.09375 0 
L 22.09375 2.59375 
C 15.703125 2.59375 15.296875 2.984375 15.296875 6.859375 
z
" id="CMR17-108"/>
      <path d="M 39 34.109375 
C 41.5 40.296875 46 40.390625 47.40625 40.390625 
L 47.40625 43 
C 45.5 42.890625 43 42.796875 41.09375 42.796875 
C 39 42.796875 35.703125 42.796875 33.703125 43 
L 33.703125 40.390625 
C 37.5 40.09375 37.59375 37.25 37.59375 36.4375 
C 37.59375 35.4375 37.40625 34.921875 36.90625 33.71875 
L 26 6.390625 
L 14.09375 35.9375 
C 13.59375 37.15625 13.59375 37.859375 13.59375 37.96875 
C 13.59375 40.1875 15.90625 40.390625 18.296875 40.390625 
L 18.296875 43 
C 15.90625 42.796875 11.59375 42.796875 9.09375 42.796875 
C 6.40625 42.796875 3.203125 42.796875 1 43 
L 1 40.390625 
C 6.40625 40.390625 7 39.890625 8.296875 36.640625 
L 23.203125 -0.484375 
C 18.703125 -12.421875 16.09375 -19.40625 9.796875 -19.40625 
C 8.703125 -19.40625 6.203125 -19.109375 4.40625 -17.28125 
C 6.703125 -17.078125 7.703125 -15.65625 7.703125 -13.9375 
C 7.703125 -12.21875 6.5 -10.703125 4.5 -10.703125 
C 2.296875 -10.703125 1.203125 -12.21875 1.203125 -14.046875 
C 1.203125 -18.09375 5.296875 -21 9.796875 -21 
C 15.59375 -21 19.203125 -15.359375 21.203125 -10.296875 
z
" id="CMR17-121"/>
      <path d="M 40.703125 71.484375 
C 41.203125 72.78125 41.203125 72.984375 41.203125 73.1875 
C 41.203125 74.390625 40.296875 75 39.5 75 
C 38.296875 75 37.90625 74.1875 37.5 72.984375 
L 5.09375 -21.5 
C 4.59375 -22.8125 4.59375 -23 4.59375 -23.203125 
C 4.59375 -24.40625 5.5 -25 6.296875 -25 
C 7.5 -25 7.90625 -24.203125 8.296875 -23 
z
" id="CMR17-47"/>
     </defs>
     <g transform="translate(548.934626 321.801063)rotate(-90)scale(0.16 -0.16)">
      <use transform="scale(0.996264)" xlink:href="#CMR17-86"/>
      <use transform="translate(61.265174 0)scale(0.996264)" xlink:href="#CMR17-101"/>
      <use transform="translate(101.750835 0)scale(0.996264)" xlink:href="#CMR17-108"/>
      <use transform="translate(126.621893 0)scale(0.996264)" xlink:href="#CMR17-111"/>
      <use transform="translate(174.914809 0)scale(0.996264)" xlink:href="#CMR17-99"/>
      <use transform="translate(215.40047 0)scale(0.996264)" xlink:href="#CMR17-105"/>
      <use transform="translate(240.271528 0)scale(0.996264)" xlink:href="#CMR17-116"/>
      <use transform="translate(272.949842 0)scale(0.996264)" xlink:href="#CMR17-121"/>
      <use transform="translate(351.318724 0)scale(0.996264)" xlink:href="#CMR17-40"/>
      <use transform="translate(386.599492 0)scale(0.996264)" xlink:href="#CMR17-99"/>
      <use transform="translate(427.085152 0)scale(0.996264)" xlink:href="#CMR17-109"/>
      <use transform="translate(504.004742 0)scale(0.996264)" xlink:href="#CMR17-47"/>
      <use transform="translate(549.695219 0)scale(0.996264)" xlink:href="#CMR17-115"/>
      <use transform="translate(585.496557 0)scale(0.996264)" xlink:href="#CMR17-41"/>
     </g>
    </g>
   </g>
   <g id="line2d_28">
    <path clip-path="url(#p364aee5650)" d="M 588.802139 325.112023 
L 592.047929 284.86715 
L 594.923031 305.651343 
L 597.852379 279.532491 
L 601.098169 287.287576 
L 604.036559 267.32515 
L 606.866454 252.194641 
L 610.103203 273.063683 
L 613.02351 244.098561 
L 615.934776 244.860131 
L 619.20769 222.187147 
L 622.055668 219.429031 
L 624.966934 209.654576 
L 628.194642 193.662901 
L 631.087825 188.252354 
L 634.017174 175.823574 
L 637.217758 157.006947 
L 640.210395 149.568697 
L 643.130702 149.575504 
L 646.277039 137.651851 
L 649.197346 118.075525 
L 652.262313 111.825309 
L 655.345361 114.199442 
L 658.220463 98.932305 
L 661.122687 83.331818 
L 664.359437 86.774971 
L 667.261661 94.073532 
L 670.172927 99.661626 
L 673.427759 102.061504 
L 676.293819 117.061868 
L 679.521527 121.948859 
L 682.450875 126.21807 
L 685.362141 129.969696 
L 688.246284 136.581181 
L 691.473991 142.105374 
L 694.412381 153.467601 
L 697.314606 157.138475 
L 700.551355 159.890645 
L 703.562074 163.807603 
L 706.337722 166.13856 
L 709.583512 175.907299 
L 712.485737 177.280683 
L 715.505498 202.754872 
L 718.742247 210.227559 
L 721.752966 219.779984 
L 724.926427 221.165243 
L 727.674951 226.692856 
L 730.550052 233.151008 
L 733.452277 227.483078 
L 736.779438 239.682279 
L 739.726869 247.361355 
L 742.529641 257.78731 
L 745.730225 263.899541 
L 748.623408 268.553022 
L 751.842075 275.43079 
L 754.780465 284.955473 
L 757.709813 290.573113 
L 760.593956 297.262679 
L 763.821663 304.805874 
L 766.787177 312.518614 
L 769.635154 322.395526 
L 772.84478 327.441277 
L 775.783169 337.091447 
L 778.658271 342.440542 
L 781.904061 352.728966 
L 784.797244 370.003985 
L 787.699469 392.040407 
L 790.954301 422.982264 
L 793.865567 439.032038 
L 797.048069 447.635012 
L 799.977417 452.929381 
L 803.205125 453.968182 
L 806.468998 449.664437 
L 809.000533 437.800215 
L 812.173994 432.855863 
L 814.823065 442.876726 
L 818.059814 450.387372 
L 820.980122 445.351828 
L 823.864264 442.876726 
L 827.110054 445.379852 
L 830.02132 447.890496 
L 833.447935 442.876726 
L 836.142212 442.876726 
L 839.07156 445.382358 
L 841.955703 445.301272 
L 845.174369 442.876726 
L 848.1218 440.356005 
L 851.014984 445.37234 
L 854.215568 442.876726 
L 857.135875 442.846628 
L 860.020018 442.876726 
L 863.311014 442.876726 
L 866.204198 445.369859 
L 869.08834 442.876726 
L 872.307007 442.876726 
L 875.218273 442.876726 
L 878.156662 442.876726 
L 881.357247 442.876726 
L 884.241389 442.876726 
L 887.197861 442.876726 
" style="fill:none;stroke:#0000ff;stroke-linecap:square;stroke-width:1.5;"/>
   </g>
   <g id="patch_8">
    <path d="M 573.882353 472.5 
L 573.882353 64.8 
" style="fill:none;stroke:#000000;stroke-linecap:square;stroke-linejoin:miter;stroke-width:0.8;"/>
   </g>
   <g id="patch_9">
    <path d="M 902.117647 472.5 
L 902.117647 64.8 
" style="fill:none;stroke:#000000;stroke-linecap:square;stroke-linejoin:miter;stroke-width:0.8;"/>
   </g>
   <g id="patch_10">
    <path d="M 573.882353 472.5 
L 902.117647 472.5 
" style="fill:none;stroke:#000000;stroke-linecap:square;stroke-linejoin:miter;stroke-width:0.8;"/>
   </g>
   <g id="patch_11">
    <path d="M 573.882353 64.8 
L 902.117647 64.8 
" style="fill:none;stroke:#000000;stroke-linecap:square;stroke-linejoin:miter;stroke-width:0.8;"/>
   </g>
   <g id="text_32">
    <!-- $x$-Velocity (cm/s) vs Time (s) -->
    <g transform="translate(635.88813 58.8)scale(0.16 -0.16)">
     <use transform="scale(0.996264)" xlink:href="#CMMI12-120"/>
     <use transform="translate(55.43406 0)scale(0.996264)" xlink:href="#CMR17-45"/>
     <use transform="translate(85.510026 0)scale(0.996264)" xlink:href="#CMR17-86"/>
     <use transform="translate(146.7752 0)scale(0.996264)" xlink:href="#CMR17-101"/>
     <use transform="translate(187.260861 0)scale(0.996264)" xlink:href="#CMR17-108"/>
     <use transform="translate(212.131919 0)scale(0.996264)" xlink:href="#CMR17-111"/>
     <use transform="translate(260.424835 0)scale(0.996264)" xlink:href="#CMR17-99"/>
     <use transform="translate(300.910496 0)scale(0.996264)" xlink:href="#CMR17-105"/>
     <use transform="translate(325.781554 0)scale(0.996264)" xlink:href="#CMR17-116"/>
     <use transform="translate(358.459868 0)scale(0.996264)" xlink:href="#CMR17-121"/>
     <use transform="translate(436.82875 0)scale(0.996264)" xlink:href="#CMR17-40"/>
     <use transform="translate(472.109518 0)scale(0.996264)" xlink:href="#CMR17-99"/>
     <use transform="translate(512.595178 0)scale(0.996264)" xlink:href="#CMR17-109"/>
     <use transform="translate(589.514768 0)scale(0.996264)" xlink:href="#CMR17-47"/>
     <use transform="translate(635.205245 0)scale(0.996264)" xlink:href="#CMR17-115"/>
     <use transform="translate(671.006583 0)scale(0.996264)" xlink:href="#CMR17-41"/>
     <use transform="translate(736.363317 0)scale(0.996264)" xlink:href="#CMR17-118"/>
     <use transform="translate(784.656233 0)scale(0.996264)" xlink:href="#CMR17-115"/>
     <use transform="translate(850.533537 0)scale(0.996264)" xlink:href="#CMR17-84"/>
     <use transform="translate(917.043418 0)scale(0.996264)" xlink:href="#CMR17-105"/>
     <use transform="translate(941.914476 0)scale(0.996264)" xlink:href="#CMR17-109"/>
     <use transform="translate(1018.834066 0)scale(0.996264)" xlink:href="#CMR17-101"/>
     <use transform="translate(1089.395693 0)scale(0.996264)" xlink:href="#CMR17-40"/>
     <use transform="translate(1124.67646 0)scale(0.996264)" xlink:href="#CMR17-115"/>
     <use transform="translate(1160.477798 0)scale(0.996264)" xlink:href="#CMR17-41"/>
    </g>
   </g>
  </g>
  <g id="axes_3">
   <g id="patch_12">
    <path d="M 967.764706 472.5 
L 1296 472.5 
L 1296 64.8 
L 967.764706 64.8 
z
" style="fill:#ffffff;"/>
   </g>
   <g id="matplotlib.axis_5">
    <g id="xtick_15">
     <g id="line2d_29">
      <g>
       <use style="stroke:#000000;stroke-width:0.8;" x="1001.191826" xlink:href="#m339455fca8" y="472.5"/>
      </g>
     </g>
     <g id="text_33">
      <!-- $11.0$ -->
      <g transform="translate(992.336119 486.418498)scale(0.1 -0.1)">
       <use transform="scale(0.996264)" xlink:href="#CMR17-49"/>
       <use transform="translate(45.690477 0)scale(0.996264)" xlink:href="#CMR17-49"/>
       <use transform="translate(91.380954 0)scale(0.996264)" xlink:href="#CMMI12-58"/>
       <use transform="translate(118.478131 0)scale(0.996264)" xlink:href="#CMR17-48"/>
      </g>
     </g>
    </g>
    <g id="xtick_16">
     <g id="line2d_30">
      <g>
       <use style="stroke:#000000;stroke-width:0.8;" x="1046.397819" xlink:href="#m339455fca8" y="472.5"/>
      </g>
     </g>
     <g id="text_34">
      <!-- $11.5$ -->
      <g transform="translate(1037.542112 486.418498)scale(0.1 -0.1)">
       <use transform="scale(0.996264)" xlink:href="#CMR17-49"/>
       <use transform="translate(45.690477 0)scale(0.996264)" xlink:href="#CMR17-49"/>
       <use transform="translate(91.380954 0)scale(0.996264)" xlink:href="#CMMI12-58"/>
       <use transform="translate(118.478131 0)scale(0.996264)" xlink:href="#CMR17-53"/>
      </g>
     </g>
    </g>
    <g id="xtick_17">
     <g id="line2d_31">
      <g>
       <use style="stroke:#000000;stroke-width:0.8;" x="1091.603813" xlink:href="#m339455fca8" y="472.5"/>
      </g>
     </g>
     <g id="text_35">
      <!-- $12.0$ -->
      <g transform="translate(1082.748106 486.418498)scale(0.1 -0.1)">
       <use transform="scale(0.996264)" xlink:href="#CMR17-49"/>
       <use transform="translate(45.690477 0)scale(0.996264)" xlink:href="#CMR17-50"/>
       <use transform="translate(91.380954 0)scale(0.996264)" xlink:href="#CMMI12-58"/>
       <use transform="translate(118.478131 0)scale(0.996264)" xlink:href="#CMR17-48"/>
      </g>
     </g>
    </g>
    <g id="xtick_18">
     <g id="line2d_32">
      <g>
       <use style="stroke:#000000;stroke-width:0.8;" x="1136.809806" xlink:href="#m339455fca8" y="472.5"/>
      </g>
     </g>
     <g id="text_36">
      <!-- $12.5$ -->
      <g transform="translate(1127.954099 486.418498)scale(0.1 -0.1)">
       <use transform="scale(0.996264)" xlink:href="#CMR17-49"/>
       <use transform="translate(45.690477 0)scale(0.996264)" xlink:href="#CMR17-50"/>
       <use transform="translate(91.380954 0)scale(0.996264)" xlink:href="#CMMI12-58"/>
       <use transform="translate(118.478131 0)scale(0.996264)" xlink:href="#CMR17-53"/>
      </g>
     </g>
    </g>
    <g id="xtick_19">
     <g id="line2d_33">
      <g>
       <use style="stroke:#000000;stroke-width:0.8;" x="1182.0158" xlink:href="#m339455fca8" y="472.5"/>
      </g>
     </g>
     <g id="text_37">
      <!-- $13.0$ -->
      <g transform="translate(1173.160093 486.418498)scale(0.1 -0.1)">
       <use transform="scale(0.996264)" xlink:href="#CMR17-49"/>
       <use transform="translate(45.690477 0)scale(0.996264)" xlink:href="#CMR17-51"/>
       <use transform="translate(91.380954 0)scale(0.996264)" xlink:href="#CMMI12-58"/>
       <use transform="translate(118.478131 0)scale(0.996264)" xlink:href="#CMR17-48"/>
      </g>
     </g>
    </g>
    <g id="xtick_20">
     <g id="line2d_34">
      <g>
       <use style="stroke:#000000;stroke-width:0.8;" x="1227.221793" xlink:href="#m339455fca8" y="472.5"/>
      </g>
     </g>
     <g id="text_38">
      <!-- $13.5$ -->
      <g transform="translate(1218.366086 486.418498)scale(0.1 -0.1)">
       <use transform="scale(0.996264)" xlink:href="#CMR17-49"/>
       <use transform="translate(45.690477 0)scale(0.996264)" xlink:href="#CMR17-51"/>
       <use transform="translate(91.380954 0)scale(0.996264)" xlink:href="#CMMI12-58"/>
       <use transform="translate(118.478131 0)scale(0.996264)" xlink:href="#CMR17-53"/>
      </g>
     </g>
    </g>
    <g id="xtick_21">
     <g id="line2d_35">
      <g>
       <use style="stroke:#000000;stroke-width:0.8;" x="1272.427787" xlink:href="#m339455fca8" y="472.5"/>
      </g>
     </g>
     <g id="text_39">
      <!-- $14.0$ -->
      <g transform="translate(1263.57208 486.418498)scale(0.1 -0.1)">
       <use transform="scale(0.996264)" xlink:href="#CMR17-49"/>
       <use transform="translate(45.690477 0)scale(0.996264)" xlink:href="#CMR17-52"/>
       <use transform="translate(91.380954 0)scale(0.996264)" xlink:href="#CMMI12-58"/>
       <use transform="translate(118.478131 0)scale(0.996264)" xlink:href="#CMR17-48"/>
      </g>
     </g>
    </g>
    <g id="text_40">
     <!-- Time (s) -->
     <g transform="translate(1102.357269 504.310845)scale(0.16 -0.16)">
      <use transform="scale(0.996264)" xlink:href="#CMR17-84"/>
      <use transform="translate(66.509881 0)scale(0.996264)" xlink:href="#CMR17-105"/>
      <use transform="translate(91.380939 0)scale(0.996264)" xlink:href="#CMR17-109"/>
      <use transform="translate(168.300529 0)scale(0.996264)" xlink:href="#CMR17-101"/>
      <use transform="translate(238.862156 0)scale(0.996264)" xlink:href="#CMR17-40"/>
      <use transform="translate(274.142924 0)scale(0.996264)" xlink:href="#CMR17-115"/>
      <use transform="translate(309.944261 0)scale(0.996264)" xlink:href="#CMR17-41"/>
     </g>
    </g>
   </g>
   <g id="matplotlib.axis_6">
    <g id="ytick_13">
     <g id="line2d_36">
      <g>
       <use style="stroke:#000000;stroke-width:0.8;" x="967.764706" xlink:href="#m9360e35ee8" y="460.066207"/>
      </g>
     </g>
     <g id="text_41">
      <!-- $-200$ -->
      <defs>
       <path d="M 65.90625 23 
C 67.59375 23 69.40625 23 69.40625 25 
C 69.40625 27 67.59375 27 65.90625 27 
L 11.796875 27 
C 10.09375 27 8.296875 27 8.296875 25 
C 8.296875 23 10.09375 23 11.796875 23 
z
" id="CMSY10-0"/>
      </defs>
      <g transform="translate(938.071956 463.525457)scale(0.1 -0.1)">
       <use transform="scale(0.996264)" xlink:href="#CMSY10-0"/>
       <use transform="translate(77.487468 0)scale(0.996264)" xlink:href="#CMR17-50"/>
       <use transform="translate(123.177945 0)scale(0.996264)" xlink:href="#CMR17-48"/>
       <use transform="translate(168.868422 0)scale(0.996264)" xlink:href="#CMR17-48"/>
      </g>
     </g>
    </g>
    <g id="ytick_14">
     <g id="line2d_37">
      <g>
       <use style="stroke:#000000;stroke-width:0.8;" x="967.764706" xlink:href="#m9360e35ee8" y="405.040172"/>
      </g>
     </g>
     <g id="text_42">
      <!-- $-150$ -->
      <g transform="translate(938.071956 408.499421)scale(0.1 -0.1)">
       <use transform="scale(0.996264)" xlink:href="#CMSY10-0"/>
       <use transform="translate(77.487468 0)scale(0.996264)" xlink:href="#CMR17-49"/>
       <use transform="translate(123.177945 0)scale(0.996264)" xlink:href="#CMR17-53"/>
       <use transform="translate(168.868422 0)scale(0.996264)" xlink:href="#CMR17-48"/>
      </g>
     </g>
    </g>
    <g id="ytick_15">
     <g id="line2d_38">
      <g>
       <use style="stroke:#000000;stroke-width:0.8;" x="967.764706" xlink:href="#m9360e35ee8" y="350.014136"/>
      </g>
     </g>
     <g id="text_43">
      <!-- $-100$ -->
      <g transform="translate(938.071956 353.473385)scale(0.1 -0.1)">
       <use transform="scale(0.996264)" xlink:href="#CMSY10-0"/>
       <use transform="translate(77.487468 0)scale(0.996264)" xlink:href="#CMR17-49"/>
       <use transform="translate(123.177945 0)scale(0.996264)" xlink:href="#CMR17-48"/>
       <use transform="translate(168.868422 0)scale(0.996264)" xlink:href="#CMR17-48"/>
      </g>
     </g>
    </g>
    <g id="ytick_16">
     <g id="line2d_39">
      <g>
       <use style="stroke:#000000;stroke-width:0.8;" x="967.764706" xlink:href="#m9360e35ee8" y="294.988101"/>
      </g>
     </g>
     <g id="text_44">
      <!-- $-50$ -->
      <g transform="translate(943.053292 298.44735)scale(0.1 -0.1)">
       <use transform="scale(0.996264)" xlink:href="#CMSY10-0"/>
       <use transform="translate(77.487468 0)scale(0.996264)" xlink:href="#CMR17-53"/>
       <use transform="translate(123.177945 0)scale(0.996264)" xlink:href="#CMR17-48"/>
      </g>
     </g>
    </g>
    <g id="ytick_17">
     <g id="line2d_40">
      <g>
       <use style="stroke:#000000;stroke-width:0.8;" x="967.764706" xlink:href="#m9360e35ee8" y="239.962065"/>
      </g>
     </g>
     <g id="text_45">
      <!-- $0$ -->
      <g transform="translate(955.783371 243.421314)scale(0.1 -0.1)">
       <use transform="scale(0.996264)" xlink:href="#CMR17-48"/>
      </g>
     </g>
    </g>
    <g id="ytick_18">
     <g id="line2d_41">
      <g>
       <use style="stroke:#000000;stroke-width:0.8;" x="967.764706" xlink:href="#m9360e35ee8" y="184.936029"/>
      </g>
     </g>
     <g id="text_46">
      <!-- $50$ -->
      <g transform="translate(950.802035 188.395279)scale(0.1 -0.1)">
       <use transform="scale(0.996264)" xlink:href="#CMR17-53"/>
       <use transform="translate(45.690477 0)scale(0.996264)" xlink:href="#CMR17-48"/>
      </g>
     </g>
    </g>
    <g id="ytick_19">
     <g id="line2d_42">
      <g>
       <use style="stroke:#000000;stroke-width:0.8;" x="967.764706" xlink:href="#m9360e35ee8" y="129.909994"/>
      </g>
     </g>
     <g id="text_47">
      <!-- $100$ -->
      <g transform="translate(945.8207 133.369243)scale(0.1 -0.1)">
       <use transform="scale(0.996264)" xlink:href="#CMR17-49"/>
       <use transform="translate(45.690477 0)scale(0.996264)" xlink:href="#CMR17-48"/>
       <use transform="translate(91.380954 0)scale(0.996264)" xlink:href="#CMR17-48"/>
      </g>
     </g>
    </g>
    <g id="ytick_20">
     <g id="line2d_43">
      <g>
       <use style="stroke:#000000;stroke-width:0.8;" x="967.764706" xlink:href="#m9360e35ee8" y="74.883958"/>
      </g>
     </g>
     <g id="text_48">
      <!-- $150$ -->
      <g transform="translate(945.8207 78.343207)scale(0.1 -0.1)">
       <use transform="scale(0.996264)" xlink:href="#CMR17-49"/>
       <use transform="translate(45.690477 0)scale(0.996264)" xlink:href="#CMR17-53"/>
       <use transform="translate(91.380954 0)scale(0.996264)" xlink:href="#CMR17-48"/>
      </g>
     </g>
    </g>
    <g id="text_49">
     <!-- Acceleration (cm/s$^2$) -->
     <defs>
      <path d="M 36.296875 69.390625 
C 35.796875 70.6875 35.59375 71 34.59375 71 
C 33.59375 71 33.40625 70.6875 32.90625 69.390625 
L 11.703125 9.0625 
C 9.796875 3.6875 5.796875 2.59375 2.296875 2.59375 
L 2.296875 0 
C 4.09375 0.1875 8.09375 0.1875 10 0.1875 
C 12.5 0.1875 16.5 0.1875 18.90625 0 
L 18.90625 2.59375 
C 14.203125 2.796875 13.5 5.96875 13.5 7.171875 
C 13.5 8.0625 13.703125 8.5625 13.90625 9.15625 
L 19.203125 24 
L 45.40625 24 
L 51.40625 7.078125 
C 51.90625 5.875 51.90625 5.671875 51.90625 5.28125 
C 51.90625 2.59375 47.59375 2.59375 45.703125 2.59375 
L 45.703125 0 
C 48.59375 0.1875 53.796875 0.1875 56.90625 0.1875 
C 59.5 0.1875 64.5 0.1875 66.90625 0 
L 66.90625 2.59375 
C 61.59375 2.59375 59.796875 2.59375 58.5 6.28125 
z
M 32.296875 61.3125 
L 44.5 26.59375 
L 20.09375 26.59375 
z
" id="CMR17-65"/>
      <path d="M 15 23.703125 
C 15 33.34375 19.09375 42.390625 26.59375 42.390625 
C 27.296875 42.390625 28 42.296875 28.703125 41.984375 
C 28.703125 41.984375 26.5 41.28125 26.5 38.671875 
C 26.5 36.265625 28.40625 35.265625 29.90625 35.265625 
C 31.09375 35.265625 33.296875 35.96875 33.296875 38.78125 
C 33.296875 41.984375 30.09375 44 26.703125 44 
C 19.09375 44 15.796875 36.5625 14.796875 33.046875 
L 14.703125 33.046875 
L 14.703125 44 
L 3.09375 42.890625 
L 3.09375 40.28125 
C 9 40.28125 9.90625 39.6875 9.90625 34.859375 
L 9.90625 6.921875 
C 9.90625 3.09375 9.5 2.59375 3.09375 2.59375 
L 3.09375 0 
C 5.5 0.1875 10.09375 0.1875 12.703125 0.1875 
C 15.59375 0.1875 20.703125 0.1875 23.40625 0 
L 23.40625 2.59375 
C 16.203125 2.59375 15 2.59375 15 7.109375 
z
" id="CMR17-114"/>
      <path d="M 36 25.875 
C 36 32 36 35.546875 31.796875 39.59375 
C 28.09375 42.984375 23.796875 44 20.40625 44 
C 12.5 44 6.796875 37.625 6.796875 30.890625 
C 6.796875 27.1875 9.796875 27 10.40625 27 
C 11.703125 27 14 27.796875 14 30.59375 
C 14 33.09375 12.09375 34.1875 10.40625 34.1875 
C 10 34.1875 9.5 34.09375 9.203125 34 
C 11.296875 40.53125 16.703125 42.390625 20.203125 42.390625 
C 25.203125 42.390625 30.703125 37.828125 30.703125 29.296875 
L 30.703125 25.5 
C 24.796875 25.296875 17.703125 24.5 12.09375 21.453125 
C 5.796875 17.921875 4 12.84375 4 9 
C 4 1.203125 13 -1 18.296875 -1 
C 23.796875 -1 28.90625 2.109375 31.09375 7.890625 
C 31.296875 3.421875 34.09375 -0.609375 38.5 -0.609375 
C 40.59375 -0.609375 45.90625 0.796875 45.90625 8.796875 
L 45.90625 14.46875 
L 44.09375 14.46875 
L 44.09375 8.703125 
C 44.09375 2.515625 41.40625 1.703125 40.09375 1.703125 
C 36 1.703125 36 6.96875 36 11.4375 
z
M 30.703125 13.859375 
C 30.703125 5.046875 24.5 0.59375 19 0.59375 
C 14 0.59375 10.09375 4.34375 10.09375 9 
C 10.09375 12.046875 11.40625 17.40625 17.203125 20.65625 
C 22 23.390625 27.5 23.796875 30.703125 24 
z
" id="CMR17-97"/>
     </defs>
     <g transform="translate(930.0869 339.580528)rotate(-90)scale(0.16 -0.16)">
      <use transform="scale(0.996264)" xlink:href="#CMR17-65"/>
      <use transform="translate(69.07243 0)scale(0.996264)" xlink:href="#CMR17-99"/>
      <use transform="translate(109.55809 0)scale(0.996264)" xlink:href="#CMR17-99"/>
      <use transform="translate(150.043751 0)scale(0.996264)" xlink:href="#CMR17-101"/>
      <use transform="translate(190.529411 0)scale(0.996264)" xlink:href="#CMR17-108"/>
      <use transform="translate(215.40047 0)scale(0.996264)" xlink:href="#CMR17-101"/>
      <use transform="translate(255.88613 0)scale(0.996264)" xlink:href="#CMR17-114"/>
      <use transform="translate(291.166898 0)scale(0.996264)" xlink:href="#CMR17-97"/>
      <use transform="translate(336.857375 0)scale(0.996264)" xlink:href="#CMR17-116"/>
      <use transform="translate(372.138143 0)scale(0.996264)" xlink:href="#CMR17-105"/>
      <use transform="translate(397.009201 0)scale(0.996264)" xlink:href="#CMR17-111"/>
      <use transform="translate(442.699678 0)scale(0.996264)" xlink:href="#CMR17-110"/>
      <use transform="translate(523.671015 0)scale(0.996264)" xlink:href="#CMR17-40"/>
      <use transform="translate(558.951782 0)scale(0.996264)" xlink:href="#CMR17-99"/>
      <use transform="translate(599.437443 0)scale(0.996264)" xlink:href="#CMR17-109"/>
      <use transform="translate(676.357033 0)scale(0.996264)" xlink:href="#CMR17-47"/>
      <use transform="translate(722.04751 0)scale(0.996264)" xlink:href="#CMR17-115"/>
      <use transform="translate(757.848847 36.153639)scale(0.697382)" xlink:href="#CMR17-50"/>
      <use transform="translate(790.330161 0)scale(0.996264)" xlink:href="#CMR17-41"/>
     </g>
    </g>
   </g>
   <g id="line2d_44">
    <path clip-path="url(#pcc0bf543a4)" d="M 982.684492 213.278124 
L 985.930282 142.670329 
L 988.805383 144.788756 
L 991.734732 104.844969 
L 994.980522 345.845979 
L 997.918912 200.027501 
L 1000.748807 277.644223 
L 1003.985556 83.331818 
L 1006.905863 196.864807 
L 1009.817129 176.295331 
L 1013.090043 217.06374 
L 1015.938021 195.310581 
L 1018.849287 178.403744 
L 1022.076995 160.890183 
L 1024.970178 173.719089 
L 1027.899527 181.425009 
L 1031.100111 188.519225 
L 1034.092748 169.972181 
L 1037.013055 205.969164 
L 1040.159392 222.765564 
L 1043.079699 197.368245 
L 1046.144666 141.141125 
L 1049.227714 174.071764 
L 1052.102816 214.395824 
L 1055.00504 235.467597 
L 1058.24179 208.108699 
L 1061.144014 248.263086 
L 1064.05528 302.425095 
L 1067.310112 325.972306 
L 1070.176172 313.429833 
L 1073.40388 254.090631 
L 1076.333228 239.962065 
L 1079.244494 212.223933 
L 1082.128636 279.713978 
L 1085.356344 296.529329 
L 1088.294734 351.114511 
L 1091.196959 273.040189 
L 1094.433708 246.341403 
L 1097.444427 165.116223 
L 1100.220075 238.929036 
L 1103.465865 290.55346 
L 1106.36809 363.313884 
L 1109.387851 369.311493 
L 1112.6246 309.759623 
L 1115.635319 263.944402 
L 1118.80878 173.395387 
L 1121.557304 229.383108 
L 1124.432405 264.810921 
L 1127.33463 330.335604 
L 1130.661791 296.376939 
L 1133.609222 264.862186 
L 1136.411993 256.842915 
L 1139.612578 270.470322 
L 1142.505761 291.589096 
L 1145.724428 283.949707 
L 1148.662818 284.199452 
L 1151.592166 266.192193 
L 1154.476308 276.116663 
L 1157.704016 266.261324 
L 1160.66953 291.40265 
L 1163.517507 293.114816 
L 1166.727133 294.256899 
L 1169.665522 276.277652 
L 1172.540623 258.180247 
L 1175.786414 275.345441 
L 1178.679597 320.950184 
L 1181.581822 397.992619 
L 1184.836654 453.968182 
L 1187.74792 403.525375 
L 1190.930422 272.986166 
L 1193.85977 132.583638 
L 1197.087478 127.777521 
L 1200.351351 213.858676 
L 1202.882886 293.4726 
L 1206.056347 276.520843 
L 1208.705418 239.962065 
L 1211.942167 231.089604 
L 1214.862475 248.991898 
L 1217.746617 239.962065 
L 1220.992407 231.058523 
L 1223.903673 239.953166 
L 1227.330288 239.962065 
L 1230.024565 239.962065 
L 1232.953913 231.067418 
L 1235.838056 249.117655 
L 1239.056722 239.962065 
L 1242.004153 231.013854 
L 1244.897337 231.058506 
L 1248.097921 239.962065 
L 1251.018228 257.787116 
L 1253.902371 239.962065 
L 1257.193367 239.962065 
L 1260.086551 231.076277 
L 1262.970693 239.962065 
L 1266.18936 239.962065 
L 1269.100626 239.962065 
L 1272.039015 239.962065 
L 1275.2396 239.962065 
L 1278.123742 239.962065 
L 1281.080214 239.962065 
" style="fill:none;stroke:#8b0000;stroke-dasharray:1.5,2.475;stroke-dashoffset:0;stroke-opacity:0.9;stroke-width:1.5;"/>
   </g>
   <g id="line2d_45">
    <path clip-path="url(#pcc0bf543a4)" d="M 996.351168 188.559184 
L 999.391723 188.937745 
L 1002.392497 194.20177 
L 1005.396887 197.563269 
L 1008.431114 203.167791 
L 1011.430079 185.955102 
L 1014.428141 184.094852 
L 1017.463271 175.182353 
L 1020.47399 183.846389 
L 1023.484709 184.756825 
L 1026.518936 189.403848 
L 1029.517901 187.434298 
L 1032.538566 182.017353 
L 1035.576408 181.584155 
L 1038.578991 186.934719 
L 1041.582477 193.10957 
L 1044.616703 195.777939 
L 1047.621093 201.752325 
L 1050.617347 214.997616 
L 1053.647052 226.99793 
L 1056.64873 236.064357 
L 1059.681148 241.736596 
L 1062.700005 251.61869 
L 1065.701683 255.433907 
L 1068.704265 261.965722 
L 1071.739395 268.071896 
L 1074.74469 282.372477 
L 1077.749984 284.850187 
L 1080.787827 279.241818 
L 1083.801258 263.15621 
L 1086.805649 255.70613 
L 1089.811847 259.352413 
L 1092.815333 271.687595 
L 1095.829669 287.396351 
L 1098.879265 290.400915 
L 1101.907163 287.142422 
L 1104.958567 269.37051 
L 1107.994602 265.004802 
L 1110.994472 266.851754 
L 1113.983492 283.373692 
L 1117.027663 289.118482 
L 1120.041999 286.549355 
L 1123.046389 275.902258 
L 1126.068862 266.018141 
L 1129.056978 264.201088 
L 1132.065889 266.201618 
L 1135.051293 277.282025 
L 1138.054779 280.962933 
L 1141.05917 282.093508 
L 1144.096108 275.68608 
L 1147.096882 275.188651 
L 1150.087711 278.013914 
L 1153.119225 281.755312 
L 1156.124519 282.336045 
L 1159.128005 278.99516 
L 1162.134204 278.134734 
L 1165.135882 281.809807 
L 1168.134847 294.989849 
L 1171.170882 312.775001 
L 1174.175272 326.501406 
L 1177.201361 324.659758 
L 1180.235588 308.60664 
L 1183.271622 291.958703 
L 1186.340205 285.716805 
L 1189.374431 289.24604 
L 1192.401425 289.363581 
L 1195.404007 281.264769 
L 1198.440041 264.574467 
L 1201.442623 244.076839 
L 1204.442493 227.720508 
L 1207.448692 223.527743 
L 1210.453082 234.264696 
L 1213.477363 245.483151 
L 1216.444684 248.093489 
L 1219.451787 241.852971 
L 1222.429958 239.112652 
L 1225.465088 239.112652 
L 1228.471287 239.105077 
L 1231.474773 237.311738 
L 1234.509904 237.311738 
L 1237.512486 239.984597 
L 1240.512355 239.985487 
L 1243.498663 239.985487 
L 1246.504862 239.096909 
L 1249.50654 239.986373 
L 1252.54167 239.070814 
L 1255.546061 239.070814 
L 1258.549547 239.965635 
L 1261.583773 240.855991 
L 1264.586355 240.855991 
L 1267.592554 239.073486 
" style="fill:none;stroke:#ff0000;stroke-linecap:square;stroke-width:1.5;"/>
   </g>
   <g id="patch_13">
    <path d="M 967.764706 472.5 
L 967.764706 64.8 
" style="fill:none;stroke:#000000;stroke-linecap:square;stroke-linejoin:miter;stroke-width:0.8;"/>
   </g>
   <g id="patch_14">
    <path d="M 1296 472.5 
L 1296 64.8 
" style="fill:none;stroke:#000000;stroke-linecap:square;stroke-linejoin:miter;stroke-width:0.8;"/>
   </g>
   <g id="patch_15">
    <path d="M 967.764706 472.5 
L 1296 472.5 
" style="fill:none;stroke:#000000;stroke-linecap:square;stroke-linejoin:miter;stroke-width:0.8;"/>
   </g>
   <g id="patch_16">
    <path d="M 967.764706 64.8 
L 1296 64.8 
" style="fill:none;stroke:#000000;stroke-linecap:square;stroke-linejoin:miter;stroke-width:0.8;"/>
   </g>
   <g id="text_50">
    <!-- $x$-Acceleration (cm/s$^2$) vs Time (s) -->
    <g transform="translate(1011.991018 58.8)scale(0.16 -0.16)">
     <use transform="scale(0.996264)" xlink:href="#CMMI12-120"/>
     <use transform="translate(55.43406 0)scale(0.996264)" xlink:href="#CMR17-45"/>
     <use transform="translate(85.510026 0)scale(0.996264)" xlink:href="#CMR17-65"/>
     <use transform="translate(154.582456 0)scale(0.996264)" xlink:href="#CMR17-99"/>
     <use transform="translate(195.068116 0)scale(0.996264)" xlink:href="#CMR17-99"/>
     <use transform="translate(235.553777 0)scale(0.996264)" xlink:href="#CMR17-101"/>
     <use transform="translate(276.039437 0)scale(0.996264)" xlink:href="#CMR17-108"/>
     <use transform="translate(300.910496 0)scale(0.996264)" xlink:href="#CMR17-101"/>
     <use transform="translate(341.396156 0)scale(0.996264)" xlink:href="#CMR17-114"/>
     <use transform="translate(376.676924 0)scale(0.996264)" xlink:href="#CMR17-97"/>
     <use transform="translate(422.367401 0)scale(0.996264)" xlink:href="#CMR17-116"/>
     <use transform="translate(457.648169 0)scale(0.996264)" xlink:href="#CMR17-105"/>
     <use transform="translate(482.519227 0)scale(0.996264)" xlink:href="#CMR17-111"/>
     <use transform="translate(528.209704 0)scale(0.996264)" xlink:href="#CMR17-110"/>
     <use transform="translate(609.18104 0)scale(0.996264)" xlink:href="#CMR17-40"/>
     <use transform="translate(644.461808 0)scale(0.996264)" xlink:href="#CMR17-99"/>
     <use transform="translate(684.947469 0)scale(0.996264)" xlink:href="#CMR17-109"/>
     <use transform="translate(761.867059 0)scale(0.996264)" xlink:href="#CMR17-47"/>
     <use transform="translate(807.557536 0)scale(0.996264)" xlink:href="#CMR17-115"/>
     <use transform="translate(843.358873 36.153639)scale(0.697382)" xlink:href="#CMR17-50"/>
     <use transform="translate(875.840187 0)scale(0.996264)" xlink:href="#CMR17-41"/>
     <use transform="translate(941.196921 0)scale(0.996264)" xlink:href="#CMR17-118"/>
     <use transform="translate(989.489837 0)scale(0.996264)" xlink:href="#CMR17-115"/>
     <use transform="translate(1055.367141 0)scale(0.996264)" xlink:href="#CMR17-84"/>
     <use transform="translate(1121.877022 0)scale(0.996264)" xlink:href="#CMR17-105"/>
     <use transform="translate(1146.74808 0)scale(0.996264)" xlink:href="#CMR17-109"/>
     <use transform="translate(1223.66767 0)scale(0.996264)" xlink:href="#CMR17-101"/>
     <use transform="translate(1294.229297 0)scale(0.996264)" xlink:href="#CMR17-40"/>
     <use transform="translate(1329.510065 0)scale(0.996264)" xlink:href="#CMR17-115"/>
     <use transform="translate(1365.311402 0)scale(0.996264)" xlink:href="#CMR17-41"/>
    </g>
   </g>
   <g id="legend_1">
    <g id="patch_17">
     <path d="M 1127.484931 101.540224 
L 1284.8 101.540224 
Q 1288 101.540224 1288 98.340224 
L 1288 76 
Q 1288 72.8 1284.8 72.8 
L 1127.484931 72.8 
Q 1124.284931 72.8 1124.284931 76 
L 1124.284931 98.340224 
Q 1124.284931 101.540224 1127.484931 101.540224 
z
" style="fill:#ffffff;opacity:0.8;stroke:#cccccc;stroke-linejoin:miter;"/>
    </g>
    <g id="line2d_46">
     <path d="M 1130.684931 86.440748 
L 1162.684931 86.440748 
" style="fill:none;stroke:#ff0000;stroke-linecap:square;stroke-width:1.5;"/>
    </g>
    <g id="line2d_47"/>
    <g id="text_51">
     <!-- Smoothed $a_x(t)$ -->
     <defs>
      <path d="M 43.796875 67.984375 
C 43.796875 69.796875 43.703125 69.890625 43.09375 69.890625 
C 42.5 69.890625 42.296875 69.484375 41.90625 68.59375 
L 38.90625 61.953125 
C 35.09375 67.5 29.296875 70 23 70 
C 12.796875 70 4.59375 61.84375 4.59375 51.578125 
C 4.59375 48.453125 5.296875 44.015625 8.703125 39.78125 
C 12.40625 35.15625 15.90625 34.34375 23.90625 32.234375 
C 26.90625 31.421875 31.90625 30.109375 32.90625 29.703125 
C 38.59375 27.296875 41.59375 21.25 41.59375 15.609375 
C 41.59375 8.34375 36.5 0.59375 27.796875 0.59375 
C 17.09375 0.59375 7.09375 6.640625 6.40625 20.75 
C 6.296875 22.359375 6.203125 22.453125 5.5 22.453125 
C 4.703125 22.453125 4.59375 22.359375 4.59375 20.34375 
L 4.59375 0 
C 4.59375 -1.8125 4.703125 -1.90625 5.296875 -1.90625 
C 6 -1.90625 6.203125 -1.40625 7.59375 1.703125 
C 7.703125 2 7.703125 2.203125 9.59375 6.03125 
C 14.59375 -0.609375 23 -2 27.796875 -2 
C 38.703125 -2 46.40625 7.140625 46.40625 17.828125 
C 46.40625 23.0625 44.5 27.09375 43.40625 28.90625 
C 39.203125 35.359375 34.703125 36.5625 29.90625 37.765625 
C 29.203125 38.078125 29 38.078125 23.40625 39.484375 
C 18 40.890625 15.703125 41.59375 13.203125 44.3125 
C 10.40625 47.4375 9.40625 50.671875 9.40625 53.890625 
C 9.40625 60.4375 14.59375 67.59375 23.09375 67.59375 
C 33.703125 67.59375 40.296875 60.03125 41.796875 47.4375 
C 42.09375 45.625 42.203125 45.53125 42.90625 45.53125 
C 43.796875 45.53125 43.796875 45.828125 43.796875 47.546875 
z
" id="CMR17-83"/>
      <path d="M 41.5 30.53125 
C 41.5 35.65625 40.5 44 28.703125 44 
C 20.5 44 16.5 37.375 15.296875 34.046875 
L 15.203125 34.046875 
L 15.203125 69 
L 3.296875 67.890625 
L 3.296875 65.296875 
C 9.203125 65.296875 10.09375 64.703125 10.09375 60.046875 
L 10.09375 6.921875 
C 10.09375 3.09375 9.703125 2.59375 3.296875 2.59375 
L 3.296875 0 
C 5.703125 0.1875 10.09375 0.1875 12.703125 0.1875 
C 15.296875 0.1875 19.796875 0.1875 22.203125 0 
L 22.203125 2.59375 
C 15.796875 2.59375 15.40625 3 15.40625 6.921875 
L 15.40625 26.21875 
C 15.40625 35.453125 21 42.390625 28 42.390625 
C 35.40625 42.390625 36.203125 35.765625 36.203125 30.9375 
L 36.203125 6.921875 
C 36.203125 3.09375 35.796875 2.59375 29.40625 2.59375 
L 29.40625 0 
C 31.796875 0.1875 36.203125 0.1875 38.796875 0.1875 
C 41.40625 0.1875 45.90625 0.1875 48.296875 0 
L 48.296875 2.59375 
C 41.90625 2.59375 41.5 3 41.5 6.921875 
z
" id="CMR17-104"/>
      <path d="M 29.203125 67.890625 
L 29.203125 65.296875 
C 35.09375 65.296875 36 64.703125 36 60.046875 
L 36 37.046875 
C 35.59375 37.546875 31.5 44 23.40625 44 
C 13.203125 44 3.296875 34.8125 3.296875 21.5 
C 3.296875 8.265625 12.59375 -1 22.40625 -1 
C 30.90625 -1 35.296875 5.640625 35.796875 6.34375 
L 35.796875 -1 
L 47.90625 -0.203125 
L 47.90625 2.40625 
C 42 2.40625 41.09375 3.015625 41.09375 7.859375 
L 41.09375 69 
z
M 35.796875 11.90625 
C 35.796875 8.875 34 6.140625 31.703125 4.125 
C 28.296875 1.09375 24.90625 0.59375 23 0.59375 
C 20.09375 0.59375 9.703125 2.109375 9.703125 21.390625 
C 9.703125 41.1875 21.296875 42.390625 23.90625 42.390625 
C 28.5 42.390625 32.203125 39.765625 34.5 36.140625 
C 35.796875 34.015625 35.796875 33.703125 35.796875 31.890625 
z
" id="CMR17-100"/>
      <path d="M 30.09375 11.859375 
C 29.59375 10.171875 29.59375 9.96875 28.203125 8.078125 
C 26 5.28125 21.59375 1 16.90625 1 
C 12.796875 1 10.5 4.6875 10.5 10.5625 
C 10.5 16.0625 13.59375 27.234375 15.5 31.421875 
C 18.90625 38.40625 23.59375 41.984375 27.5 41.984375 
C 34.09375 41.984375 35.40625 33.8125 35.40625 33.015625 
C 35.40625 32.921875 35.09375 31.625 35 31.421875 
z
M 36.5 37.40625 
C 35.40625 40 32.703125 44 27.5 44 
C 16.203125 44 4 29.421875 4 14.65625 
C 4 4.78125 9.796875 -1 16.59375 -1 
C 22.09375 -1 26.796875 3.28125 29.59375 6.578125 
C 30.59375 0.6875 35.296875 -1 38.296875 -1 
C 41.296875 -1 43.703125 0.796875 45.5 4.375 
C 47.09375 7.75 48.5 13.828125 48.5 14.21875 
C 48.5 14.71875 48.09375 15.125 47.5 15.125 
C 46.59375 15.125 46.5 14.625 46.09375 13.125 
C 44.59375 7.265625 42.703125 1 38.59375 1 
C 35.703125 1 35.5 3.578125 35.5 5.5625 
C 35.5 7.859375 35.796875 8.953125 36.703125 12.828125 
C 37.40625 15.3125 37.90625 17.5 38.703125 20.390625 
C 42.40625 35.3125 43.296875 38.890625 43.296875 39.5 
C 43.296875 40.890625 42.203125 42 40.703125 42 
C 37.5 42 36.703125 38.5 36.5 37.3125 
z
" id="CMMI12-97"/>
      <path d="M 20.09375 40.09375 
L 29.296875 40.09375 
C 31.203125 40.09375 32.203125 40.09375 32.203125 41.890625 
C 32.203125 43 31.59375 43 29.59375 43 
L 20.796875 43 
L 24.5 57.25 
C 24.90625 58.625 24.90625 58.8125 24.90625 59.5 
C 24.90625 61.09375 23.59375 62 22.296875 62 
C 21.5 62 19.203125 61.6875 18.40625 58.53125 
L 14.5 43 
L 5.09375 43 
C 3.09375 43 2.203125 43 2.203125 41.09375 
C 2.203125 40.09375 2.90625 40.09375 4.796875 40.09375 
L 13.703125 40.09375 
L 7.09375 13.765625 
C 6.296875 10.265625 6 9.265625 6 7.96875 
C 6 3.28125 9.296875 -1 14.90625 -1 
C 25 -1 30.40625 13.5625 30.40625 14.265625 
C 30.40625 14.859375 30 15.15625 29.40625 15.15625 
C 29.203125 15.15625 28.796875 15.15625 28.59375 14.75 
C 28.5 14.65625 28.40625 14.5625 27.703125 12.96875 
C 25.59375 7.96875 21 1 15.203125 1 
C 12.203125 1 12 3.484375 12 5.6875 
C 12 5.78125 12 7.671875 12.296875 8.875 
z
" id="CMMI12-116"/>
     </defs>
     <g transform="translate(1175.484931 92.040748)scale(0.16 -0.16)">
      <use transform="translate(0 14.943915)scale(0.996264)" xlink:href="#CMR17-83"/>
      <use transform="translate(50.89537 14.943915)scale(0.996264)" xlink:href="#CMR17-109"/>
      <use transform="translate(127.81496 14.943915)scale(0.996264)" xlink:href="#CMR17-111"/>
      <use transform="translate(176.107875 14.943915)scale(0.996264)" xlink:href="#CMR17-111"/>
      <use transform="translate(221.798353 14.943915)scale(0.996264)" xlink:href="#CMR17-116"/>
      <use transform="translate(257.07912 14.943915)scale(0.996264)" xlink:href="#CMR17-104"/>
      <use transform="translate(307.97449 14.943915)scale(0.996264)" xlink:href="#CMR17-101"/>
      <use transform="translate(348.460151 14.943915)scale(0.996264)" xlink:href="#CMR17-100"/>
      <use transform="translate(429.431487 14.943915)scale(0.996264)" xlink:href="#CMMI12-97"/>
      <use transform="translate(480.639344 0)scale(0.697382)" xlink:href="#CMMI12-120"/>
      <use transform="translate(519.941136 14.943915)scale(0.996264)" xlink:href="#CMR17-40"/>
      <use transform="translate(555.221903 14.943915)scale(0.996264)" xlink:href="#CMMI12-116"/>
      <use transform="translate(590.448234 14.943915)scale(0.996264)" xlink:href="#CMR17-41"/>
     </g>
    </g>
   </g>
  </g>
 </g>
 <defs>
  <clipPath id="p1188c529e7">
   <rect height="407.7" width="328.235294" x="180" y="64.8"/>
  </clipPath>
  <clipPath id="p364aee5650">
   <rect height="407.7" width="328.235294" x="573.882353" y="64.8"/>
  </clipPath>
  <clipPath id="pcc0bf543a4">
   <rect height="407.7" width="328.235294" x="967.764706" y="64.8"/>
  </clipPath>
 </defs>
</svg>
