<?xml version="1.0" encoding="utf-8" standalone="no"?>
<!DOCTYPE svg PUBLIC "-//W3C//DTD SVG 1.1//EN"
  "http://www.w3.org/Graphics/SVG/1.1/DTD/svg11.dtd">
<!-- Created with matplotlib (https://matplotlib.org/) -->
<svg height="540pt" version="1.1" viewBox="0 0 540 540" width="540pt" xmlns="http://www.w3.org/2000/svg" xmlns:xlink="http://www.w3.org/1999/xlink">
 <defs>
  <style type="text/css">
*{stroke-linecap:butt;stroke-linejoin:round;}
  </style>
 </defs>
 <g id="figure_1">
  <g id="patch_1">
   <path d="M 0 540 
L 540 540 
L 540 0 
L 0 0 
z
" style="fill:#ffffff;"/>
  </g>
  <g id="axes_1">
   <g id="patch_2">
    <path d="M 67.5 472.5 
L 486 472.5 
L 486 64.8 
L 67.5 64.8 
z
" style="fill:#ffffff;"/>
   </g>
   <g id="matplotlib.axis_1">
    <g id="xtick_1">
     <g id="line2d_1">
      <defs>
       <path d="M 0 0 
L 0 3.5 
" id="mcbaf2481ad" style="stroke:#000000;stroke-width:0.8;"/>
      </defs>
      <g>
       <use style="stroke:#000000;stroke-width:0.8;" x="92.949233" xlink:href="#mcbaf2481ad" y="472.5"/>
      </g>
     </g>
     <g id="text_1">
      <!-- 40 -->
      <defs>
       <path d="M 37.796875 64.3125 
L 12.890625 25.390625 
L 37.796875 25.390625 
z
M 35.203125 72.90625 
L 47.609375 72.90625 
L 47.609375 25.390625 
L 58.015625 25.390625 
L 58.015625 17.1875 
L 47.609375 17.1875 
L 47.609375 0 
L 37.796875 0 
L 37.796875 17.1875 
L 4.890625 17.1875 
L 4.890625 26.703125 
z
" id="DejaVuSans-52"/>
       <path d="M 31.78125 66.40625 
Q 24.171875 66.40625 20.328125 58.90625 
Q 16.5 51.421875 16.5 36.375 
Q 16.5 21.390625 20.328125 13.890625 
Q 24.171875 6.390625 31.78125 6.390625 
Q 39.453125 6.390625 43.28125 13.890625 
Q 47.125 21.390625 47.125 36.375 
Q 47.125 51.421875 43.28125 58.90625 
Q 39.453125 66.40625 31.78125 66.40625 
z
M 31.78125 74.21875 
Q 44.046875 74.21875 50.515625 64.515625 
Q 56.984375 54.828125 56.984375 36.375 
Q 56.984375 17.96875 50.515625 8.265625 
Q 44.046875 -1.421875 31.78125 -1.421875 
Q 19.53125 -1.421875 13.0625 8.265625 
Q 6.59375 17.96875 6.59375 36.375 
Q 6.59375 54.828125 13.0625 64.515625 
Q 19.53125 74.21875 31.78125 74.21875 
z
" id="DejaVuSans-48"/>
      </defs>
      <g transform="translate(86.586733 487.098437)scale(0.1 -0.1)">
       <use xlink:href="#DejaVuSans-52"/>
       <use x="63.623047" xlink:href="#DejaVuSans-48"/>
      </g>
     </g>
    </g>
    <g id="xtick_2">
     <g id="line2d_2">
      <g>
       <use style="stroke:#000000;stroke-width:0.8;" x="146.727528" xlink:href="#mcbaf2481ad" y="472.5"/>
      </g>
     </g>
     <g id="text_2">
      <!-- 60 -->
      <defs>
       <path d="M 33.015625 40.375 
Q 26.375 40.375 22.484375 35.828125 
Q 18.609375 31.296875 18.609375 23.390625 
Q 18.609375 15.53125 22.484375 10.953125 
Q 26.375 6.390625 33.015625 6.390625 
Q 39.65625 6.390625 43.53125 10.953125 
Q 47.40625 15.53125 47.40625 23.390625 
Q 47.40625 31.296875 43.53125 35.828125 
Q 39.65625 40.375 33.015625 40.375 
z
M 52.59375 71.296875 
L 52.59375 62.3125 
Q 48.875 64.0625 45.09375 64.984375 
Q 41.3125 65.921875 37.59375 65.921875 
Q 27.828125 65.921875 22.671875 59.328125 
Q 17.53125 52.734375 16.796875 39.40625 
Q 19.671875 43.65625 24.015625 45.921875 
Q 28.375 48.1875 33.59375 48.1875 
Q 44.578125 48.1875 50.953125 41.515625 
Q 57.328125 34.859375 57.328125 23.390625 
Q 57.328125 12.15625 50.6875 5.359375 
Q 44.046875 -1.421875 33.015625 -1.421875 
Q 20.359375 -1.421875 13.671875 8.265625 
Q 6.984375 17.96875 6.984375 36.375 
Q 6.984375 53.65625 15.1875 63.9375 
Q 23.390625 74.21875 37.203125 74.21875 
Q 40.921875 74.21875 44.703125 73.484375 
Q 48.484375 72.75 52.59375 71.296875 
z
" id="DejaVuSans-54"/>
      </defs>
      <g transform="translate(140.365028 487.098437)scale(0.1 -0.1)">
       <use xlink:href="#DejaVuSans-54"/>
       <use x="63.623047" xlink:href="#DejaVuSans-48"/>
      </g>
     </g>
    </g>
    <g id="xtick_3">
     <g id="line2d_3">
      <g>
       <use style="stroke:#000000;stroke-width:0.8;" x="200.505823" xlink:href="#mcbaf2481ad" y="472.5"/>
      </g>
     </g>
     <g id="text_3">
      <!-- 80 -->
      <defs>
       <path d="M 31.78125 34.625 
Q 24.75 34.625 20.71875 30.859375 
Q 16.703125 27.09375 16.703125 20.515625 
Q 16.703125 13.921875 20.71875 10.15625 
Q 24.75 6.390625 31.78125 6.390625 
Q 38.8125 6.390625 42.859375 10.171875 
Q 46.921875 13.96875 46.921875 20.515625 
Q 46.921875 27.09375 42.890625 30.859375 
Q 38.875 34.625 31.78125 34.625 
z
M 21.921875 38.8125 
Q 15.578125 40.375 12.03125 44.71875 
Q 8.5 49.078125 8.5 55.328125 
Q 8.5 64.0625 14.71875 69.140625 
Q 20.953125 74.21875 31.78125 74.21875 
Q 42.671875 74.21875 48.875 69.140625 
Q 55.078125 64.0625 55.078125 55.328125 
Q 55.078125 49.078125 51.53125 44.71875 
Q 48 40.375 41.703125 38.8125 
Q 48.828125 37.15625 52.796875 32.3125 
Q 56.78125 27.484375 56.78125 20.515625 
Q 56.78125 9.90625 50.3125 4.234375 
Q 43.84375 -1.421875 31.78125 -1.421875 
Q 19.734375 -1.421875 13.25 4.234375 
Q 6.78125 9.90625 6.78125 20.515625 
Q 6.78125 27.484375 10.78125 32.3125 
Q 14.796875 37.15625 21.921875 38.8125 
z
M 18.3125 54.390625 
Q 18.3125 48.734375 21.84375 45.5625 
Q 25.390625 42.390625 31.78125 42.390625 
Q 38.140625 42.390625 41.71875 45.5625 
Q 45.3125 48.734375 45.3125 54.390625 
Q 45.3125 60.0625 41.71875 63.234375 
Q 38.140625 66.40625 31.78125 66.40625 
Q 25.390625 66.40625 21.84375 63.234375 
Q 18.3125 60.0625 18.3125 54.390625 
z
" id="DejaVuSans-56"/>
      </defs>
      <g transform="translate(194.143323 487.098437)scale(0.1 -0.1)">
       <use xlink:href="#DejaVuSans-56"/>
       <use x="63.623047" xlink:href="#DejaVuSans-48"/>
      </g>
     </g>
    </g>
    <g id="xtick_4">
     <g id="line2d_4">
      <g>
       <use style="stroke:#000000;stroke-width:0.8;" x="254.284117" xlink:href="#mcbaf2481ad" y="472.5"/>
      </g>
     </g>
     <g id="text_4">
      <!-- 100 -->
      <defs>
       <path d="M 12.40625 8.296875 
L 28.515625 8.296875 
L 28.515625 63.921875 
L 10.984375 60.40625 
L 10.984375 69.390625 
L 28.421875 72.90625 
L 38.28125 72.90625 
L 38.28125 8.296875 
L 54.390625 8.296875 
L 54.390625 0 
L 12.40625 0 
z
" id="DejaVuSans-49"/>
      </defs>
      <g transform="translate(244.740367 487.098437)scale(0.1 -0.1)">
       <use xlink:href="#DejaVuSans-49"/>
       <use x="63.623047" xlink:href="#DejaVuSans-48"/>
       <use x="127.246094" xlink:href="#DejaVuSans-48"/>
      </g>
     </g>
    </g>
    <g id="xtick_5">
     <g id="line2d_5">
      <g>
       <use style="stroke:#000000;stroke-width:0.8;" x="308.062412" xlink:href="#mcbaf2481ad" y="472.5"/>
      </g>
     </g>
     <g id="text_5">
      <!-- 120 -->
      <defs>
       <path d="M 19.1875 8.296875 
L 53.609375 8.296875 
L 53.609375 0 
L 7.328125 0 
L 7.328125 8.296875 
Q 12.9375 14.109375 22.625 23.890625 
Q 32.328125 33.6875 34.8125 36.53125 
Q 39.546875 41.84375 41.421875 45.53125 
Q 43.3125 49.21875 43.3125 52.78125 
Q 43.3125 58.59375 39.234375 62.25 
Q 35.15625 65.921875 28.609375 65.921875 
Q 23.96875 65.921875 18.8125 64.3125 
Q 13.671875 62.703125 7.8125 59.421875 
L 7.8125 69.390625 
Q 13.765625 71.78125 18.9375 73 
Q 24.125 74.21875 28.421875 74.21875 
Q 39.75 74.21875 46.484375 68.546875 
Q 53.21875 62.890625 53.21875 53.421875 
Q 53.21875 48.921875 51.53125 44.890625 
Q 49.859375 40.875 45.40625 35.40625 
Q 44.1875 33.984375 37.640625 27.21875 
Q 31.109375 20.453125 19.1875 8.296875 
z
" id="DejaVuSans-50"/>
      </defs>
      <g transform="translate(298.518662 487.098437)scale(0.1 -0.1)">
       <use xlink:href="#DejaVuSans-49"/>
       <use x="63.623047" xlink:href="#DejaVuSans-50"/>
       <use x="127.246094" xlink:href="#DejaVuSans-48"/>
      </g>
     </g>
    </g>
    <g id="xtick_6">
     <g id="line2d_6">
      <g>
       <use style="stroke:#000000;stroke-width:0.8;" x="361.840707" xlink:href="#mcbaf2481ad" y="472.5"/>
      </g>
     </g>
     <g id="text_6">
      <!-- 140 -->
      <g transform="translate(352.296957 487.098437)scale(0.1 -0.1)">
       <use xlink:href="#DejaVuSans-49"/>
       <use x="63.623047" xlink:href="#DejaVuSans-52"/>
       <use x="127.246094" xlink:href="#DejaVuSans-48"/>
      </g>
     </g>
    </g>
    <g id="xtick_7">
     <g id="line2d_7">
      <g>
       <use style="stroke:#000000;stroke-width:0.8;" x="415.619001" xlink:href="#mcbaf2481ad" y="472.5"/>
      </g>
     </g>
     <g id="text_7">
      <!-- 160 -->
      <g transform="translate(406.075251 487.098437)scale(0.1 -0.1)">
       <use xlink:href="#DejaVuSans-49"/>
       <use x="63.623047" xlink:href="#DejaVuSans-54"/>
       <use x="127.246094" xlink:href="#DejaVuSans-48"/>
      </g>
     </g>
    </g>
    <g id="xtick_8">
     <g id="line2d_8">
      <g>
       <use style="stroke:#000000;stroke-width:0.8;" x="469.397296" xlink:href="#mcbaf2481ad" y="472.5"/>
      </g>
     </g>
     <g id="text_8">
      <!-- 180 -->
      <g transform="translate(459.853546 487.098437)scale(0.1 -0.1)">
       <use xlink:href="#DejaVuSans-49"/>
       <use x="63.623047" xlink:href="#DejaVuSans-56"/>
       <use x="127.246094" xlink:href="#DejaVuSans-48"/>
      </g>
     </g>
    </g>
    <g id="text_9">
     <!-- Angle (Degrees) -->
     <defs>
      <path d="M 34.1875 63.1875 
L 20.796875 26.90625 
L 47.609375 26.90625 
z
M 28.609375 72.90625 
L 39.796875 72.90625 
L 67.578125 0 
L 57.328125 0 
L 50.6875 18.703125 
L 17.828125 18.703125 
L 11.1875 0 
L 0.78125 0 
z
" id="DejaVuSans-65"/>
      <path d="M 54.890625 33.015625 
L 54.890625 0 
L 45.90625 0 
L 45.90625 32.71875 
Q 45.90625 40.484375 42.875 44.328125 
Q 39.84375 48.1875 33.796875 48.1875 
Q 26.515625 48.1875 22.3125 43.546875 
Q 18.109375 38.921875 18.109375 30.90625 
L 18.109375 0 
L 9.078125 0 
L 9.078125 54.6875 
L 18.109375 54.6875 
L 18.109375 46.1875 
Q 21.34375 51.125 25.703125 53.5625 
Q 30.078125 56 35.796875 56 
Q 45.21875 56 50.046875 50.171875 
Q 54.890625 44.34375 54.890625 33.015625 
z
" id="DejaVuSans-110"/>
      <path d="M 45.40625 27.984375 
Q 45.40625 37.75 41.375 43.109375 
Q 37.359375 48.484375 30.078125 48.484375 
Q 22.859375 48.484375 18.828125 43.109375 
Q 14.796875 37.75 14.796875 27.984375 
Q 14.796875 18.265625 18.828125 12.890625 
Q 22.859375 7.515625 30.078125 7.515625 
Q 37.359375 7.515625 41.375 12.890625 
Q 45.40625 18.265625 45.40625 27.984375 
z
M 54.390625 6.78125 
Q 54.390625 -7.171875 48.1875 -13.984375 
Q 42 -20.796875 29.203125 -20.796875 
Q 24.46875 -20.796875 20.265625 -20.09375 
Q 16.0625 -19.390625 12.109375 -17.921875 
L 12.109375 -9.1875 
Q 16.0625 -11.328125 19.921875 -12.34375 
Q 23.78125 -13.375 27.78125 -13.375 
Q 36.625 -13.375 41.015625 -8.765625 
Q 45.40625 -4.15625 45.40625 5.171875 
L 45.40625 9.625 
Q 42.625 4.78125 38.28125 2.390625 
Q 33.9375 0 27.875 0 
Q 17.828125 0 11.671875 7.65625 
Q 5.515625 15.328125 5.515625 27.984375 
Q 5.515625 40.671875 11.671875 48.328125 
Q 17.828125 56 27.875 56 
Q 33.9375 56 38.28125 53.609375 
Q 42.625 51.21875 45.40625 46.390625 
L 45.40625 54.6875 
L 54.390625 54.6875 
z
" id="DejaVuSans-103"/>
      <path d="M 9.421875 75.984375 
L 18.40625 75.984375 
L 18.40625 0 
L 9.421875 0 
z
" id="DejaVuSans-108"/>
      <path d="M 56.203125 29.59375 
L 56.203125 25.203125 
L 14.890625 25.203125 
Q 15.484375 15.921875 20.484375 11.0625 
Q 25.484375 6.203125 34.421875 6.203125 
Q 39.59375 6.203125 44.453125 7.46875 
Q 49.3125 8.734375 54.109375 11.28125 
L 54.109375 2.78125 
Q 49.265625 0.734375 44.1875 -0.34375 
Q 39.109375 -1.421875 33.890625 -1.421875 
Q 20.796875 -1.421875 13.15625 6.1875 
Q 5.515625 13.8125 5.515625 26.8125 
Q 5.515625 40.234375 12.765625 48.109375 
Q 20.015625 56 32.328125 56 
Q 43.359375 56 49.78125 48.890625 
Q 56.203125 41.796875 56.203125 29.59375 
z
M 47.21875 32.234375 
Q 47.125 39.59375 43.09375 43.984375 
Q 39.0625 48.390625 32.421875 48.390625 
Q 24.90625 48.390625 20.390625 44.140625 
Q 15.875 39.890625 15.1875 32.171875 
z
" id="DejaVuSans-101"/>
      <path id="DejaVuSans-32"/>
      <path d="M 31 75.875 
Q 24.46875 64.65625 21.28125 53.65625 
Q 18.109375 42.671875 18.109375 31.390625 
Q 18.109375 20.125 21.3125 9.0625 
Q 24.515625 -2 31 -13.1875 
L 23.1875 -13.1875 
Q 15.875 -1.703125 12.234375 9.375 
Q 8.59375 20.453125 8.59375 31.390625 
Q 8.59375 42.28125 12.203125 53.3125 
Q 15.828125 64.359375 23.1875 75.875 
z
" id="DejaVuSans-40"/>
      <path d="M 19.671875 64.796875 
L 19.671875 8.109375 
L 31.59375 8.109375 
Q 46.6875 8.109375 53.6875 14.9375 
Q 60.6875 21.78125 60.6875 36.53125 
Q 60.6875 51.171875 53.6875 57.984375 
Q 46.6875 64.796875 31.59375 64.796875 
z
M 9.8125 72.90625 
L 30.078125 72.90625 
Q 51.265625 72.90625 61.171875 64.09375 
Q 71.09375 55.28125 71.09375 36.53125 
Q 71.09375 17.671875 61.125 8.828125 
Q 51.171875 0 30.078125 0 
L 9.8125 0 
z
" id="DejaVuSans-68"/>
      <path d="M 41.109375 46.296875 
Q 39.59375 47.171875 37.8125 47.578125 
Q 36.03125 48 33.890625 48 
Q 26.265625 48 22.1875 43.046875 
Q 18.109375 38.09375 18.109375 28.8125 
L 18.109375 0 
L 9.078125 0 
L 9.078125 54.6875 
L 18.109375 54.6875 
L 18.109375 46.1875 
Q 20.953125 51.171875 25.484375 53.578125 
Q 30.03125 56 36.53125 56 
Q 37.453125 56 38.578125 55.875 
Q 39.703125 55.765625 41.0625 55.515625 
z
" id="DejaVuSans-114"/>
      <path d="M 44.28125 53.078125 
L 44.28125 44.578125 
Q 40.484375 46.53125 36.375 47.5 
Q 32.28125 48.484375 27.875 48.484375 
Q 21.1875 48.484375 17.84375 46.4375 
Q 14.5 44.390625 14.5 40.28125 
Q 14.5 37.15625 16.890625 35.375 
Q 19.28125 33.59375 26.515625 31.984375 
L 29.59375 31.296875 
Q 39.15625 29.25 43.1875 25.515625 
Q 47.21875 21.78125 47.21875 15.09375 
Q 47.21875 7.46875 41.1875 3.015625 
Q 35.15625 -1.421875 24.609375 -1.421875 
Q 20.21875 -1.421875 15.453125 -0.5625 
Q 10.6875 0.296875 5.421875 2 
L 5.421875 11.28125 
Q 10.40625 8.6875 15.234375 7.390625 
Q 20.0625 6.109375 24.8125 6.109375 
Q 31.15625 6.109375 34.5625 8.28125 
Q 37.984375 10.453125 37.984375 14.40625 
Q 37.984375 18.0625 35.515625 20.015625 
Q 33.0625 21.96875 24.703125 23.78125 
L 21.578125 24.515625 
Q 13.234375 26.265625 9.515625 29.90625 
Q 5.8125 33.546875 5.8125 39.890625 
Q 5.8125 47.609375 11.28125 51.796875 
Q 16.75 56 26.8125 56 
Q 31.78125 56 36.171875 55.265625 
Q 40.578125 54.546875 44.28125 53.078125 
z
" id="DejaVuSans-115"/>
      <path d="M 8.015625 75.875 
L 15.828125 75.875 
Q 23.140625 64.359375 26.78125 53.3125 
Q 30.421875 42.28125 30.421875 31.390625 
Q 30.421875 20.453125 26.78125 9.375 
Q 23.140625 -1.703125 15.828125 -13.1875 
L 8.015625 -13.1875 
Q 14.5 -2 17.703125 9.0625 
Q 20.90625 20.125 20.90625 31.390625 
Q 20.90625 42.671875 17.703125 53.65625 
Q 14.5 64.65625 8.015625 75.875 
z
" id="DejaVuSans-41"/>
     </defs>
     <g transform="translate(236.117969 500.776563)scale(0.1 -0.1)">
      <use xlink:href="#DejaVuSans-65"/>
      <use x="68.408203" xlink:href="#DejaVuSans-110"/>
      <use x="131.787109" xlink:href="#DejaVuSans-103"/>
      <use x="195.263672" xlink:href="#DejaVuSans-108"/>
      <use x="223.046875" xlink:href="#DejaVuSans-101"/>
      <use x="284.570312" xlink:href="#DejaVuSans-32"/>
      <use x="316.357422" xlink:href="#DejaVuSans-40"/>
      <use x="355.371094" xlink:href="#DejaVuSans-68"/>
      <use x="432.373047" xlink:href="#DejaVuSans-101"/>
      <use x="493.896484" xlink:href="#DejaVuSans-103"/>
      <use x="557.373047" xlink:href="#DejaVuSans-114"/>
      <use x="598.455078" xlink:href="#DejaVuSans-101"/>
      <use x="659.978516" xlink:href="#DejaVuSans-101"/>
      <use x="721.501953" xlink:href="#DejaVuSans-115"/>
      <use x="773.601562" xlink:href="#DejaVuSans-41"/>
     </g>
    </g>
   </g>
   <g id="matplotlib.axis_2">
    <g id="ytick_1">
     <g id="line2d_9">
      <defs>
       <path d="M 0 0 
L -3.5 0 
" id="m3be8156b14" style="stroke:#000000;stroke-width:0.8;"/>
      </defs>
      <g>
       <use style="stroke:#000000;stroke-width:0.8;" x="67.5" xlink:href="#m3be8156b14" y="432.181501"/>
      </g>
     </g>
     <g id="text_10">
      <!-- 20 -->
      <g transform="translate(47.775 435.980719)scale(0.1 -0.1)">
       <use xlink:href="#DejaVuSans-50"/>
       <use x="63.623047" xlink:href="#DejaVuSans-48"/>
      </g>
     </g>
    </g>
    <g id="ytick_2">
     <g id="line2d_10">
      <g>
       <use style="stroke:#000000;stroke-width:0.8;" x="67.5" xlink:href="#m3be8156b14" y="374.591481"/>
      </g>
     </g>
     <g id="text_11">
      <!-- 40 -->
      <g transform="translate(47.775 378.3907)scale(0.1 -0.1)">
       <use xlink:href="#DejaVuSans-52"/>
       <use x="63.623047" xlink:href="#DejaVuSans-48"/>
      </g>
     </g>
    </g>
    <g id="ytick_3">
     <g id="line2d_11">
      <g>
       <use style="stroke:#000000;stroke-width:0.8;" x="67.5" xlink:href="#m3be8156b14" y="317.001462"/>
      </g>
     </g>
     <g id="text_12">
      <!-- 60 -->
      <g transform="translate(47.775 320.800681)scale(0.1 -0.1)">
       <use xlink:href="#DejaVuSans-54"/>
       <use x="63.623047" xlink:href="#DejaVuSans-48"/>
      </g>
     </g>
    </g>
    <g id="ytick_4">
     <g id="line2d_12">
      <g>
       <use style="stroke:#000000;stroke-width:0.8;" x="67.5" xlink:href="#m3be8156b14" y="259.411443"/>
      </g>
     </g>
     <g id="text_13">
      <!-- 80 -->
      <g transform="translate(47.775 263.210662)scale(0.1 -0.1)">
       <use xlink:href="#DejaVuSans-56"/>
       <use x="63.623047" xlink:href="#DejaVuSans-48"/>
      </g>
     </g>
    </g>
    <g id="ytick_5">
     <g id="line2d_13">
      <g>
       <use style="stroke:#000000;stroke-width:0.8;" x="67.5" xlink:href="#m3be8156b14" y="201.821424"/>
      </g>
     </g>
     <g id="text_14">
      <!-- 100 -->
      <g transform="translate(41.4125 205.620643)scale(0.1 -0.1)">
       <use xlink:href="#DejaVuSans-49"/>
       <use x="63.623047" xlink:href="#DejaVuSans-48"/>
       <use x="127.246094" xlink:href="#DejaVuSans-48"/>
      </g>
     </g>
    </g>
    <g id="ytick_6">
     <g id="line2d_14">
      <g>
       <use style="stroke:#000000;stroke-width:0.8;" x="67.5" xlink:href="#m3be8156b14" y="144.231405"/>
      </g>
     </g>
     <g id="text_15">
      <!-- 120 -->
      <g transform="translate(41.4125 148.030624)scale(0.1 -0.1)">
       <use xlink:href="#DejaVuSans-49"/>
       <use x="63.623047" xlink:href="#DejaVuSans-50"/>
       <use x="127.246094" xlink:href="#DejaVuSans-48"/>
      </g>
     </g>
    </g>
    <g id="ytick_7">
     <g id="line2d_15">
      <g>
       <use style="stroke:#000000;stroke-width:0.8;" x="67.5" xlink:href="#m3be8156b14" y="86.641386"/>
      </g>
     </g>
     <g id="text_16">
      <!-- 140 -->
      <g transform="translate(41.4125 90.440605)scale(0.1 -0.1)">
       <use xlink:href="#DejaVuSans-49"/>
       <use x="63.623047" xlink:href="#DejaVuSans-52"/>
       <use x="127.246094" xlink:href="#DejaVuSans-48"/>
      </g>
     </g>
    </g>
    <g id="text_17">
     <!-- Kinetic Energy (Joules) -->
     <defs>
      <path d="M 9.8125 72.90625 
L 19.671875 72.90625 
L 19.671875 42.09375 
L 52.390625 72.90625 
L 65.09375 72.90625 
L 28.90625 38.921875 
L 67.671875 0 
L 54.6875 0 
L 19.671875 35.109375 
L 19.671875 0 
L 9.8125 0 
z
" id="DejaVuSans-75"/>
      <path d="M 9.421875 54.6875 
L 18.40625 54.6875 
L 18.40625 0 
L 9.421875 0 
z
M 9.421875 75.984375 
L 18.40625 75.984375 
L 18.40625 64.59375 
L 9.421875 64.59375 
z
" id="DejaVuSans-105"/>
      <path d="M 18.3125 70.21875 
L 18.3125 54.6875 
L 36.8125 54.6875 
L 36.8125 47.703125 
L 18.3125 47.703125 
L 18.3125 18.015625 
Q 18.3125 11.328125 20.140625 9.421875 
Q 21.96875 7.515625 27.59375 7.515625 
L 36.8125 7.515625 
L 36.8125 0 
L 27.59375 0 
Q 17.1875 0 13.234375 3.875 
Q 9.28125 7.765625 9.28125 18.015625 
L 9.28125 47.703125 
L 2.6875 47.703125 
L 2.6875 54.6875 
L 9.28125 54.6875 
L 9.28125 70.21875 
z
" id="DejaVuSans-116"/>
      <path d="M 48.78125 52.59375 
L 48.78125 44.1875 
Q 44.96875 46.296875 41.140625 47.34375 
Q 37.3125 48.390625 33.40625 48.390625 
Q 24.65625 48.390625 19.8125 42.84375 
Q 14.984375 37.3125 14.984375 27.296875 
Q 14.984375 17.28125 19.8125 11.734375 
Q 24.65625 6.203125 33.40625 6.203125 
Q 37.3125 6.203125 41.140625 7.25 
Q 44.96875 8.296875 48.78125 10.40625 
L 48.78125 2.09375 
Q 45.015625 0.34375 40.984375 -0.53125 
Q 36.96875 -1.421875 32.421875 -1.421875 
Q 20.0625 -1.421875 12.78125 6.34375 
Q 5.515625 14.109375 5.515625 27.296875 
Q 5.515625 40.671875 12.859375 48.328125 
Q 20.21875 56 33.015625 56 
Q 37.15625 56 41.109375 55.140625 
Q 45.0625 54.296875 48.78125 52.59375 
z
" id="DejaVuSans-99"/>
      <path d="M 9.8125 72.90625 
L 55.90625 72.90625 
L 55.90625 64.59375 
L 19.671875 64.59375 
L 19.671875 43.015625 
L 54.390625 43.015625 
L 54.390625 34.71875 
L 19.671875 34.71875 
L 19.671875 8.296875 
L 56.78125 8.296875 
L 56.78125 0 
L 9.8125 0 
z
" id="DejaVuSans-69"/>
      <path d="M 32.171875 -5.078125 
Q 28.375 -14.84375 24.75 -17.8125 
Q 21.140625 -20.796875 15.09375 -20.796875 
L 7.90625 -20.796875 
L 7.90625 -13.28125 
L 13.1875 -13.28125 
Q 16.890625 -13.28125 18.9375 -11.515625 
Q 21 -9.765625 23.484375 -3.21875 
L 25.09375 0.875 
L 2.984375 54.6875 
L 12.5 54.6875 
L 29.59375 11.921875 
L 46.6875 54.6875 
L 56.203125 54.6875 
z
" id="DejaVuSans-121"/>
      <path d="M 9.8125 72.90625 
L 19.671875 72.90625 
L 19.671875 5.078125 
Q 19.671875 -8.109375 14.671875 -14.0625 
Q 9.671875 -20.015625 -1.421875 -20.015625 
L -5.171875 -20.015625 
L -5.171875 -11.71875 
L -2.09375 -11.71875 
Q 4.4375 -11.71875 7.125 -8.046875 
Q 9.8125 -4.390625 9.8125 5.078125 
z
" id="DejaVuSans-74"/>
      <path d="M 30.609375 48.390625 
Q 23.390625 48.390625 19.1875 42.75 
Q 14.984375 37.109375 14.984375 27.296875 
Q 14.984375 17.484375 19.15625 11.84375 
Q 23.34375 6.203125 30.609375 6.203125 
Q 37.796875 6.203125 41.984375 11.859375 
Q 46.1875 17.53125 46.1875 27.296875 
Q 46.1875 37.015625 41.984375 42.703125 
Q 37.796875 48.390625 30.609375 48.390625 
z
M 30.609375 56 
Q 42.328125 56 49.015625 48.375 
Q 55.71875 40.765625 55.71875 27.296875 
Q 55.71875 13.875 49.015625 6.21875 
Q 42.328125 -1.421875 30.609375 -1.421875 
Q 18.84375 -1.421875 12.171875 6.21875 
Q 5.515625 13.875 5.515625 27.296875 
Q 5.515625 40.765625 12.171875 48.375 
Q 18.84375 56 30.609375 56 
z
" id="DejaVuSans-111"/>
      <path d="M 8.5 21.578125 
L 8.5 54.6875 
L 17.484375 54.6875 
L 17.484375 21.921875 
Q 17.484375 14.15625 20.5 10.265625 
Q 23.53125 6.390625 29.59375 6.390625 
Q 36.859375 6.390625 41.078125 11.03125 
Q 45.3125 15.671875 45.3125 23.6875 
L 45.3125 54.6875 
L 54.296875 54.6875 
L 54.296875 0 
L 45.3125 0 
L 45.3125 8.40625 
Q 42.046875 3.421875 37.71875 1 
Q 33.40625 -1.421875 27.6875 -1.421875 
Q 18.265625 -1.421875 13.375 4.4375 
Q 8.5 10.296875 8.5 21.578125 
z
M 31.109375 56 
z
" id="DejaVuSans-117"/>
     </defs>
     <g transform="translate(35.332812 325.107812)rotate(-90)scale(0.1 -0.1)">
      <use xlink:href="#DejaVuSans-75"/>
      <use x="65.576172" xlink:href="#DejaVuSans-105"/>
      <use x="93.359375" xlink:href="#DejaVuSans-110"/>
      <use x="156.738281" xlink:href="#DejaVuSans-101"/>
      <use x="218.261719" xlink:href="#DejaVuSans-116"/>
      <use x="257.470703" xlink:href="#DejaVuSans-105"/>
      <use x="285.253906" xlink:href="#DejaVuSans-99"/>
      <use x="340.234375" xlink:href="#DejaVuSans-32"/>
      <use x="372.021484" xlink:href="#DejaVuSans-69"/>
      <use x="435.205078" xlink:href="#DejaVuSans-110"/>
      <use x="498.583984" xlink:href="#DejaVuSans-101"/>
      <use x="560.107422" xlink:href="#DejaVuSans-114"/>
      <use x="601.205078" xlink:href="#DejaVuSans-103"/>
      <use x="664.681641" xlink:href="#DejaVuSans-121"/>
      <use x="723.861328" xlink:href="#DejaVuSans-32"/>
      <use x="755.648438" xlink:href="#DejaVuSans-40"/>
      <use x="794.662109" xlink:href="#DejaVuSans-74"/>
      <use x="824.154297" xlink:href="#DejaVuSans-111"/>
      <use x="885.335938" xlink:href="#DejaVuSans-117"/>
      <use x="948.714844" xlink:href="#DejaVuSans-108"/>
      <use x="976.498047" xlink:href="#DejaVuSans-101"/>
      <use x="1038.021484" xlink:href="#DejaVuSans-115"/>
      <use x="1090.121094" xlink:href="#DejaVuSans-41"/>
     </g>
    </g>
   </g>
   <g id="LineCollection_1">
    <path clip-path="url(#p08bb572dcb)" d="M 86.522727 301.203193 
L 86.522727 220.762846 
" style="fill:none;stroke:#ff0000;"/>
    <path clip-path="url(#p08bb572dcb)" d="M 116.450348 390.488176 
L 116.450348 318.792702 
" style="fill:none;stroke:#ff0000;"/>
    <path clip-path="url(#p08bb572dcb)" d="M 148.045096 366.167029 
L 148.045096 267.588558 
" style="fill:none;stroke:#ff0000;"/>
    <path clip-path="url(#p08bb572dcb)" d="M 221.425579 358.288903 
L 221.425579 273.992937 
" style="fill:none;stroke:#ff0000;"/>
    <path clip-path="url(#p08bb572dcb)" d="M 267.836248 365.250477 
L 267.836248 252.168311 
" style="fill:none;stroke:#ff0000;"/>
    <path clip-path="url(#p08bb572dcb)" d="M 332.262645 380.921654 
L 332.262645 235.074252 
" style="fill:none;stroke:#ff0000;"/>
    <path clip-path="url(#p08bb572dcb)" d="M 400.991305 439.630612 
L 400.991305 295.327269 
" style="fill:none;stroke:#ff0000;"/>
    <path clip-path="url(#p08bb572dcb)" d="M 466.977273 437.81458 
L 466.977273 122.328749 
" style="fill:none;stroke:#ff0000;"/>
   </g>
   <g id="LineCollection_2">
    <path clip-path="url(#p08bb572dcb)" d="M 86.522727 350.753747 
L 86.522727 270.3134 
" style="fill:none;stroke:#008000;"/>
    <path clip-path="url(#p08bb572dcb)" d="M 116.450348 384.103229 
L 116.450348 312.407755 
" style="fill:none;stroke:#008000;"/>
    <path clip-path="url(#p08bb572dcb)" d="M 148.045096 420.638296 
L 148.045096 322.059825 
" style="fill:none;stroke:#008000;"/>
    <path clip-path="url(#p08bb572dcb)" d="M 221.425579 453.968182 
L 221.425579 369.672215 
" style="fill:none;stroke:#008000;"/>
    <path clip-path="url(#p08bb572dcb)" d="M 267.836248 364.859134 
L 267.836248 251.776969 
" style="fill:none;stroke:#008000;"/>
    <path clip-path="url(#p08bb572dcb)" d="M 332.262645 413.445189 
L 332.262645 267.597787 
" style="fill:none;stroke:#008000;"/>
    <path clip-path="url(#p08bb572dcb)" d="M 400.991305 441.552559 
L 400.991305 297.249216 
" style="fill:none;stroke:#008000;"/>
    <path clip-path="url(#p08bb572dcb)" d="M 466.977273 398.817648 
L 466.977273 83.331818 
" style="fill:none;stroke:#008000;"/>
   </g>
   <g id="line2d_16">
    <defs>
     <path d="M 5 0 
L -5 -0 
" id="m560e937c22" style="stroke:#ff0000;"/>
    </defs>
    <g clip-path="url(#p08bb572dcb)">
     <use style="fill:#ff0000;stroke:#ff0000;" x="86.522727" xlink:href="#m560e937c22" y="301.203193"/>
     <use style="fill:#ff0000;stroke:#ff0000;" x="116.450348" xlink:href="#m560e937c22" y="390.488176"/>
     <use style="fill:#ff0000;stroke:#ff0000;" x="148.045096" xlink:href="#m560e937c22" y="366.167029"/>
     <use style="fill:#ff0000;stroke:#ff0000;" x="221.425579" xlink:href="#m560e937c22" y="358.288903"/>
     <use style="fill:#ff0000;stroke:#ff0000;" x="267.836248" xlink:href="#m560e937c22" y="365.250477"/>
     <use style="fill:#ff0000;stroke:#ff0000;" x="332.262645" xlink:href="#m560e937c22" y="380.921654"/>
     <use style="fill:#ff0000;stroke:#ff0000;" x="400.991305" xlink:href="#m560e937c22" y="439.630612"/>
     <use style="fill:#ff0000;stroke:#ff0000;" x="466.977273" xlink:href="#m560e937c22" y="437.81458"/>
    </g>
   </g>
   <g id="line2d_17">
    <g clip-path="url(#p08bb572dcb)">
     <use style="fill:#ff0000;stroke:#ff0000;" x="86.522727" xlink:href="#m560e937c22" y="220.762846"/>
     <use style="fill:#ff0000;stroke:#ff0000;" x="116.450348" xlink:href="#m560e937c22" y="318.792702"/>
     <use style="fill:#ff0000;stroke:#ff0000;" x="148.045096" xlink:href="#m560e937c22" y="267.588558"/>
     <use style="fill:#ff0000;stroke:#ff0000;" x="221.425579" xlink:href="#m560e937c22" y="273.992937"/>
     <use style="fill:#ff0000;stroke:#ff0000;" x="267.836248" xlink:href="#m560e937c22" y="252.168311"/>
     <use style="fill:#ff0000;stroke:#ff0000;" x="332.262645" xlink:href="#m560e937c22" y="235.074252"/>
     <use style="fill:#ff0000;stroke:#ff0000;" x="400.991305" xlink:href="#m560e937c22" y="295.327269"/>
     <use style="fill:#ff0000;stroke:#ff0000;" x="466.977273" xlink:href="#m560e937c22" y="122.328749"/>
    </g>
   </g>
   <g id="line2d_18">
    <defs>
     <path d="M 5 0 
L -5 -0 
" id="m4d67f64778" style="stroke:#008000;"/>
    </defs>
    <g clip-path="url(#p08bb572dcb)">
     <use style="fill:#008000;stroke:#008000;" x="86.522727" xlink:href="#m4d67f64778" y="350.753747"/>
     <use style="fill:#008000;stroke:#008000;" x="116.450348" xlink:href="#m4d67f64778" y="384.103229"/>
     <use style="fill:#008000;stroke:#008000;" x="148.045096" xlink:href="#m4d67f64778" y="420.638296"/>
     <use style="fill:#008000;stroke:#008000;" x="221.425579" xlink:href="#m4d67f64778" y="453.968182"/>
     <use style="fill:#008000;stroke:#008000;" x="267.836248" xlink:href="#m4d67f64778" y="364.859134"/>
     <use style="fill:#008000;stroke:#008000;" x="332.262645" xlink:href="#m4d67f64778" y="413.445189"/>
     <use style="fill:#008000;stroke:#008000;" x="400.991305" xlink:href="#m4d67f64778" y="441.552559"/>
     <use style="fill:#008000;stroke:#008000;" x="466.977273" xlink:href="#m4d67f64778" y="398.817648"/>
    </g>
   </g>
   <g id="line2d_19">
    <g clip-path="url(#p08bb572dcb)">
     <use style="fill:#008000;stroke:#008000;" x="86.522727" xlink:href="#m4d67f64778" y="270.3134"/>
     <use style="fill:#008000;stroke:#008000;" x="116.450348" xlink:href="#m4d67f64778" y="312.407755"/>
     <use style="fill:#008000;stroke:#008000;" x="148.045096" xlink:href="#m4d67f64778" y="322.059825"/>
     <use style="fill:#008000;stroke:#008000;" x="221.425579" xlink:href="#m4d67f64778" y="369.672215"/>
     <use style="fill:#008000;stroke:#008000;" x="267.836248" xlink:href="#m4d67f64778" y="251.776969"/>
     <use style="fill:#008000;stroke:#008000;" x="332.262645" xlink:href="#m4d67f64778" y="267.597787"/>
     <use style="fill:#008000;stroke:#008000;" x="400.991305" xlink:href="#m4d67f64778" y="297.249216"/>
     <use style="fill:#008000;stroke:#008000;" x="466.977273" xlink:href="#m4d67f64778" y="83.331818"/>
    </g>
   </g>
   <g id="line2d_20">
    <defs>
     <path d="M 0 3 
C 0.795609 3 1.55874 2.683901 2.12132 2.12132 
C 2.683901 1.55874 3 0.795609 3 0 
C 3 -0.795609 2.683901 -1.55874 2.12132 -2.12132 
C 1.55874 -2.683901 0.795609 -3 0 -3 
C -0.795609 -3 -1.55874 -2.683901 -2.12132 -2.12132 
C -2.683901 -1.55874 -3 -0.795609 -3 0 
C -3 0.795609 -2.683901 1.55874 -2.12132 2.12132 
C -1.55874 2.683901 -0.795609 3 0 3 
z
" id="mc0f50e240e" style="stroke:#ff0000;"/>
    </defs>
    <g clip-path="url(#p08bb572dcb)">
     <use style="fill:#ff0000;stroke:#ff0000;" x="86.522727" xlink:href="#mc0f50e240e" y="260.98302"/>
     <use style="fill:#ff0000;stroke:#ff0000;" x="116.450348" xlink:href="#mc0f50e240e" y="354.640439"/>
     <use style="fill:#ff0000;stroke:#ff0000;" x="148.045096" xlink:href="#mc0f50e240e" y="316.877793"/>
     <use style="fill:#ff0000;stroke:#ff0000;" x="221.425579" xlink:href="#mc0f50e240e" y="316.14092"/>
     <use style="fill:#ff0000;stroke:#ff0000;" x="267.836248" xlink:href="#mc0f50e240e" y="308.709394"/>
     <use style="fill:#ff0000;stroke:#ff0000;" x="332.262645" xlink:href="#mc0f50e240e" y="307.997953"/>
     <use style="fill:#ff0000;stroke:#ff0000;" x="400.991305" xlink:href="#mc0f50e240e" y="367.47894"/>
     <use style="fill:#ff0000;stroke:#ff0000;" x="466.977273" xlink:href="#mc0f50e240e" y="280.071664"/>
    </g>
   </g>
   <g id="line2d_21">
    <defs>
     <path d="M 0 -3 
L -3 3 
L 3 3 
z
" id="m2ad73989b1" style="stroke:#008000;stroke-linejoin:miter;"/>
    </defs>
    <g clip-path="url(#p08bb572dcb)">
     <use style="fill:#008000;stroke:#008000;stroke-linejoin:miter;" x="86.522727" xlink:href="#m2ad73989b1" y="310.533574"/>
     <use style="fill:#008000;stroke:#008000;stroke-linejoin:miter;" x="116.450348" xlink:href="#m2ad73989b1" y="348.255492"/>
     <use style="fill:#008000;stroke:#008000;stroke-linejoin:miter;" x="148.045096" xlink:href="#m2ad73989b1" y="371.349061"/>
     <use style="fill:#008000;stroke:#008000;stroke-linejoin:miter;" x="221.425579" xlink:href="#m2ad73989b1" y="411.820198"/>
     <use style="fill:#008000;stroke:#008000;stroke-linejoin:miter;" x="267.836248" xlink:href="#m2ad73989b1" y="308.318051"/>
     <use style="fill:#008000;stroke:#008000;stroke-linejoin:miter;" x="332.262645" xlink:href="#m2ad73989b1" y="340.521488"/>
     <use style="fill:#008000;stroke:#008000;stroke-linejoin:miter;" x="400.991305" xlink:href="#m2ad73989b1" y="369.400887"/>
     <use style="fill:#008000;stroke:#008000;stroke-linejoin:miter;" x="466.977273" xlink:href="#m2ad73989b1" y="241.074733"/>
    </g>
   </g>
   <g id="line2d_22">
    <defs>
     <path d="M 0 1.5 
C 0.397805 1.5 0.77937 1.341951 1.06066 1.06066 
C 1.341951 0.77937 1.5 0.397805 1.5 0 
C 1.5 -0.397805 1.341951 -0.77937 1.06066 -1.06066 
C 0.77937 -1.341951 0.397805 -1.5 0 -1.5 
C -0.397805 -1.5 -0.77937 -1.341951 -1.06066 -1.06066 
C -1.341951 -0.77937 -1.5 -0.397805 -1.5 0 
C -1.5 0.397805 -1.341951 0.77937 -1.06066 1.06066 
C -0.77937 1.341951 -0.397805 1.5 0 1.5 
z
" id="mf795144e3c" style="stroke:#ff0000;"/>
    </defs>
    <g clip-path="url(#p08bb572dcb)">
     <use style="fill:#ff0000;stroke:#ff0000;" x="86.522727" xlink:href="#mf795144e3c" y="260.98302"/>
     <use style="fill:#ff0000;stroke:#ff0000;" x="116.450348" xlink:href="#mf795144e3c" y="354.640439"/>
     <use style="fill:#ff0000;stroke:#ff0000;" x="148.045096" xlink:href="#mf795144e3c" y="316.877793"/>
     <use style="fill:#ff0000;stroke:#ff0000;" x="221.425579" xlink:href="#mf795144e3c" y="316.14092"/>
     <use style="fill:#ff0000;stroke:#ff0000;" x="267.836248" xlink:href="#mf795144e3c" y="308.709394"/>
     <use style="fill:#ff0000;stroke:#ff0000;" x="332.262645" xlink:href="#mf795144e3c" y="307.997953"/>
     <use style="fill:#ff0000;stroke:#ff0000;" x="400.991305" xlink:href="#mf795144e3c" y="367.47894"/>
     <use style="fill:#ff0000;stroke:#ff0000;" x="466.977273" xlink:href="#mf795144e3c" y="280.071664"/>
    </g>
   </g>
   <g id="line2d_23">
    <defs>
     <path d="M 0 1.5 
C 0.397805 1.5 0.77937 1.341951 1.06066 1.06066 
C 1.341951 0.77937 1.5 0.397805 1.5 0 
C 1.5 -0.397805 1.341951 -0.77937 1.06066 -1.06066 
C 0.77937 -1.341951 0.397805 -1.5 0 -1.5 
C -0.397805 -1.5 -0.77937 -1.341951 -1.06066 -1.06066 
C -1.341951 -0.77937 -1.5 -0.397805 -1.5 0 
C -1.5 0.397805 -1.341951 0.77937 -1.06066 1.06066 
C -0.77937 1.341951 -0.397805 1.5 0 1.5 
z
" id="mb1b77dd05d" style="stroke:#008000;"/>
    </defs>
    <g clip-path="url(#p08bb572dcb)">
     <use style="fill:#008000;stroke:#008000;" x="86.522727" xlink:href="#mb1b77dd05d" y="310.533574"/>
     <use style="fill:#008000;stroke:#008000;" x="116.450348" xlink:href="#mb1b77dd05d" y="348.255492"/>
     <use style="fill:#008000;stroke:#008000;" x="148.045096" xlink:href="#mb1b77dd05d" y="371.349061"/>
     <use style="fill:#008000;stroke:#008000;" x="221.425579" xlink:href="#mb1b77dd05d" y="411.820198"/>
     <use style="fill:#008000;stroke:#008000;" x="267.836248" xlink:href="#mb1b77dd05d" y="308.318051"/>
     <use style="fill:#008000;stroke:#008000;" x="332.262645" xlink:href="#mb1b77dd05d" y="340.521488"/>
     <use style="fill:#008000;stroke:#008000;" x="400.991305" xlink:href="#mb1b77dd05d" y="369.400887"/>
     <use style="fill:#008000;stroke:#008000;" x="466.977273" xlink:href="#mb1b77dd05d" y="241.074733"/>
    </g>
   </g>
   <g id="patch_3">
    <path d="M 67.5 472.5 
L 67.5 64.8 
" style="fill:none;stroke:#000000;stroke-linecap:square;stroke-linejoin:miter;stroke-width:0.8;"/>
   </g>
   <g id="patch_4">
    <path d="M 486 472.5 
L 486 64.8 
" style="fill:none;stroke:#000000;stroke-linecap:square;stroke-linejoin:miter;stroke-width:0.8;"/>
   </g>
   <g id="patch_5">
    <path d="M 67.5 472.5 
L 486 472.5 
" style="fill:none;stroke:#000000;stroke-linecap:square;stroke-linejoin:miter;stroke-width:0.8;"/>
   </g>
   <g id="patch_6">
    <path d="M 67.5 64.8 
L 486 64.8 
" style="fill:none;stroke:#000000;stroke-linecap:square;stroke-linejoin:miter;stroke-width:0.8;"/>
   </g>
   <g id="text_18">
    <!-- Kinetic Energy Before and After Vs. Collision Angle -->
    <defs>
     <path d="M 19.671875 34.8125 
L 19.671875 8.109375 
L 35.5 8.109375 
Q 43.453125 8.109375 47.28125 11.40625 
Q 51.125 14.703125 51.125 21.484375 
Q 51.125 28.328125 47.28125 31.5625 
Q 43.453125 34.8125 35.5 34.8125 
z
M 19.671875 64.796875 
L 19.671875 42.828125 
L 34.28125 42.828125 
Q 41.5 42.828125 45.03125 45.53125 
Q 48.578125 48.25 48.578125 53.8125 
Q 48.578125 59.328125 45.03125 62.0625 
Q 41.5 64.796875 34.28125 64.796875 
z
M 9.8125 72.90625 
L 35.015625 72.90625 
Q 46.296875 72.90625 52.390625 68.21875 
Q 58.5 63.53125 58.5 54.890625 
Q 58.5 48.1875 55.375 44.234375 
Q 52.25 40.28125 46.1875 39.3125 
Q 53.46875 37.75 57.5 32.78125 
Q 61.53125 27.828125 61.53125 20.40625 
Q 61.53125 10.640625 54.890625 5.3125 
Q 48.25 0 35.984375 0 
L 9.8125 0 
z
" id="DejaVuSans-66"/>
     <path d="M 37.109375 75.984375 
L 37.109375 68.5 
L 28.515625 68.5 
Q 23.6875 68.5 21.796875 66.546875 
Q 19.921875 64.59375 19.921875 59.515625 
L 19.921875 54.6875 
L 34.71875 54.6875 
L 34.71875 47.703125 
L 19.921875 47.703125 
L 19.921875 0 
L 10.890625 0 
L 10.890625 47.703125 
L 2.296875 47.703125 
L 2.296875 54.6875 
L 10.890625 54.6875 
L 10.890625 58.5 
Q 10.890625 67.625 15.140625 71.796875 
Q 19.390625 75.984375 28.609375 75.984375 
z
" id="DejaVuSans-102"/>
     <path d="M 34.28125 27.484375 
Q 23.390625 27.484375 19.1875 25 
Q 14.984375 22.515625 14.984375 16.5 
Q 14.984375 11.71875 18.140625 8.90625 
Q 21.296875 6.109375 26.703125 6.109375 
Q 34.1875 6.109375 38.703125 11.40625 
Q 43.21875 16.703125 43.21875 25.484375 
L 43.21875 27.484375 
z
M 52.203125 31.203125 
L 52.203125 0 
L 43.21875 0 
L 43.21875 8.296875 
Q 40.140625 3.328125 35.546875 0.953125 
Q 30.953125 -1.421875 24.3125 -1.421875 
Q 15.921875 -1.421875 10.953125 3.296875 
Q 6 8.015625 6 15.921875 
Q 6 25.140625 12.171875 29.828125 
Q 18.359375 34.515625 30.609375 34.515625 
L 43.21875 34.515625 
L 43.21875 35.40625 
Q 43.21875 41.609375 39.140625 45 
Q 35.0625 48.390625 27.6875 48.390625 
Q 23 48.390625 18.546875 47.265625 
Q 14.109375 46.140625 10.015625 43.890625 
L 10.015625 52.203125 
Q 14.9375 54.109375 19.578125 55.046875 
Q 24.21875 56 28.609375 56 
Q 40.484375 56 46.34375 49.84375 
Q 52.203125 43.703125 52.203125 31.203125 
z
" id="DejaVuSans-97"/>
     <path d="M 45.40625 46.390625 
L 45.40625 75.984375 
L 54.390625 75.984375 
L 54.390625 0 
L 45.40625 0 
L 45.40625 8.203125 
Q 42.578125 3.328125 38.25 0.953125 
Q 33.9375 -1.421875 27.875 -1.421875 
Q 17.96875 -1.421875 11.734375 6.484375 
Q 5.515625 14.40625 5.515625 27.296875 
Q 5.515625 40.1875 11.734375 48.09375 
Q 17.96875 56 27.875 56 
Q 33.9375 56 38.25 53.625 
Q 42.578125 51.265625 45.40625 46.390625 
z
M 14.796875 27.296875 
Q 14.796875 17.390625 18.875 11.75 
Q 22.953125 6.109375 30.078125 6.109375 
Q 37.203125 6.109375 41.296875 11.75 
Q 45.40625 17.390625 45.40625 27.296875 
Q 45.40625 37.203125 41.296875 42.84375 
Q 37.203125 48.484375 30.078125 48.484375 
Q 22.953125 48.484375 18.875 42.84375 
Q 14.796875 37.203125 14.796875 27.296875 
z
" id="DejaVuSans-100"/>
     <path d="M 28.609375 0 
L 0.78125 72.90625 
L 11.078125 72.90625 
L 34.1875 11.53125 
L 57.328125 72.90625 
L 67.578125 72.90625 
L 39.796875 0 
z
" id="DejaVuSans-86"/>
     <path d="M 10.6875 12.40625 
L 21 12.40625 
L 21 0 
L 10.6875 0 
z
" id="DejaVuSans-46"/>
     <path d="M 64.40625 67.28125 
L 64.40625 56.890625 
Q 59.421875 61.53125 53.78125 63.8125 
Q 48.140625 66.109375 41.796875 66.109375 
Q 29.296875 66.109375 22.65625 58.46875 
Q 16.015625 50.828125 16.015625 36.375 
Q 16.015625 21.96875 22.65625 14.328125 
Q 29.296875 6.6875 41.796875 6.6875 
Q 48.140625 6.6875 53.78125 8.984375 
Q 59.421875 11.28125 64.40625 15.921875 
L 64.40625 5.609375 
Q 59.234375 2.09375 53.4375 0.328125 
Q 47.65625 -1.421875 41.21875 -1.421875 
Q 24.65625 -1.421875 15.125 8.703125 
Q 5.609375 18.84375 5.609375 36.375 
Q 5.609375 53.953125 15.125 64.078125 
Q 24.65625 74.21875 41.21875 74.21875 
Q 47.75 74.21875 53.53125 72.484375 
Q 59.328125 70.75 64.40625 67.28125 
z
" id="DejaVuSans-67"/>
    </defs>
    <g transform="translate(124.776563 58.8)scale(0.12 -0.12)">
     <use xlink:href="#DejaVuSans-75"/>
     <use x="65.576172" xlink:href="#DejaVuSans-105"/>
     <use x="93.359375" xlink:href="#DejaVuSans-110"/>
     <use x="156.738281" xlink:href="#DejaVuSans-101"/>
     <use x="218.261719" xlink:href="#DejaVuSans-116"/>
     <use x="257.470703" xlink:href="#DejaVuSans-105"/>
     <use x="285.253906" xlink:href="#DejaVuSans-99"/>
     <use x="340.234375" xlink:href="#DejaVuSans-32"/>
     <use x="372.021484" xlink:href="#DejaVuSans-69"/>
     <use x="435.205078" xlink:href="#DejaVuSans-110"/>
     <use x="498.583984" xlink:href="#DejaVuSans-101"/>
     <use x="560.107422" xlink:href="#DejaVuSans-114"/>
     <use x="601.205078" xlink:href="#DejaVuSans-103"/>
     <use x="664.681641" xlink:href="#DejaVuSans-121"/>
     <use x="723.861328" xlink:href="#DejaVuSans-32"/>
     <use x="755.648438" xlink:href="#DejaVuSans-66"/>
     <use x="824.251953" xlink:href="#DejaVuSans-101"/>
     <use x="885.775391" xlink:href="#DejaVuSans-102"/>
     <use x="920.980469" xlink:href="#DejaVuSans-111"/>
     <use x="982.162109" xlink:href="#DejaVuSans-114"/>
     <use x="1023.244141" xlink:href="#DejaVuSans-101"/>
     <use x="1084.767578" xlink:href="#DejaVuSans-32"/>
     <use x="1116.554688" xlink:href="#DejaVuSans-97"/>
     <use x="1177.833984" xlink:href="#DejaVuSans-110"/>
     <use x="1241.212891" xlink:href="#DejaVuSans-100"/>
     <use x="1304.689453" xlink:href="#DejaVuSans-32"/>
     <use x="1336.476562" xlink:href="#DejaVuSans-65"/>
     <use x="1404.837891" xlink:href="#DejaVuSans-102"/>
     <use x="1440.027344" xlink:href="#DejaVuSans-116"/>
     <use x="1479.236328" xlink:href="#DejaVuSans-101"/>
     <use x="1540.759766" xlink:href="#DejaVuSans-114"/>
     <use x="1581.873047" xlink:href="#DejaVuSans-32"/>
     <use x="1613.660156" xlink:href="#DejaVuSans-86"/>
     <use x="1682.068359" xlink:href="#DejaVuSans-115"/>
     <use x="1734.167969" xlink:href="#DejaVuSans-46"/>
     <use x="1765.955078" xlink:href="#DejaVuSans-32"/>
     <use x="1797.742188" xlink:href="#DejaVuSans-67"/>
     <use x="1867.566406" xlink:href="#DejaVuSans-111"/>
     <use x="1928.748047" xlink:href="#DejaVuSans-108"/>
     <use x="1956.53125" xlink:href="#DejaVuSans-108"/>
     <use x="1984.314453" xlink:href="#DejaVuSans-105"/>
     <use x="2012.097656" xlink:href="#DejaVuSans-115"/>
     <use x="2064.197266" xlink:href="#DejaVuSans-105"/>
     <use x="2091.980469" xlink:href="#DejaVuSans-111"/>
     <use x="2153.162109" xlink:href="#DejaVuSans-110"/>
     <use x="2216.541016" xlink:href="#DejaVuSans-32"/>
     <use x="2248.328125" xlink:href="#DejaVuSans-65"/>
     <use x="2316.736328" xlink:href="#DejaVuSans-110"/>
     <use x="2380.115234" xlink:href="#DejaVuSans-103"/>
     <use x="2443.591797" xlink:href="#DejaVuSans-108"/>
     <use x="2471.375" xlink:href="#DejaVuSans-101"/>
    </g>
   </g>
   <g id="legend_1">
    <g id="patch_7">
     <path d="M 74.5 131.5125 
L 158.998437 131.5125 
Q 160.998437 131.5125 160.998437 129.5125 
L 160.998437 71.8 
Q 160.998437 69.8 158.998437 69.8 
L 74.5 69.8 
Q 72.5 69.8 72.5 71.8 
L 72.5 129.5125 
Q 72.5 131.5125 74.5 131.5125 
z
" style="fill:#ffffff;opacity:0.8;stroke:#cccccc;stroke-linejoin:miter;"/>
    </g>
    <g id="line2d_24"/>
    <g id="line2d_25">
     <g>
      <use style="fill:#ff0000;stroke:#ff0000;" x="86.5" xlink:href="#mc0f50e240e" y="77.898438"/>
     </g>
    </g>
    <g id="text_19">
     <!-- initial -->
     <g transform="translate(104.5 81.398438)scale(0.1 -0.1)">
      <use xlink:href="#DejaVuSans-105"/>
      <use x="27.783203" xlink:href="#DejaVuSans-110"/>
      <use x="91.162109" xlink:href="#DejaVuSans-105"/>
      <use x="118.945312" xlink:href="#DejaVuSans-116"/>
      <use x="158.154297" xlink:href="#DejaVuSans-105"/>
      <use x="185.9375" xlink:href="#DejaVuSans-97"/>
      <use x="247.216797" xlink:href="#DejaVuSans-108"/>
     </g>
    </g>
    <g id="line2d_26"/>
    <g id="line2d_27">
     <g>
      <use style="fill:#008000;stroke:#008000;stroke-linejoin:miter;" x="86.5" xlink:href="#m2ad73989b1" y="92.576563"/>
     </g>
    </g>
    <g id="text_20">
     <!-- final -->
     <g transform="translate(104.5 96.076563)scale(0.1 -0.1)">
      <use xlink:href="#DejaVuSans-102"/>
      <use x="35.205078" xlink:href="#DejaVuSans-105"/>
      <use x="62.988281" xlink:href="#DejaVuSans-110"/>
      <use x="126.367188" xlink:href="#DejaVuSans-97"/>
      <use x="187.646484" xlink:href="#DejaVuSans-108"/>
     </g>
    </g>
    <g id="LineCollection_3">
     <path d="M 86.5 112.254688 
L 86.5 102.254688 
" style="fill:none;stroke:#ff0000;"/>
    </g>
    <g id="line2d_28">
     <g>
      <use style="fill:#ff0000;stroke:#ff0000;" x="86.5" xlink:href="#m560e937c22" y="112.254688"/>
     </g>
    </g>
    <g id="line2d_29">
     <g>
      <use style="fill:#ff0000;stroke:#ff0000;" x="86.5" xlink:href="#m560e937c22" y="102.254688"/>
     </g>
    </g>
    <g id="line2d_30"/>
    <g id="line2d_31">
     <g>
      <use style="fill:#ff0000;stroke:#ff0000;" x="86.5" xlink:href="#mf795144e3c" y="107.254688"/>
     </g>
    </g>
    <g id="text_21">
     <!-- inital error -->
     <g transform="translate(104.5 110.754688)scale(0.1 -0.1)">
      <use xlink:href="#DejaVuSans-105"/>
      <use x="27.783203" xlink:href="#DejaVuSans-110"/>
      <use x="91.162109" xlink:href="#DejaVuSans-105"/>
      <use x="118.945312" xlink:href="#DejaVuSans-116"/>
      <use x="158.154297" xlink:href="#DejaVuSans-97"/>
      <use x="219.433594" xlink:href="#DejaVuSans-108"/>
      <use x="247.216797" xlink:href="#DejaVuSans-32"/>
      <use x="279.003906" xlink:href="#DejaVuSans-101"/>
      <use x="340.527344" xlink:href="#DejaVuSans-114"/>
      <use x="381.625" xlink:href="#DejaVuSans-114"/>
      <use x="422.707031" xlink:href="#DejaVuSans-111"/>
      <use x="483.888672" xlink:href="#DejaVuSans-114"/>
     </g>
    </g>
    <g id="LineCollection_4">
     <path d="M 86.5 126.932813 
L 86.5 116.932813 
" style="fill:none;stroke:#008000;"/>
    </g>
    <g id="line2d_32">
     <g>
      <use style="fill:#008000;stroke:#008000;" x="86.5" xlink:href="#m4d67f64778" y="126.932813"/>
     </g>
    </g>
    <g id="line2d_33">
     <g>
      <use style="fill:#008000;stroke:#008000;" x="86.5" xlink:href="#m4d67f64778" y="116.932813"/>
     </g>
    </g>
    <g id="line2d_34"/>
    <g id="line2d_35">
     <g>
      <use style="fill:#008000;stroke:#008000;" x="86.5" xlink:href="#mb1b77dd05d" y="121.932813"/>
     </g>
    </g>
    <g id="text_22">
     <!-- final error -->
     <g transform="translate(104.5 125.432813)scale(0.1 -0.1)">
      <use xlink:href="#DejaVuSans-102"/>
      <use x="35.205078" xlink:href="#DejaVuSans-105"/>
      <use x="62.988281" xlink:href="#DejaVuSans-110"/>
      <use x="126.367188" xlink:href="#DejaVuSans-97"/>
      <use x="187.646484" xlink:href="#DejaVuSans-108"/>
      <use x="215.429688" xlink:href="#DejaVuSans-32"/>
      <use x="247.216797" xlink:href="#DejaVuSans-101"/>
      <use x="308.740234" xlink:href="#DejaVuSans-114"/>
      <use x="349.837891" xlink:href="#DejaVuSans-114"/>
      <use x="390.919922" xlink:href="#DejaVuSans-111"/>
      <use x="452.101562" xlink:href="#DejaVuSans-114"/>
     </g>
    </g>
   </g>
  </g>
 </g>
 <defs>
  <clipPath id="p08bb572dcb">
   <rect height="407.7" width="418.5" x="67.5" y="64.8"/>
  </clipPath>
 </defs>
</svg>
